<?xml version="1.0" encoding="UTF-8" standalone="no"?>
<!-- Created with Inkscape (http://www.inkscape.org/) -->

<svg
   width="128"
   height="128"
   viewBox="0 0 33.866666 33.866666"
   version="1.1"
   id="svg5"
   inkscape:version="1.1 (c68e22c387, 2021-05-23)"
   sodipodi:docname="128.svg"
   xmlns:inkscape="http://www.inkscape.org/namespaces/inkscape"
   xmlns:sodipodi="http://sodipodi.sourceforge.net/DTD/sodipodi-0.dtd"
   xmlns="http://www.w3.org/2000/svg"
   xmlns:svg="http://www.w3.org/2000/svg">
  <sodipodi:namedview
     id="namedview7"
     pagecolor="#505050"
     bordercolor="#eeeeee"
     borderopacity="1"
     inkscape:pageshadow="0"
     inkscape:pageopacity="0"
     inkscape:pagecheckerboard="false"
     inkscape:document-units="mm"
     showgrid="true"
     units="px"
     inkscape:snap-center="true"
     inkscape:zoom="6.3359375"
     inkscape:cx="63.921085"
     inkscape:cy="64"
     inkscape:window-width="1920"
     inkscape:window-height="1019"
     inkscape:window-x="0"
     inkscape:window-y="30"
     inkscape:window-maximized="1"
     inkscape:current-layer="layer2">
    <inkscape:grid
       type="xygrid"
       id="grid1111" />
  </sodipodi:namedview>
  <defs
     id="defs2" />
  <g
     inkscape:groupmode="layer"
     id="layer2"
     inkscape:label="Layer 2">
    <path
       style="fill:#000000;stroke:#000000;stroke-width:0.314356px;stroke-linecap:butt;stroke-linejoin:miter;stroke-opacity:1"
       d="M 6.2049177,22.734462 C 6.8739626,22.850478 7.513694,22.434433 7.7766998,21.162679 V 14.87555 C 7.4105846,13.604197 6.6741625,13.577192 6.2049177,13.303767 5.5765852,13.67674 4.6463318,13.613182 4.6331354,14.87555 v 6.287129 C 4.364967,22.699402 7.045023,23.18454 6.2049177,22.734462"
       id="path3462"
       sodipodi:nodetypes="ccccccc" />
    <path
       style="fill:#000000;stroke:#000000;stroke-width:0.314356px;stroke-linecap:butt;stroke-linejoin:miter;stroke-opacity:1"
       d="m 28.20987,22.734462 c 0.669045,0.116016 1.308776,-0.300029 1.571781,-1.571783 V 14.87555 c -0.366115,-1.271353 -1.102536,-1.298358 -1.571781,-1.571783 -0.628333,0.372973 -1.558587,0.309415 -1.571783,1.571783 v 6.287129 c -0.268168,1.536723 2.411888,2.021861 1.571783,1.571783"
       id="path4158"
       sodipodi:nodetypes="ccccccc" />
    <path
       style="fill:none;stroke:#000000;stroke-width:1.18812;stroke-linecap:butt;stroke-linejoin:miter;stroke-miterlimit:4;stroke-dasharray:none;stroke-opacity:1"
       d="M 3.0518764,16.527765 4.6236586,7.097072 C 5.8928105,5.990549 8.9428193,3.601368 10.910788,3.953508 h 12.574257 c 1.938786,0.558674 3.048398,0.07701 5.352896,2.996741 0.153511,0.371702 2.506016,9.577516 2.506016,9.577516"
       id="path7864"
       sodipodi:nodetypes="cccccc" />
  </g>
  <g
     inkscape:label="Layer 1"
     inkscape:groupmode="layer"
     id="layer1">
    <g
       style="overflow:hidden;fill:currentColor"
       id="g1302"
       transform="matrix(0.02803333,0,0,0.02803333,2.5732112,3.728353)"
       inkscape:transform-center-x="-22.484881"
       inkscape:transform-center-y="13.804527">
      <path
         d="m 688.768,192.04267 h 64 c 0,0 89.216,-108.45867 170.66667,-42.66667 96.44803,77.888 -21.33334,256 -85.33334,255.95733 C 790.4,405.33333 688.768,192.04267 688.768,192.04267 Z m -354.66667,0 h -64 c 0,0 -89.216,-108.45867 -170.666663,-42.66667 -96.448,77.888 21.333333,256 85.333333,255.95733 47.70133,0 149.33333,-213.29066 149.33333,-213.29066 z"
         fill="#996704"
         id="path1209" />
      <path
         d="m 384,853.33333 a 128,85.333333 0 1 0 256,0 128,85.333333 0 1 0 -256,0 z"
         fill="#ffc107"
         id="path1211" />
      <path
         d="m 874.66667,581.33333 c 0,106.048 -170.66667,272 -277.33334,272 -64,0 -85.33333,-42.66666 -85.33333,-42.66666 0,0 -21.33333,42.66666 -85.33333,42.66666 -106.66667,0 -277.33334,-165.952 -277.33334,-272 L 170.66667,384 c 0,-106.048 106.66666,-192 192,-234.66667 0,0 42.66666,-21.33333 85.33333,-21.33333 h 128 c 42.66667,0 85.33333,21.33333 85.33333,21.33333 64,21.33334 192,128.61867 192,234.66667 z"
         fill="#ffc107"
         id="path1213" />
      <path
         d="M 640,597.33333 C 597.33333,554.66667 597.33333,512 597.33333,512 c 0,0 0,-149.33333 106.66667,-149.33333 H 853.33333 C 853.33333,298.66667 725.33333,128 576,128 H 512 448 C 298.66667,128 170.66667,298.66667 170.66667,362.66667 H 320 C 426.66667,362.66667 426.66667,512 426.66667,512 c 0,0 0,42.66667 -42.66667,85.33333 -42.66667,42.66667 -106.66667,85.33334 -106.66667,128 0,42.66667 21.33334,128 149.33334,128 64,0 85.33333,-42.66666 85.33333,-42.66666 0,0 21.33333,42.66666 85.33333,42.66666 128,0 149.33334,-85.33333 149.33334,-128 0,-42.66666 -64,-85.33333 -106.66667,-128 z"
         fill="#d69107"
         id="path1215" />
      <path
         d="m 256,405.33333 c 0,0 0,106.66667 87.104,106.66667 h 62.22933 c 0,0 0,-106.66667 -74.66666,-106.66667 z m 512,0 c 0,0 0,106.66667 -87.104,106.66667 h -62.22933 c 0,0 0,-106.66667 74.66666,-106.66667 z"
         fill="#5d4037"
         id="path1217" />
      <path
         d="m 341.33333,426.66667 m -42.66666,0 a 42.666667,42.666667 0 1 0 85.33333,0 42.666667,42.666667 0 1 0 -85.33333,0 z"
         fill="#eeff41"
         id="path1219" />
      <path
         d="m 682.66667,426.66667 m -42.66667,0 a 42.666667,42.666667 0 1 0 85.33333,0 42.666667,42.666667 0 1 0 -85.33333,0 z"
         fill="#eeff41"
         id="path1221" />
      <path
         d="m 341.33333,426.66667 m -21.33333,0 a 21.333335,21.333335 0 1 0 42.66667,0 21.333335,21.333335 0 1 0 -42.66667,0 z"
         fill="#212121"
         id="path1223" />
      <path
         d="m 682.66667,426.66667 m -21.33334,0 a 21.333335,21.333335 0 1 0 42.66667,0 21.333335,21.333335 0 1 0 -42.66667,0 z"
         fill="#212121"
         id="path1225" />
      <path
         d="m 237.14133,219.11467 8.53334,10.368 A 400.64,400.64 0 0 1 286.4,192.02133 h -16.29867 c 0,0 -52.52266,-63.872 -113.74933,-63.872 -18.58133,0 -37.952,5.86667 -56.917333,21.20534 -21.525333,17.36533 -32.341333,39.744 -35.498667,64 0.02133,0 0.04267,0 0.064,-0.0427 42.66667,-42.66667 81.70667,-42.496 92.33067,-42.496 33.04533,0.0213 70.42133,35.86133 80.81066,48.29867 z M 923.43467,149.376 c -18.96534,-15.33867 -38.336,-21.20533 -56.91734,-21.20533 -61.22666,0 -113.74933,63.872 -113.74933,63.872 H 737.57867 A 395.41333,395.41333 0 0 1 777.728,228.864 l 8,-9.74933 c 10.38933,-12.43734 47.76533,-48.29867 80.81067,-48.29867 10.624,0 49.664,-0.17067 92.33066,42.496 0.0213,0.0427 0.0427,0.0427 0.064,0.0427 C 955.776,189.12 944.96,166.74133 923.43467,149.376 Z M 597.33333,725.33333 C 597.33333,772.45867 512,768 512,810.66667 512,768 426.66667,772.45867 426.66667,725.33333 c 0,-47.12533 38.208,0 85.33333,0 47.12533,0 85.33333,-47.12533 85.33333,0 z"
         fill="#3e2723"
         id="path1227" />
      <path
         d="m 394.66667,778.66667 m -10.66667,0 a 10.666667,10.666667 0 1 0 21.33333,0 10.666667,10.666667 0 1 0 -21.33333,0 z"
         fill="#3e2723"
         id="path1229" />
      <path
         d="m 373.33333,736 m -10.66666,0 A 10.666667,10.666667 0 1 0 384,736 a 10.666667,10.666667 0 1 0 -21.33333,0 z"
         fill="#3e2723"
         id="path1231" />
      <path
         d="m 394.66667,821.33333 m -10.66667,0 a 10.666667,10.666667 0 1 0 21.33333,0 10.666667,10.666667 0 1 0 -21.33333,0 z"
         fill="#3e2723"
         id="path1233" />
      <path
         d="m 352,800 m -10.66667,0 a 10.66667,10.66667 0 1 0 21.33334,0 10.66667,10.66667 0 1 0 -21.33334,0 z"
         fill="#3e2723"
         id="path1235" />
      <path
         d="m 330.66667,757.33333 m -10.66667,0 a 10.666667,10.666667 0 1 0 21.33333,0 10.666667,10.666667 0 1 0 -21.33333,0 z"
         fill="#3e2723"
         id="path1237" />
      <path
         d="m 437.33333,800 m -10.66666,0 A 10.666667,10.666667 0 1 0 448,800 a 10.666667,10.666667 0 1 0 -21.33333,0 z"
         fill="#3e2723"
         id="path1239" />
      <path
         d="m 629.33333,778.66667 m -10.66666,0 a 10.666667,10.666667 0 1 0 21.33333,0 10.666667,10.666667 0 1 0 -21.33333,0 z"
         fill="#3e2723"
         id="path1241" />
      <path
         d="M 650.66667,736 M 640,736 a 10.666667,10.666667 0 1 0 21.33333,0 A 10.666667,10.666667 0 1 0 640,736 Z"
         fill="#3e2723"
         id="path1243" />
      <path
         d="m 629.33333,821.33333 m -10.66666,0 a 10.666667,10.666667 0 1 0 21.33333,0 10.666667,10.666667 0 1 0 -21.33333,0 z"
         fill="#3e2723"
         id="path1245" />
      <path
         d="m 672,800 m -10.66667,0 a 10.66667,10.66667 0 1 0 21.33334,0 10.66667,10.66667 0 1 0 -21.33334,0 z"
         fill="#3e2723"
         id="path1247" />
      <path
         d="m 693.33333,757.33333 m -10.66666,0 a 10.666667,10.666667 0 1 0 21.33333,0 10.666667,10.666667 0 1 0 -21.33333,0 z"
         fill="#3e2723"
         id="path1249" />
      <path
         d="M 586.66667,800 M 576,800 a 10.666667,10.666667 0 1 0 21.33333,0 A 10.666667,10.666667 0 1 0 576,800 Z"
         fill="#3e2723"
         id="path1251" />
      <path
         d="m 512,298.66667 m -42.66667,0 a 42.66667,42.66667 0 1 0 85.33334,0 42.66667,42.66667 0 1 0 -85.33334,0 z"
         fill="#3e2723"
         id="path1253" />
      <path
         d="m 512,405.33333 m -21.33333,0 a 21.333333,21.333333 0 1 0 42.66666,0 21.333333,21.333333 0 1 0 -42.66666,0 z"
         fill="#3e2723"
         id="path1255" />
      <path
         d="M 451.92533,128 A 63.189333,63.189333 0 0 0 448,149.33333 a 64,64 0 0 0 128,0 C 576,141.80267 574.464,134.69867 572.07467,128 Z"
         fill="#3e2723"
         id="path1257" />
      <path
         d="m 661.33333,213.33333 m -42.66666,0 a 42.666667,42.666667 0 1 0 85.33333,0 42.666667,42.666667 0 1 0 -85.33333,0 z"
         fill="#3e2723"
         id="path1259" />
      <path
         d="m 362.66667,213.33333 m -42.66667,0 a 42.666667,42.666667 0 1 0 85.33333,0 42.666667,42.666667 0 1 0 -85.33333,0 z"
         fill="#3e2723"
         id="path1261" />
      <path
         d="m 832,522.66667 a 32,32 0 0 0 32,32 c 2.66667,0 5.20533,-0.42667 7.65867,-1.04534 l -6.784,-62.86933 c -0.29867,0 -0.576,-0.0853 -0.87467,-0.0853 a 32,32 0 0 0 -32,32 z M 832,576 c -35.328,0 -64,28.672 -64,64 a 63.872,63.872 0 0 0 55.12533,63.12533 c 28.11734,-37.76 47.21067,-76.992 50.53867,-111.33866 A 63.402667,63.402667 0 0 0 832,576 Z M 160,554.66667 a 32,32 0 0 0 0,-64 c -0.29867,0 -0.576,0.0853 -0.87467,0.0853 l -6.784,62.86933 c 2.45334,0.61867 4.992,1.04534 7.65867,1.04534 z M 192,576 c -16,0 -30.464,6.08 -41.664,15.78667 3.328,34.32533 22.42133,73.57866 50.53867,111.33866 A 63.872,63.872 0 0 0 256,640 c 0,-35.328 -28.672,-64 -64,-64 z"
         fill="#a36b07"
         id="path1263" />
      <path
         d="m 597.33333,853.33333 c -64,0 -85.33333,-42.66666 -85.33333,-42.66666 0,0 -21.33333,42.66666 -85.33333,42.66666 -43.008,0 -73.77067,-9.74933 -95.936,-24.17066 25.856,29.97333 59.264,65.6 67.968,63.808 9.51466,1.81333 18.88,3.02933 27.968,3.02933 C 463.18933,896 491.456,885.07733 512,871.12533 532.544,885.07733 560.81067,896 597.33333,896 c 9.088,0 18.45334,-1.216 27.968,-3.02933 8.68267,1.792 42.112,-33.83467 67.968,-63.808 -22.16533,14.42133 -52.928,24.17066 -95.936,24.17066 z"
         fill="#996704"
         id="path1265" />
    </g>
    <path
       style="fill:#afdde9;stroke:#000007;stroke-width:0.0394319"
       d="m 21.50758,16.840561 c -0.266664,-0.05146 -0.501433,-0.183108 -0.671904,-0.376774 -0.636538,-0.723143 -0.174474,-1.864602 0.782512,-1.933073 0.390665,-0.02796 0.632367,0.06286 0.908993,0.341486 0.243984,0.24576 0.353156,0.503371 0.353156,0.833348 0,0.694942 -0.691301,1.266517 -1.372757,1.135013 z m 0.507234,-0.620507 c 0.52363,-0.278631 0.33701,-1.083194 -0.263426,-1.135702 -0.631324,-0.05521 -0.901487,0.798573 -0.35762,1.130172 0.163271,0.09955 0.439735,0.102011 0.621046,0.0056 z"
       id="path1417" />
    <path
       style="fill:#afdde9;stroke:#000007;stroke-width:0.0394319"
       d="m 11.940721,16.840561 c -0.569867,-0.109968 -0.963877,-0.574599 -0.96508,-1.138058 -0.0013,-0.631249 0.455286,-1.127401 1.078659,-1.172002 0.388501,-0.02781 0.62947,0.06355 0.911462,0.345549 0.264503,0.264505 0.366836,0.535465 0.340376,0.901259 -0.04876,0.674119 -0.710725,1.189591 -1.365417,1.063252 z m 0.507235,-0.619321 c 0.190471,-0.09971 0.325253,-0.364388 0.30153,-0.592131 -0.05904,-0.566762 -0.797437,-0.752146 -1.119067,-0.280953 -0.11604,0.170004 -0.120742,0.478282 -0.01008,0.659822 0.164996,0.270615 0.535595,0.366114 0.827593,0.213262 z"
       id="path1456" />
    <path
       style="fill:#93a7ac;stroke:#000007;stroke-width:0.0394319"
       d="M 11.659946,18.003014 C 11.01741,17.86387 10.50583,17.44627 10.187565,16.801114 9.9903473,16.401331 9.8350673,15.852683 9.790281,15.397388 l -0.02808,-0.285432 h 0.651588 0.651588 l -0.06273,0.147638 c -0.100308,0.236121 -0.08456,0.658788 0.0342,0.917161 0.140622,0.305941 0.278043,0.450879 0.558321,0.58886 0.290421,0.142973 0.649804,0.16537 0.966376,0.06022 0.332718,-0.110508 0.650438,-0.451761 0.752631,-0.808374 0.02546,-0.08886 0.04219,-0.06973 0.172147,0.19685 0.228405,0.468538 0.417689,1.229123 0.417689,1.678372 v 0.172007 l -0.994087,-0.0031 c -0.696557,-0.0022 -1.07068,-0.01971 -1.249991,-0.05855 z"
       id="path1532" />
    <path
       style="fill:#93a7ac;stroke:#000007;stroke-width:0.0394319"
       d="m 19.947849,17.798945 c 0.03646,-0.365317 0.125131,-0.806866 0.22338,-1.112197 0.07914,-0.245958 0.29129,-0.708657 0.324916,-0.708657 0.0089,0 0.05951,0.09454 0.112416,0.210097 0.334744,0.73118 1.29684,0.940548 1.896496,0.412709 0.354801,-0.312309 0.506266,-0.84808 0.360608,-1.275565 -0.03524,-0.103416 -0.06407,-0.193734 -0.06407,-0.200704 0,-0.0069 0.288778,-0.01267 0.641731,-0.01267 h 0.641731 l -0.03032,0.313608 c -0.1089,1.126487 -0.633073,2.034887 -1.386676,2.403129 -0.422275,0.206341 -0.642405,0.235346 -1.788882,0.235701 l -0.95785,3.01e-4 z"
       id="path1571" />
    <path
       style="fill:#93a7ac;stroke:#000007;stroke-width:0.0394319"
       d="m 16.85738,26.09763 c -0.0941,-0.227176 -0.392922,-0.447184 -1.088731,-0.801578 -0.983563,-0.500953 -1.20432,-0.73272 -1.200272,-1.260124 0.0033,-0.418822 0.0984,-0.562625 0.349796,-0.528459 0.08099,0.01104 0.395289,0.11844 0.698436,0.238752 0.674493,0.267674 1.104329,0.361726 1.482739,0.324438 0.344974,-0.03399 0.553875,-0.0956 1.219841,-0.359807 0.542883,-0.215368 0.686635,-0.24568 0.821882,-0.173297 0.145973,0.07812 0.203328,0.548049 0.101628,0.832749 -0.118115,0.330715 -0.413264,0.564329 -1.1965,0.947074 -0.635451,0.310529 -0.915644,0.511359 -1.032213,0.739855 -0.04405,0.08635 -0.08645,0.157005 -0.09421,0.157005 -0.0077,0 -0.03584,-0.05248 -0.06241,-0.116617 z"
       id="path1610" />
    <path
       style="fill:#aaaaff;stroke:#000007;stroke-width:0.0394319"
       d="m 20.634059,24.566842 c -0.121903,-0.09871 -0.121903,-0.307258 0,-0.405969 0.187701,-0.151992 0.44839,-0.03398 0.44839,0.202984 0,0.236965 -0.260689,0.354977 -0.44839,0.202985 z"
       id="path1649" />
    <path
       style="fill:#aaaaff;stroke:#000007;stroke-width:0.0394319"
       d="m 10.395026,25.696084 c -0.7987695,-0.649997 -2.20002,-2.142138 -2.0975504,-2.233606 0.019649,-0.01753 0.1213148,-0.05491 0.225927,-0.08307 C 9.0690857,23.23256 9.5502821,22.711325 9.7114697,22.092487 9.9461945,21.191317 9.405609,20.23004 8.5067814,19.950294 8.0175037,19.798013 7.3471683,19.886174 6.9817724,20.15087 c -0.089996,0.06519 -0.1752544,0.118524 -0.1894631,0.118524 -0.026276,0 0.00788,-0.567171 0.050053,-0.830825 l 0.023154,-0.144795 0.247395,-0.01576 c 0.6669436,-0.04247 1.0475941,-0.715134 0.7465461,-1.319258 -0.1342582,-0.269422 -0.451037,-0.48462 -0.7133762,-0.48462 -0.092477,0 -0.09779,-0.0102 -0.077097,-0.147637 0.023987,-0.159332 0.2850237,-2.692671 0.3225084,-3.129899 l 0.022784,-0.265745 h 2.2720423 c 2.5156001,0 2.4930381,-0.0019 3.0249851,0.257764 0.853502,0.416665 1.458794,1.4463 1.702292,2.895707 0.155639,0.926421 0.108073,1.441139 -0.194924,2.10939 -0.302109,0.66629 -0.673739,1.093941 -1.949868,2.243807 -1.172161,1.056188 -1.605675,1.552438 -1.834825,2.100354 -0.196355,0.469501 -0.06998,1.464805 0.276751,2.179568 0.08527,0.175791 0.14985,0.324862 0.143502,0.33127 -0.0063,0.0064 -0.21299,-0.152281 -0.459206,-0.352639 z m 3.548243,-7.798714 c -3.28e-4,-0.492742 -0.235218,-1.402655 -0.469887,-1.820032 -0.0795,-0.1414 -0.116628,-0.271204 -0.130393,-0.455985 -0.02455,-0.329341 -0.135017,-0.577603 -0.354832,-0.797419 -0.479267,-0.479267 -1.296869,-0.446764 -1.751414,0.06963 L 11.079158,15.07259 H 10.404992 9.730827 l 7.787e-4,0.108264 c 4.284e-4,0.05954 0.018576,0.232281 0.040308,0.383855 0.1599432,1.115116 0.6204543,1.904414 1.3278493,2.275893 0.419705,0.220402 0.674146,0.25659 1.829858,0.26025 l 1.013772,0.0033 -1.17e-4,-0.206692 z"
       id="path1764" />
    <path
       style="fill:#aaaaff;stroke:#000007;stroke-width:0.0394319"
       d="m 23.13927,25.713999 c 0.22327,-0.452385 0.332391,-0.877172 0.359953,-1.401233 0.02858,-0.54318 -0.03892,-0.784894 -0.348835,-1.249279 -0.278268,-0.416975 -0.737618,-0.889647 -1.72764,-1.777748 -0.422739,-0.379218 -0.881667,-0.81175 -1.019837,-0.961181 -0.495158,-0.535503 -0.856123,-1.197956 -1.011773,-1.856826 -0.1032,-0.436837 -0.01774,-1.322341 0.202772,-2.101202 0.372156,-1.314442 1.066961,-2.117746 2.052633,-2.373158 0.20676,-0.05357 0.564695,-0.06251 2.50494,-0.06251 2.527824,0 2.311469,-0.02702 2.311545,0.288651 2e-5,0.09025 0.07088,0.815523 0.157476,1.611706 0.0866,0.796183 0.157443,1.489539 0.157443,1.540794 0,0.08027 -0.02458,0.09688 -0.177293,0.119771 -0.225071,0.03376 -0.479953,0.224616 -0.609798,0.45663 -0.130957,0.234011 -0.135588,0.611518 -0.01044,0.849502 0.16366,0.311164 0.45645,0.487233 0.810236,0.487233 h 0.212104 l 0.0251,0.265745 c 0.01381,0.14616 0.02523,0.366324 0.02538,0.489251 l 2.52e-4,0.223505 -0.226378,-0.136522 c -0.339473,-0.204728 -0.583968,-0.262873 -1.029009,-0.244717 -0.324236,0.01323 -0.416744,0.03339 -0.645685,0.140781 -0.37368,0.175273 -0.70074,0.497096 -0.885875,0.871691 -0.144122,0.29161 -0.146101,0.302048 -0.146101,0.770097 0,0.452593 0.0059,0.486805 0.126576,0.741705 0.171821,0.362747 0.498795,0.699438 0.849766,0.875023 0.150913,0.07549 0.315249,0.137269 0.365195,0.137269 0.04994,0 0.1,0.01487 0.111217,0.03303 0.06789,0.109848 -1.549892,1.812755 -2.213343,2.329818 -0.180133,0.140388 -0.341913,0.260455 -0.359508,0.266819 -0.0176,0.0064 0.04491,-0.144226 0.138876,-0.334643 z m -0.728532,-7.720482 c 0.984009,-0.323804 1.547483,-1.234022 1.704636,-2.753609 l 0.01731,-0.167321 H 23.462059 22.79144 l -0.201903,-0.210131 c -0.75466,-0.785417 -2.070841,-0.27048 -2.082858,0.81489 -0.0016,0.140228 -0.03022,0.247196 -0.0934,0.348538 -0.106608,0.170978 -0.259556,0.550515 -0.345651,0.857714 -0.06627,0.236489 -0.178787,0.937191 -0.179157,1.115782 l -2.33e-4,0.111865 1.131882,-0.01628 c 1.028202,-0.01479 1.155582,-0.02408 1.390625,-0.101435 z"
       id="path1803" />
    <path
       style="fill:#5555ff;stroke:#000007;stroke-width:0.0394319"
       d="m 13.692795,27.589153 c -1.678464,-0.229659 -2.750576,-1.0662 -3.154992,-2.461754 -0.209712,-0.723667 -0.194576,-1.349481 0.04311,-1.782179 0.273852,-0.498556 0.612441,-0.858055 2.173874,-2.30811 0.814623,-0.756514 1.193152,-1.209556 1.447361,-1.732269 0.271513,-0.558299 0.345653,-0.916875 0.317466,-1.535424 -0.06068,-1.331774 -0.55189,-2.589245 -1.26658,-3.242434 -0.262629,-0.240028 -0.483883,-0.375434 -0.840346,-0.514288 l -0.260617,-0.101508 -2.3917145,-0.01152 c -2.2239846,-0.01068 -2.3916962,-0.01627 -2.3914399,-0.07873 7.041e-4,-0.172683 0.1709387,-0.74772 0.3248626,-1.097389 0.3162271,-0.718377 0.7845005,-1.436788 1.3604121,-2.087107 0.3634212,-0.410375 1.0510537,-1.081777 1.4640327,-1.429477 0.992311,-0.835457 2.348384,-1.522951 3.454594,-1.751387 0.314019,-0.06485 1.188102,-0.154851 1.217579,-0.125374 0.0102,0.01021 -3.52e-4,0.08667 -0.02345,0.169901 -0.06614,0.238192 -0.05101,0.687686 0.03213,0.954828 0.360264,1.157529 1.730571,1.629654 2.751406,0.947967 0.583339,-0.389539 0.889745,-1.120364 0.752415,-1.794613 l -0.06022,-0.295662 0.317663,0.02383 c 0.973012,0.07299 1.744664,0.291096 2.67985,0.757442 1.160604,0.578754 2.468335,1.669798 3.389559,2.827919 0.781433,0.982383 1.353389,2.089296 1.421735,2.751504 l 0.02254,0.218223 h -2.276597 c -2.561652,0 -2.543449,-0.0017 -3.10737,0.289122 -0.728698,0.375792 -1.259064,1.155733 -1.554327,2.28575 -0.164075,0.62794 -0.211694,0.964628 -0.212139,1.499903 -3.52e-4,0.430765 0.0108,0.505135 0.127177,0.843118 0.128714,0.374006 0.234173,0.606716 0.357793,0.78952 0.03706,0.05479 0.11886,0.178348 0.181801,0.274554 0.183579,0.280631 0.48452,0.586211 1.548397,1.572267 1.085675,1.006261 1.522536,1.492983 1.759759,1.960609 l 0.152702,0.301019 -0.0038,0.475888 c -0.0043,0.548807 -0.06946,0.866226 -0.279574,1.361177 -0.181327,0.427127 -0.332175,0.654322 -0.644622,0.970877 -0.689534,0.698605 -1.623689,1.052697 -2.910755,1.103328 -0.492809,0.0194 -0.67474,0.01092 -0.944875,-0.04367 -0.660024,-0.133519 -1.247901,-0.470547 -1.573868,-0.902285 -0.143858,-0.190539 -0.159936,-0.232572 -0.136579,-0.357072 0.03395,-0.18093 0.209997,-0.42342 0.415484,-0.572277 0.08874,-0.06428 0.441229,-0.259862 0.783314,-0.434622 0.964922,-0.49295 1.159439,-0.708544 1.16066,-1.286438 5.54e-4,-0.26613 -0.01364,-0.341177 -0.08198,-0.43307 -0.132164,-0.177742 -0.277069,-0.165212 -0.924733,0.07996 -0.819479,0.310219 -0.991715,0.354617 -1.374488,0.354298 -0.390743,-3.28e-4 -0.717138,-0.08245 -1.367049,-0.343971 -0.243021,-0.0978 -0.504222,-0.189499 -0.580445,-0.203799 -0.332018,-0.06228 -0.454065,0.08389 -0.454065,0.543844 0,0.587202 0.199815,0.801308 1.259136,1.349194 0.827328,0.427901 1.103051,0.689331 1.103051,1.045871 0,0.102445 -0.05334,0.177293 -0.305117,0.428205 -0.331114,0.329968 -0.748307,0.56928 -1.21062,0.694438 -0.282264,0.07642 -1.28344,0.107219 -1.687595,0.05191 z m 0.181701,-0.631371 c 0.172099,-0.207279 0.02735,-0.507326 -0.244736,-0.507326 -0.246336,0 -0.377786,0.215638 -0.272421,0.446889 0.08794,0.192994 0.378872,0.226996 0.517157,0.06044 z m 6.574756,0 c 0.09361,-0.11274 0.08862,-0.330128 -0.0098,-0.428586 -0.09846,-0.09846 -0.315842,-0.103452 -0.428589,-0.0098 -0.04564,0.03788 -0.09397,0.125766 -0.107388,0.195272 -0.02057,0.106452 -0.0049,0.145961 0.09989,0.250666 0.104712,0.104712 0.144209,0.120445 0.250666,0.09989 0.06951,-0.01342 0.157379,-0.06175 0.195272,-0.1074 z m -7.775533,-0.611127 c 0.21663,-0.238289 -0.03408,-0.589054 -0.343845,-0.48107 -0.134341,0.04684 -0.197491,0.137576 -0.197491,0.28379 0,0.157036 0.04304,0.227589 0.173214,0.283909 0.149838,0.06484 0.25236,0.04071 0.368122,-0.08663 z m 2.397232,0.01896 c 0.09768,-0.107927 0.08931,-0.329957 -0.01641,-0.435673 -0.115871,-0.115872 -0.352905,-0.11094 -0.450348,0.0094 -0.08583,0.105996 -0.09099,0.306482 -0.0108,0.420911 0.09775,0.139547 0.353571,0.142415 0.477608,0.0054 z m 4.177522,-0.01896 c 0.104305,-0.11472 0.112969,-0.237565 0.02556,-0.36236 -0.179504,-0.256279 -0.564384,-0.139741 -0.564384,0.170888 0,0.140184 0.06766,0.23978 0.197917,0.29136 0.126085,0.04992 0.233266,0.01853 0.340914,-0.09989 z m 2.412286,-0.0047 c 0.196618,-0.24996 -0.05075,-0.582296 -0.354572,-0.47638 -0.134342,0.04684 -0.197492,0.137578 -0.197492,0.283792 0,0.155684 0.04286,0.227615 0.166696,0.279679 0.153677,0.06461 0.290327,0.03373 0.385368,-0.08708 z m -7.808485,-0.567656 c 0.249163,-0.234076 -0.02434,-0.636507 -0.342893,-0.504552 -0.194017,0.08036 -0.249153,0.314991 -0.114312,0.48642 0.105648,0.134313 0.324302,0.142984 0.4572,0.01813 z m 6.587136,0.0068 c 0.09846,-0.09846 0.103452,-0.315841 0.0098,-0.428587 -0.03788,-0.04564 -0.125765,-0.09397 -0.19527,-0.107388 -0.106452,-0.02057 -0.145963,-0.0049 -0.250667,0.09989 -0.104712,0.104712 -0.120446,0.144209 -0.09989,0.250667 0.01343,0.06951 0.06175,0.157378 0.107388,0.195272 0.11274,0.09361 0.330129,0.0886 0.428586,-0.0098 z m -8.399025,-0.569944 c 0.175522,-0.12294 0.145452,-0.438107 -0.05031,-0.527303 -0.141339,-0.0644 -0.22721,-0.05514 -0.344507,0.03712 -0.214611,0.168813 -0.08335,0.548319 0.189644,0.548319 0.06719,0 0.159522,-0.02616 0.205172,-0.05814 z m 10.192139,-0.03849 c 0.06091,-0.06091 0.09664,-0.141617 0.09664,-0.218325 0,-0.07671 -0.03571,-0.157408 -0.09664,-0.218322 -0.287266,-0.287266 -0.725924,0.145983 -0.447678,0.442162 0.117275,0.124845 0.319814,0.122349 0.447678,-0.0055 z m -8.976313,-0.590548 c 0.195282,-0.195282 0.05692,-0.533282 -0.218322,-0.533282 -0.161854,0 -0.31496,0.153105 -0.31496,0.314958 0,0.161854 0.153106,0.314958 0.31496,0.314958 0.07671,0 0.157409,-0.03572 0.218322,-0.09662 z m 7.728101,0.03361 c 0.256276,-0.179504 0.139739,-0.564385 -0.17089,-0.564385 -0.31063,0 -0.427166,0.384881 -0.170888,0.564385 0.0495,0.03467 0.126392,0.06303 0.170888,0.06303 0.04449,0 0.121397,-0.02836 0.17089,-0.06303 z m -3.77401,-8.982143 c 0.203742,-0.102372 0.315743,-0.294366 0.315743,-0.541275 0,-0.648042 -0.864467,-0.848325 -1.146542,-0.265635 -0.254656,0.526048 0.305996,1.07058 0.830799,0.80691 z m 0.168575,-2.411213 c 0.121092,-0.0453 0.282547,-0.149558 0.381073,-0.246061 0.60748,-0.595002 0.450813,-1.593718 -0.308713,-1.967965 -0.147555,-0.07271 -0.246721,-0.08923 -0.535424,-0.08923 -0.31922,0 -0.375232,0.01158 -0.565302,0.116855 -0.678621,0.375876 -0.84223,1.274144 -0.339124,1.861909 0.07677,0.08969 0.245737,0.215224 0.379987,0.282308 0.300346,0.150086 0.658252,0.165374 0.987503,0.0422 z m -4.133506,-2.411076 c 0.249604,-0.106013 0.552464,-0.438863 0.640504,-0.703928 0.09938,-0.299223 0.06506,-0.705598 -0.08249,-0.976704 -0.475404,-0.873473 -1.754918,-0.826718 -2.16137,0.07898 -0.09799,0.218359 -0.10764,0.277464 -0.09193,0.563311 0.01991,0.362646 0.104929,0.567682 0.327719,0.790481 0.356568,0.356567 0.885801,0.452486 1.36758,0.247862 z m 8.303106,0.0258 c 0.250907,-0.08197 0.517132,-0.326925 0.65052,-0.598554 0.147463,-0.300292 0.154126,-0.754124 0.01529,-1.041342 -0.357668,-0.739938 -1.309882,-0.92848 -1.911637,-0.37851 -0.279283,0.255249 -0.389599,0.508803 -0.391399,0.899601 -0.0017,0.352214 0.09928,0.596935 0.348931,0.846243 0.345685,0.345215 0.782803,0.437695 1.288295,0.272562 z"
       id="path1879" />
    <path
       style="fill:#5f5fd3;stroke:#000007;stroke-width:0.0394319"
       d="m 25.379804,23.348094 c -0.308192,-0.106452 -0.540233,-0.260003 -0.771127,-0.510268 -0.272773,-0.295654 -0.392383,-0.540709 -0.429659,-0.88027 -0.07464,-0.679974 0.07467,-1.129709 0.514312,-1.549049 0.585544,-0.558514 1.431238,-0.654471 2.123986,-0.240997 0.209229,0.124882 0.216123,0.134425 0.204373,0.282886 -0.03578,0.4521 -0.333465,1.26889 -0.692776,1.900866 -0.248505,0.437084 -0.654742,1.038207 -0.712376,1.05413 -0.02165,0.006 -0.128183,-0.0198 -0.236733,-0.0573 z"
       id="path2033" />
    <path
       style="fill:#5f5fd3;stroke:#000007;stroke-width:0.0394319"
       d="m 26.482672,19.187123 c -0.375725,-0.131714 -0.617071,-0.588136 -0.528752,-0.999952 0.07047,-0.328645 0.455329,-0.673658 0.751437,-0.673658 h 0.0994 l 0.08577,0.816925 c 0.04718,0.449306 0.08544,0.839067 0.08502,0.866134 -10e-4,0.06678 -0.291296,0.06123 -0.492885,-0.0095 z"
       id="path2072" />
    <path
       style="fill:#5f5fd3;stroke:#000007;stroke-width:0.0394319"
       d="M 7.9120259,22.978085 C 7.3779852,22.168612 7.0849997,21.550189 6.9114891,20.866189 c -0.1285865,-0.506902 -0.1258319,-0.53199 0.073294,-0.66752 0.6782881,-0.461661 1.6832387,-0.342 2.2476479,0.267628 0.3852708,0.41614 0.5599044,0.963007 0.4673424,1.463498 -0.135246,0.731289 -0.6844404,1.318687 -1.3713399,1.466731 -0.1207151,0.02601 -0.1280335,0.01866 -0.4164076,-0.418441 z"
       id="path2111" />
    <path
       style="fill:#5f5fd3;stroke:#000007;stroke-width:0.0394319"
       d="m 6.8751993,19.103738 c 0.011592,-0.08427 0.047996,-0.410115 0.080885,-0.724088 0.093374,-0.89139 0.087219,-0.866137 0.2110647,-0.866137 0.058602,0 0.2024351,0.05758 0.3196301,0.127953 0.1643667,0.0987 0.2382254,0.176233 0.3230592,0.339138 0.3008826,0.577779 -0.052019,1.194418 -0.7181322,1.254818 l -0.2375938,0.02154 z"
       id="path2150" />
    <path
       style="fill:#5f5fd3;stroke:#000007;stroke-width:0.0394319"
       d="M 7.0184414,14.83597 C 6.5980987,14.604272 6.1333758,14.183861 5.7333526,13.673419 4.8719512,12.574244 4.3751209,11.304871 4.3661781,10.180366 4.3628681,9.763846 4.3647681,9.754547 4.477938,9.635363 4.8443449,9.249469 5.6573402,8.768023 6.1678598,8.634612 6.552396,8.534123 7.0329381,8.516813 7.3286256,8.592802 7.6189457,8.667412 8.0735241,8.900525 8.392253,9.138251 8.6467913,9.3281 9.1379633,9.793747 9.3045797,10.003166 l 0.117,0.147073 -0.3985104,0.463159 c -0.6167241,0.716784 -1.1034423,1.46858 -1.3576069,2.097004 -0.056924,0.140749 -0.120198,0.291338 -0.1406075,0.334644 -0.093664,0.198745 -0.1660036,0.583135 -0.1741132,0.925191 -0.01092,0.460755 -0.061508,0.98449 -0.094994,0.983532 -0.013696,-4.04e-4 -0.1204834,-0.0534 -0.2373048,-0.117792 z"
       id="path2189" />
    <path
       style="fill:#5f5fd3;stroke:#000007;stroke-width:0.0394319"
       d="m 26.567489,14.887497 c -0.02233,-0.07851 -0.06275,-0.608567 -0.08359,-1.096209 -0.01602,-0.374791 -0.136363,-0.76291 -0.398105,-1.284072 -0.359267,-0.715347 -0.856296,-1.441222 -1.404405,-2.051039 l -0.274516,-0.305417 0.102878,-0.134878 c 0.434892,-0.570173 1.253943,-1.18062 1.854814,-1.382414 0.283429,-0.09519 0.352399,-0.103491 0.688972,-0.08297 0.777643,0.04742 1.452693,0.348124 2.155498,0.960167 l 0.24606,0.214285 v 0.404897 c 0,0.222693 -0.02738,0.562235 -0.06085,0.754539 -0.263237,1.512499 -1.437776,3.307858 -2.583504,3.949058 -0.202421,0.113292 -0.224983,0.118296 -0.243245,0.05405 z"
       id="path2228" />
    <path
       style="fill:#5f5fd3;stroke:#000007;stroke-width:0.0394319"
       d="m 19.98705,17.803174 c 0.06768,-0.582341 0.241237,-1.226796 0.42496,-1.577979 l 0.08699,-0.16628 0.114035,0.217802 c 0.209433,0.400013 0.628295,0.64625 1.099302,0.64625 0.334106,0 0.577123,-0.09008 0.811459,-0.300762 0.360548,-0.324164 0.517606,-0.850663 0.382988,-1.283872 l -0.05812,-0.187007 h 0.592471 0.592471 l -0.02434,0.285432 c -0.0643,0.754372 -0.379135,1.491477 -0.829965,1.943251 -0.288186,0.288789 -0.51513,0.428648 -0.889524,0.548189 -0.176819,0.05646 -0.410312,0.07248 -1.273039,0.08736 l -1.056501,0.01822 z"
       id="path2267" />
    <path
       style="fill:#5f5fd3;stroke:#000007;stroke-width:0.0394319"
       d="m 11.876479,17.987239 c -0.505179,-0.05841 -0.957166,-0.293977 -1.292993,-0.673901 -0.353548,-0.399972 -0.6740043,-1.2146 -0.7536927,-1.91595 l -0.02796,-0.246062 h 0.5970647 0.597066 l -0.03218,0.08858 c -0.0177,0.04872 -0.03172,0.256887 -0.03111,0.462595 9.3e-4,0.327223 0.01415,0.399082 0.105744,0.574405 0.267965,0.512973 0.903849,0.764144 1.497586,0.591541 0.265163,-0.07709 0.607875,-0.36959 0.717274,-0.612194 0.03969,-0.08803 0.08478,-0.160055 0.1002,-0.160055 0.03559,0 0.219953,0.4091 0.296179,0.657248 0.106452,0.346571 0.177633,0.692836 0.202232,0.983849 l 0.02435,0.288023 -0.881754,-0.0054 c -0.484965,-0.003 -0.988055,-0.01767 -1.117975,-0.0327 z"
       id="path2306" />
    <path
       style="fill:#afafe9;stroke:#000007;stroke-width:0.0394319"
       d="m 16.839644,25.997364 c -0.09811,-0.182198 -0.380088,-0.37886 -1.097558,-0.765509 -0.967188,-0.521224 -1.156937,-0.737158 -1.122536,-1.277442 0.01729,-0.271499 0.09917,-0.417321 0.234324,-0.417321 0.03933,0 0.334938,0.09623 0.656908,0.21383 1.287539,0.470302 1.55617,0.475329 2.687933,0.05029 0.678277,-0.254728 0.792336,-0.283508 0.898476,-0.226705 0.105036,0.05622 0.175357,0.327318 0.147063,0.567005 -0.05068,0.42929 -0.314274,0.67505 -1.226086,1.143135 -0.594853,0.30537 -0.842515,0.476791 -0.997034,0.690096 l -0.111085,0.15335 z"
       id="path2345" />
    <path
       style="fill:#afafe9;stroke:#000007;stroke-width:0.0394319"
       d="m 16.334014,29.990267 c -0.878373,-0.09284 -1.763831,-0.466046 -2.320759,-0.978142 l -0.195536,-0.179797 0.741966,-0.0026 c 0.674927,-0.0023 0.777538,-0.01207 1.135664,-0.107748 0.228433,-0.06102 0.573655,-0.195739 0.822393,-0.320914 l 0.428693,-0.215734 0.222871,0.130622 c 0.276771,0.162211 0.662592,0.318026 1.058043,0.427291 0.25682,0.07097 0.415038,0.08403 1.045299,0.08634 l 0.742672,0.0027 -0.262903,0.244225 c -0.189906,0.176414 -0.385187,0.304916 -0.703304,0.462801 -0.813009,0.403508 -1.727216,0.555335 -2.715099,0.450913 z"
       id="path2421" />
    <path
       style="fill:#5f5fd3;stroke:#000007;stroke-width:0.0394319"
       d="m 13.826025,28.751021 c -0.169872,-0.03086 -0.280955,-0.08194 -0.420879,-0.193465 -0.322356,-0.256955 -1.450622,-1.437813 -1.373774,-1.437813 0.0137,0 0.112225,0.04426 0.218953,0.09834 0.499448,0.253089 1.13873,0.395448 1.948972,0.434005 0.854977,0.04068 1.403755,-0.07614 1.972807,-0.419958 0.228856,-0.138278 0.675036,-0.555602 0.7192,-0.672689 0.02091,-0.05544 0.05135,-0.03365 0.162907,0.116677 0.158358,0.213374 0.516249,0.512497 0.757835,0.633393 0.755396,0.378023 1.412983,0.442139 2.666734,0.260012 0.268737,-0.03904 0.798954,-0.200163 1.08401,-0.329412 0.140008,-0.06348 0.254562,-0.09996 0.254562,-0.08107 0,0.06278 -1.395448,1.449081 -1.521258,1.511284 -0.201334,0.09955 -0.504006,0.123905 -1.254313,0.100945 -0.811836,-0.02484 -1.007891,-0.07423 -1.742487,-0.438917 -0.362112,-0.179768 -0.411008,-0.194567 -0.472439,-0.142992 -0.124485,0.10452 -0.780416,0.383392 -1.13609,0.483024 -0.294871,0.08259 -0.450485,0.09974 -0.99185,0.109272 -0.353159,0.0061 -0.74596,-0.0076 -0.87289,-0.03064 z"
       id="path2460" />
    <path
       style="fill:#aaaaff;stroke:#000007;stroke-width:0.0394319"
       d="m 21.817352,25.151254 c -0.04331,-0.04331 -0.07873,-0.123836 -0.07873,-0.178954 0,-0.121148 0.161827,-0.293484 0.275587,-0.293484 0.106224,0 0.27559,0.169368 0.27559,0.275588 0,0.11376 -0.172337,0.275588 -0.293484,0.275588 -0.05512,0 -0.135647,-0.03542 -0.178954,-0.07873 z"
       id="path2610" />
    <path
       style="fill:#aaaaff;stroke:#000007;stroke-width:0.0394319"
       d="m 21.236648,26.351155 c -0.111336,-0.07873 -0.12051,-0.29267 -0.01658,-0.386719 0.08988,-0.08134 0.296658,-0.08457 0.375364,-0.0059 0.236502,0.236502 -0.08383,0.587026 -0.358779,0.392591 z"
       id="path2686" />
    <path
       style="fill:#aaaaff;stroke:#000007;stroke-width:0.0394319"
       d="m 20.048732,26.939078 c -0.146303,-0.123104 -0.153298,-0.223814 -0.02451,-0.352616 0.117048,-0.117048 0.269397,-0.124303 0.375804,-0.0179 0.106404,0.106405 0.09914,0.258756 -0.01789,0.375803 -0.122432,0.122432 -0.182762,0.121475 -0.333413,-0.0054 z"
       id="path2725" />
    <path
       style="fill:#aaaaff;stroke:#000007;stroke-width:0.0394319"
       d="m 20.024237,25.723906 c -0.125733,-0.125734 -0.122061,-0.218604 0.01379,-0.348753 0.136878,-0.131137 0.219927,-0.133347 0.344121,-0.0091 0.117048,0.117037 0.1243,0.269397 0.0179,0.375803 -0.106405,0.106404 -0.258757,0.09914 -0.375804,-0.01789 z"
       id="path2764" />
    <path
       style="fill:#aaaaff;stroke:#000007;stroke-width:0.0394319"
       d="m 18.811665,26.33909 c -0.08189,-0.09048 -0.08351,-0.238609 -0.0039,-0.352311 0.08407,-0.120037 0.28985,-0.118188 0.404288,0.0036 0.106884,0.113773 0.107784,0.185021 0.0041,0.316955 -0.09892,0.125749 -0.304727,0.1419 -0.404423,0.03174 z"
       id="path2803" />
    <path
       style="fill:#aaaaff;stroke:#000007;stroke-width:0.0394319"
       d="m 14.634597,26.323586 c -0.133388,-0.19044 -0.02644,-0.424307 0.194038,-0.424307 0.073,0 0.16059,0.02784 0.194616,0.06188 0.07974,0.07974 0.07974,0.308335 0,0.388075 -0.09411,0.09409 -0.314996,0.07954 -0.388654,-0.02563 z"
       id="path2842" />
    <path
       style="fill:#aaaaff;stroke:#000007;stroke-width:0.0394319"
       d="m 13.434443,25.716806 c -0.09968,-0.126729 -0.1032,-0.216335 -0.01269,-0.323294 0.114588,-0.135432 0.265377,-0.147785 0.381875,-0.03128 0.123185,0.123186 0.128768,0.271343 0.01424,0.378039 -0.121579,0.113269 -0.28367,0.103344 -0.383419,-0.02346 z"
       id="path2881" />
    <path
       style="fill:#aaaaff;stroke:#000007;stroke-width:0.0394319"
       d="m 12.858935,24.542812 c -0.122622,-0.122623 -0.122622,-0.235286 0,-0.357908 0.126893,-0.126892 0.269686,-0.124175 0.372944,0.0071 0.102937,0.130863 0.102937,0.212847 0,0.343709 -0.10326,0.131274 -0.246051,0.133991 -0.372944,0.0071 z"
       id="path2920" />
    <path
       style="fill:#aaaaff;stroke:#000007;stroke-width:0.0394319"
       d="m 11.66148,25.143831 c -0.106392,-0.114205 -0.101832,-0.27355 0.0108,-0.379413 0.11016,-0.1035 0.226506,-0.109272 0.335908,-0.01671 0.135431,0.1146 0.147784,0.265376 0.03128,0.381875 -0.123187,0.123186 -0.271344,0.128767 -0.378041,0.01424 z"
       id="path2959" />
    <path
       style="fill:#aaaaff;stroke:#000007;stroke-width:0.0394319"
       d="m 12.259252,26.3498 c -0.110304,-0.07727 -0.118932,-0.291757 -0.01551,-0.385364 0.09905,-0.08964 0.304168,-0.08269 0.40044,0.01358 0.100597,0.100596 0.09974,0.198895 -0.0029,0.329334 -0.0939,0.119376 -0.247839,0.136472 -0.382081,0.04246 z"
       id="path2998" />
    <path
       style="fill:#aaaaff;stroke:#000007;stroke-width:0.0394319"
       d="m 13.519596,26.999828 c -0.102203,-0.04063 -0.179743,-0.210193 -0.145487,-0.31812 0.09303,-0.293078 0.529915,-0.229096 0.529915,0.07761 0,0.182749 -0.205835,0.311529 -0.384428,0.240515 z"
       id="path3037" />
    <path
       style="fill:#aaaaff;stroke:#000007;stroke-width:0.0394319"
       d="m 16.649743,15.575567 c -0.186479,-0.108085 -0.323675,-0.370719 -0.289131,-0.553487 0.07984,-0.422438 0.527228,-0.630564 0.87111,-0.405243 0.350878,0.229903 0.328503,0.789012 -0.03869,0.966767 -0.209863,0.101592 -0.357925,0.0994 -0.543291,-0.0081 z"
       id="path3076" />
    <path
       style="fill:#aaaaff;stroke:#000007;stroke-width:0.0394319"
       d="m 16.620538,13.227099 c -0.518186,-0.170514 -0.866135,-0.624452 -0.866135,-1.129975 0,-0.400486 0.294921,-0.868556 0.657998,-1.04432 0.246378,-0.119269 0.791964,-0.119875 1.024709,-0.0011 0.254084,0.129625 0.391616,0.26852 0.519719,0.524875 0.171406,0.343016 0.171406,0.704234 0,1.047252 -0.200569,0.401371 -0.511834,0.602983 -0.962275,0.623277 -0.151575,0.0068 -0.319881,-0.0022 -0.374016,-0.01997 z"
       id="path3115" />
    <path
       style="fill:#aaaaff;stroke:#000007;stroke-width:0.0394319"
       d="m 12.319309,10.803848 c -0.320392,-0.114337 -0.621302,-0.449534 -0.696558,-0.775927 -0.132331,-0.57393 0.07934,-1.073204 0.568688,-1.341341 0.208639,-0.114326 0.270691,-0.12931 0.53149,-0.128343 0.723596,0.0027 1.228489,0.546455 1.171109,1.261287 -0.03253,0.405284 -0.365527,0.850311 -0.733148,0.97981 -0.209759,0.07389 -0.640698,0.0762 -0.841581,0.0045 z"
       id="path3154" />
    <path
       style="fill:#aaaaff;stroke:#000007;stroke-width:0.0394319"
       d="M 16.46718,9.616622 C 15.554174,9.371101 14.979032,8.400576 15.207901,7.491651 l 0.04404,-0.174913 h 1.665489 1.665489 l 0.04094,0.127952 c 0.130254,0.40707 0.07917,0.878572 -0.140579,1.297579 -0.373753,0.712647 -1.232507,1.085075 -2.016107,0.874353 z"
       id="path3193" />
    <path
       style="fill:#aaaaff;stroke:#000007;stroke-width:0.0394319"
       d="m 20.650549,10.786698 c -0.231542,-0.108505 -0.477119,-0.343402 -0.588211,-0.562631 -0.07505,-0.148107 -0.09532,-0.249276 -0.09515,-0.474936 3.26e-4,-0.439017 0.05037,-0.56704 0.328174,-0.839568 0.18987,-0.186268 0.292533,-0.253553 0.473256,-0.310168 0.540737,-0.169394 1.1347,0.07966 1.392444,0.583864 0.138005,0.269971 0.144681,0.696888 0.01544,0.987789 -0.104172,0.234482 -0.319279,0.467607 -0.536321,0.58125 -0.229964,0.120408 -0.766317,0.139053 -0.989639,0.0344 z"
       id="path3232" />
    <path
       style="fill:#aaaaff;stroke:#000007;stroke-width:0.0394319"
       d="M 24.1004,9.842452 C 23.959874,9.703088 23.724856,9.485267 23.57814,9.358405 L 23.311383,9.127748 h 0.183451 c 0.178276,0 0.193577,-0.01002 0.542345,-0.355161 0.448078,-0.443417 0.887124,-0.774296 1.336085,-1.006916 0.575065,-0.297957 0.846325,-0.376782 1.374543,-0.399423 0.419173,-0.01797 0.492139,-0.01034 0.787396,0.08222 0.443893,0.139174 0.778036,0.344616 1.130636,0.69515 0.381471,0.379239 0.63856,0.855824 0.73288,1.358597 l 0.02919,0.155591 -0.212786,-0.191421 C 28.600091,8.913101 27.846179,8.568393 27.125038,8.510742 26.354818,8.449172 25.649802,8.796203 24.789376,9.660446 l -0.433468,0.43539 z"
       id="path3271" />
    <path
       style="fill:#aaaaff;stroke:#000007;stroke-width:0.0394319"
       d="M 9.1979669,9.824838 C 8.7812621,9.333518 8.1342033,8.856723 7.5871045,8.637849 6.7645079,8.308759 5.5958557,8.614949 4.6721823,9.401582 4.5424683,9.51205 4.4301337,9.58382 4.4225508,9.561071 4.3965168,9.482971 4.5798917,8.950429 4.7208843,8.69468 4.8908114,8.386448 5.3683374,7.901509 5.6844465,7.71616 6.1292548,7.455348 6.3645824,7.383693 6.8395979,7.364428 c 0.3553779,-0.01441 0.4966467,-0.0023 0.7677108,0.06598 0.691798,0.174189 1.4353266,0.62636 2.1274614,1.2938 0.4135349,0.39878 0.4207389,0.403551 0.6108039,0.4045 l 0.192334,9.56e-4 -0.216536,0.184874 C 10.202284,9.41622 9.9618977,9.637243 9.7871933,9.805701 9.6124877,9.974159 9.4618985,10.110407 9.4525505,10.108475 9.4431905,10.106575 9.3286397,9.978904 9.1979669,9.824834 Z"
       id="path3310" />
    <path
       style="fill:#333333;stroke:#333333;stroke-width:0.314356px;stroke-linecap:butt;stroke-linejoin:miter;stroke-opacity:1"
       d="m 29.772175,15.03333 c 0.905884,-0.277384 1.837683,-0.408501 3.143563,1.571782 v 3.143565 c -0.6808,0.90372 -1.539953,1.622899 -3.143563,1.571782"
       id="path7737"
       sodipodi:nodetypes="cccc" />
    <path
       style="fill:#333333;stroke:#333333;stroke-width:0.314356px;stroke-linecap:butt;stroke-linejoin:miter;stroke-opacity:1"
       d="M 4.6236585,21.243112 C 3.7177741,21.520496 2.7859753,21.651613 1.4800941,19.67133 v -3.143565 c 0.6808021,-0.90372 1.5399546,-1.622899 3.1435644,-1.571782"
       id="path4193"
       sodipodi:nodetypes="cccc" />
  </g>
</svg>
