<?xml version="1.0" encoding="UTF-8" standalone="no"?>
<!-- Created with Inkscape (http://www.inkscape.org/) -->

<svg
   width="16.000002"
   height="16.099611"
   viewBox="0 0 4.2333338 4.2596879"
   version="1.1"
   id="svg5"
   inkscape:version="1.1 (c68e22c387, 2021-05-23)"
   sodipodi:docname="16.svg"
   xmlns:inkscape="http://www.inkscape.org/namespaces/inkscape"
   xmlns:sodipodi="http://sodipodi.sourceforge.net/DTD/sodipodi-0.dtd"
   xmlns="http://www.w3.org/2000/svg"
   xmlns:svg="http://www.w3.org/2000/svg">
  <sodipodi:namedview
     id="namedview7"
     pagecolor="#505050"
     bordercolor="#eeeeee"
     borderopacity="1"
     inkscape:pageshadow="0"
     inkscape:pageopacity="0"
     inkscape:pagecheckerboard="false"
     inkscape:document-units="mm"
     showgrid="true"
     units="px"
     inkscape:snap-center="true"
     inkscape:zoom="17.31"
     inkscape:cx="6.4702484"
     inkscape:cy="9.5031774"
     inkscape:window-width="1920"
     inkscape:window-height="1019"
     inkscape:window-x="0"
     inkscape:window-y="30"
     inkscape:window-maximized="1"
     inkscape:current-layer="layer2"
     fit-margin-top="3"
     fit-margin-left="2"
     fit-margin-right="2"
     fit-margin-bottom="3"
     lock-margins="false">
    <inkscape:grid
       type="xygrid"
       id="grid1111"
       originx="-15.081246"
       originy="-14.551456" />
  </sodipodi:namedview>
  <defs
     id="defs2" />
  <g
     inkscape:groupmode="layer"
     id="layer2"
     inkscape:label="Layer 2"
     transform="translate(-15.081249,-14.551503)">
    <path
       style="fill:#000000;stroke:#000000;stroke-width:0.0314356px;stroke-linecap:butt;stroke-linejoin:miter;stroke-opacity:1"
       d="m 16.098615,17.28666 c 0.06691,0.0116 0.130878,-0.03001 0.157179,-0.157179 v -0.628713 c -0.03661,-0.127135 -0.110254,-0.129835 -0.157179,-0.157178 -0.06283,0.0373 -0.155858,0.03094 -0.157177,0.157178 v 0.628713 c -0.02681,0.153673 0.241188,0.202187 0.157177,0.157179"
       id="path3462"
       sodipodi:nodetypes="ccccccc" />
    <path
       style="fill:#000000;stroke:#000000;stroke-width:0.0314356px;stroke-linecap:butt;stroke-linejoin:miter;stroke-opacity:1"
       d="m 18.299111,17.28666 c 0.0669,0.0116 0.130878,-0.03001 0.157178,-0.157179 v -0.628713 c -0.03661,-0.127135 -0.110253,-0.129835 -0.157178,-0.157178 -0.06283,0.0373 -0.155858,0.03094 -0.157178,0.157178 v 0.628713 c -0.02681,0.153673 0.241189,0.202187 0.157178,0.157179"
       id="path4158"
       sodipodi:nodetypes="ccccccc" />
    <path
       style="fill:none;stroke:#000000;stroke-width:0.118812;stroke-linecap:butt;stroke-linejoin:miter;stroke-miterlimit:4;stroke-dasharray:none;stroke-opacity:1"
       d="m 15.783311,16.66599 0.157179,-0.94307 c 0.126915,-0.110652 0.431916,-0.34957 0.628713,-0.314356 h 1.257426 c 0.193879,0.05587 0.30484,0.0077 0.535289,0.299674 0.01535,0.03717 0.250602,0.957752 0.250602,0.957752"
       id="path7864"
       sodipodi:nodetypes="cccccc" />
  </g>
  <g
     inkscape:label="Layer 1"
     inkscape:groupmode="layer"
     id="layer1"
     transform="translate(-15.081249,-14.551503)">
    <g
       style="overflow:hidden;fill:currentColor"
       id="g1302"
       transform="matrix(0.00280333,0,0,0.00280333,15.735445,15.386049)"
       inkscape:transform-center-x="-2.2484869"
       inkscape:transform-center-y="1.3804517">
      <path
         d="m 688.768,192.04267 h 64 c 0,0 89.216,-108.45867 170.66667,-42.66667 96.44803,77.888 -21.33334,256 -85.33334,255.95733 C 790.4,405.33333 688.768,192.04267 688.768,192.04267 Z m -354.66667,0 h -64 c 0,0 -89.216,-108.45867 -170.666663,-42.66667 -96.448,77.888 21.333333,256 85.333333,255.95733 47.70133,0 149.33333,-213.29066 149.33333,-213.29066 z"
         fill="#996704"
         id="path1209" />
      <path
         d="m 384,853.33333 a 128,85.333333 0 1 0 256,0 128,85.333333 0 1 0 -256,0 z"
         fill="#ffc107"
         id="path1211" />
      <path
         d="m 874.66667,581.33333 c 0,106.048 -170.66667,272 -277.33334,272 -64,0 -85.33333,-42.66666 -85.33333,-42.66666 0,0 -21.33333,42.66666 -85.33333,42.66666 -106.66667,0 -277.33334,-165.952 -277.33334,-272 L 170.66667,384 c 0,-106.048 106.66666,-192 192,-234.66667 0,0 42.66666,-21.33333 85.33333,-21.33333 h 128 c 42.66667,0 85.33333,21.33333 85.33333,21.33333 64,21.33334 192,128.61867 192,234.66667 z"
         fill="#ffc107"
         id="path1213" />
      <path
         d="M 640,597.33333 C 597.33333,554.66667 597.33333,512 597.33333,512 c 0,0 0,-149.33333 106.66667,-149.33333 H 853.33333 C 853.33333,298.66667 725.33333,128 576,128 H 512 448 C 298.66667,128 170.66667,298.66667 170.66667,362.66667 H 320 C 426.66667,362.66667 426.66667,512 426.66667,512 c 0,0 0,42.66667 -42.66667,85.33333 -42.66667,42.66667 -106.66667,85.33334 -106.66667,128 0,42.66667 21.33334,128 149.33334,128 64,0 85.33333,-42.66666 85.33333,-42.66666 0,0 21.33333,42.66666 85.33333,42.66666 128,0 149.33334,-85.33333 149.33334,-128 0,-42.66666 -64,-85.33333 -106.66667,-128 z"
         fill="#d69107"
         id="path1215" />
      <path
         d="m 256,405.33333 c 0,0 0,106.66667 87.104,106.66667 h 62.22933 c 0,0 0,-106.66667 -74.66666,-106.66667 z m 512,0 c 0,0 0,106.66667 -87.104,106.66667 h -62.22933 c 0,0 0,-106.66667 74.66666,-106.66667 z"
         fill="#5d4037"
         id="path1217" />
      <path
         d="m 341.33333,426.66667 m -42.66666,0 a 42.666667,42.666667 0 1 0 85.33333,0 42.666667,42.666667 0 1 0 -85.33333,0 z"
         fill="#eeff41"
         id="path1219" />
      <path
         d="m 682.66667,426.66667 m -42.66667,0 a 42.666667,42.666667 0 1 0 85.33333,0 42.666667,42.666667 0 1 0 -85.33333,0 z"
         fill="#eeff41"
         id="path1221" />
      <path
         d="m 341.33333,426.66667 m -21.33333,0 a 21.333335,21.333335 0 1 0 42.66667,0 21.333335,21.333335 0 1 0 -42.66667,0 z"
         fill="#212121"
         id="path1223" />
      <path
         d="m 682.66667,426.66667 m -21.33334,0 a 21.333335,21.333335 0 1 0 42.66667,0 21.333335,21.333335 0 1 0 -42.66667,0 z"
         fill="#212121"
         id="path1225" />
      <path
         d="m 237.14133,219.11467 8.53334,10.368 A 400.64,400.64 0 0 1 286.4,192.02133 h -16.29867 c 0,0 -52.52266,-63.872 -113.74933,-63.872 -18.58133,0 -37.952,5.86667 -56.917333,21.20534 -21.525333,17.36533 -32.341333,39.744 -35.498667,64 0.02133,0 0.04267,0 0.064,-0.0427 42.66667,-42.66667 81.70667,-42.496 92.33067,-42.496 33.04533,0.0213 70.42133,35.86133 80.81066,48.29867 z M 923.43467,149.376 c -18.96534,-15.33867 -38.336,-21.20533 -56.91734,-21.20533 -61.22666,0 -113.74933,63.872 -113.74933,63.872 H 737.57867 A 395.41333,395.41333 0 0 1 777.728,228.864 l 8,-9.74933 c 10.38933,-12.43734 47.76533,-48.29867 80.81067,-48.29867 10.624,0 49.664,-0.17067 92.33066,42.496 0.0213,0.0427 0.0427,0.0427 0.064,0.0427 C 955.776,189.12 944.96,166.74133 923.43467,149.376 Z M 597.33333,725.33333 C 597.33333,772.45867 512,768 512,810.66667 512,768 426.66667,772.45867 426.66667,725.33333 c 0,-47.12533 38.208,0 85.33333,0 47.12533,0 85.33333,-47.12533 85.33333,0 z"
         fill="#3e2723"
         id="path1227" />
      <path
         d="m 394.66667,778.66667 m -10.66667,0 a 10.666667,10.666667 0 1 0 21.33333,0 10.666667,10.666667 0 1 0 -21.33333,0 z"
         fill="#3e2723"
         id="path1229" />
      <path
         d="m 373.33333,736 m -10.66666,0 A 10.666667,10.666667 0 1 0 384,736 a 10.666667,10.666667 0 1 0 -21.33333,0 z"
         fill="#3e2723"
         id="path1231" />
      <path
         d="m 394.66667,821.33333 m -10.66667,0 a 10.666667,10.666667 0 1 0 21.33333,0 10.666667,10.666667 0 1 0 -21.33333,0 z"
         fill="#3e2723"
         id="path1233" />
      <path
         d="m 352,800 m -10.66667,0 a 10.66667,10.66667 0 1 0 21.33334,0 10.66667,10.66667 0 1 0 -21.33334,0 z"
         fill="#3e2723"
         id="path1235" />
      <path
         d="m 330.66667,757.33333 m -10.66667,0 a 10.666667,10.666667 0 1 0 21.33333,0 10.666667,10.666667 0 1 0 -21.33333,0 z"
         fill="#3e2723"
         id="path1237" />
      <path
         d="m 437.33333,800 m -10.66666,0 A 10.666667,10.666667 0 1 0 448,800 a 10.666667,10.666667 0 1 0 -21.33333,0 z"
         fill="#3e2723"
         id="path1239" />
      <path
         d="m 629.33333,778.66667 m -10.66666,0 a 10.666667,10.666667 0 1 0 21.33333,0 10.666667,10.666667 0 1 0 -21.33333,0 z"
         fill="#3e2723"
         id="path1241" />
      <path
         d="M 650.66667,736 M 640,736 a 10.666667,10.666667 0 1 0 21.33333,0 A 10.666667,10.666667 0 1 0 640,736 Z"
         fill="#3e2723"
         id="path1243" />
      <path
         d="m 629.33333,821.33333 m -10.66666,0 a 10.666667,10.666667 0 1 0 21.33333,0 10.666667,10.666667 0 1 0 -21.33333,0 z"
         fill="#3e2723"
         id="path1245" />
      <path
         d="m 672,800 m -10.66667,0 a 10.66667,10.66667 0 1 0 21.33334,0 10.66667,10.66667 0 1 0 -21.33334,0 z"
         fill="#3e2723"
         id="path1247" />
      <path
         d="m 693.33333,757.33333 m -10.66666,0 a 10.666667,10.666667 0 1 0 21.33333,0 10.666667,10.666667 0 1 0 -21.33333,0 z"
         fill="#3e2723"
         id="path1249" />
      <path
         d="M 586.66667,800 M 576,800 a 10.666667,10.666667 0 1 0 21.33333,0 A 10.666667,10.666667 0 1 0 576,800 Z"
         fill="#3e2723"
         id="path1251" />
      <path
         d="m 512,298.66667 m -42.66667,0 a 42.66667,42.66667 0 1 0 85.33334,0 42.66667,42.66667 0 1 0 -85.33334,0 z"
         fill="#3e2723"
         id="path1253" />
      <path
         d="m 512,405.33333 m -21.33333,0 a 21.333333,21.333333 0 1 0 42.66666,0 21.333333,21.333333 0 1 0 -42.66666,0 z"
         fill="#3e2723"
         id="path1255" />
      <path
         d="M 451.92533,128 A 63.189333,63.189333 0 0 0 448,149.33333 a 64,64 0 0 0 128,0 C 576,141.80267 574.464,134.69867 572.07467,128 Z"
         fill="#3e2723"
         id="path1257" />
      <path
         d="m 661.33333,213.33333 m -42.66666,0 a 42.666667,42.666667 0 1 0 85.33333,0 42.666667,42.666667 0 1 0 -85.33333,0 z"
         fill="#3e2723"
         id="path1259" />
      <path
         d="m 362.66667,213.33333 m -42.66667,0 a 42.666667,42.666667 0 1 0 85.33333,0 42.666667,42.666667 0 1 0 -85.33333,0 z"
         fill="#3e2723"
         id="path1261" />
      <path
         d="m 832,522.66667 a 32,32 0 0 0 32,32 c 2.66667,0 5.20533,-0.42667 7.65867,-1.04534 l -6.784,-62.86933 c -0.29867,0 -0.576,-0.0853 -0.87467,-0.0853 a 32,32 0 0 0 -32,32 z M 832,576 c -35.328,0 -64,28.672 -64,64 a 63.872,63.872 0 0 0 55.12533,63.12533 c 28.11734,-37.76 47.21067,-76.992 50.53867,-111.33866 A 63.402667,63.402667 0 0 0 832,576 Z M 160,554.66667 a 32,32 0 0 0 0,-64 c -0.29867,0 -0.576,0.0853 -0.87467,0.0853 l -6.784,62.86933 c 2.45334,0.61867 4.992,1.04534 7.65867,1.04534 z M 192,576 c -16,0 -30.464,6.08 -41.664,15.78667 3.328,34.32533 22.42133,73.57866 50.53867,111.33866 A 63.872,63.872 0 0 0 256,640 c 0,-35.328 -28.672,-64 -64,-64 z"
         fill="#a36b07"
         id="path1263" />
      <path
         d="m 597.33333,853.33333 c -64,0 -85.33333,-42.66666 -85.33333,-42.66666 0,0 -21.33333,42.66666 -85.33333,42.66666 -43.008,0 -73.77067,-9.74933 -95.936,-24.17066 25.856,29.97333 59.264,65.6 67.968,63.808 9.51466,1.81333 18.88,3.02933 27.968,3.02933 C 463.18933,896 491.456,885.07733 512,871.12533 532.544,885.07733 560.81067,896 597.33333,896 c 9.088,0 18.45334,-1.216 27.968,-3.02933 8.68267,1.792 42.112,-33.83467 67.968,-63.808 -22.16533,14.42133 -52.928,24.17066 -95.936,24.17066 z"
         fill="#996704"
         id="path1265" />
    </g>
    <path
       style="fill:#afdde9;stroke:#000007;stroke-width:0.0039432"
       d="m 17.628883,16.69727 c -0.02666,-0.0052 -0.05014,-0.01831 -0.06719,-0.03767 -0.06365,-0.07231 -0.01745,-0.186461 0.07825,-0.193308 0.03907,-0.0028 0.06324,0.0063 0.0909,0.03415 0.0244,0.02458 0.03532,0.05033 0.03532,0.08334 0,0.06949 -0.06913,0.126651 -0.137276,0.113501 z m 0.05072,-0.06205 c 0.05236,-0.02786 0.0337,-0.108319 -0.02635,-0.113571 -0.06313,-0.0055 -0.09015,0.07986 -0.03577,0.113018 0.01633,0.01 0.04397,0.0102 0.0621,5.56e-4 z"
       id="path1417" />
    <path
       style="fill:#afdde9;stroke:#000007;stroke-width:0.0039432"
       d="m 16.672196,16.69727 c -0.05699,-0.011 -0.09639,-0.05746 -0.09651,-0.113807 -1.3e-4,-0.06312 0.04553,-0.11274 0.107866,-0.117199 0.03885,-0.0028 0.06295,0.0064 0.09115,0.03455 0.02645,0.02645 0.03668,0.05354 0.03404,0.09013 -0.0049,0.06741 -0.07107,0.118959 -0.136541,0.106324 z m 0.05072,-0.06193 c 0.01904,-0.01 0.03253,-0.03644 0.03016,-0.05921 -0.0059,-0.05668 -0.07974,-0.07522 -0.111906,-0.02809 -0.0116,0.017 -0.01208,0.04783 -10e-4,0.06598 0.0165,0.02707 0.05356,0.03661 0.08276,0.02132 z"
       id="path1456" />
    <path
       style="fill:#93a7ac;stroke:#000007;stroke-width:0.0039432"
       d="m 16.644119,16.813515 c -0.06425,-0.01391 -0.115412,-0.05567 -0.147239,-0.12019 -0.01972,-0.03998 -0.03525,-0.09484 -0.03973,-0.140373 l -0.0028,-0.02854 h 0.06516 0.06516 l -0.0063,0.01477 c -0.01003,0.02362 -0.0085,0.06588 0.0034,0.09172 0.01406,0.03059 0.0278,0.04509 0.05583,0.05888 0.02905,0.0143 0.06498,0.01654 0.09664,0.006 0.03327,-0.01105 0.06504,-0.04517 0.07526,-0.08084 0.0025,-0.0089 0.0042,-0.007 0.01721,0.01969 0.02284,0.04685 0.04177,0.122913 0.04177,0.167838 v 0.0172 l -0.09941,-3e-4 c -0.06966,-2.2e-4 -0.107067,-0.002 -0.124999,-0.0059 z"
       id="path1532" />
    <path
       style="fill:#93a7ac;stroke:#000007;stroke-width:0.0039432"
       d="m 17.472908,16.793108 c 0.0037,-0.03653 0.01252,-0.08069 0.02234,-0.11122 0.0079,-0.02459 0.02913,-0.07087 0.03249,-0.07087 9e-4,0 0.0059,0.0095 0.01124,0.02101 0.03347,0.07312 0.129684,0.09405 0.18965,0.04127 0.03548,-0.03123 0.05063,-0.08481 0.03606,-0.127557 -0.0035,-0.01034 -0.0064,-0.01937 -0.0064,-0.02007 0,-6.6e-4 0.02888,-0.0013 0.06417,-0.0013 h 0.06417 l -0.0031,0.03136 c -0.01089,0.112649 -0.06331,0.203489 -0.138668,0.240313 -0.04223,0.02063 -0.06424,0.02353 -0.178888,0.02357 l -0.09579,3e-5 z"
       id="path1571" />
    <path
       style="fill:#93a7ac;stroke:#000007;stroke-width:0.0039432"
       d="m 17.163862,17.622977 c -0.0094,-0.02272 -0.03929,-0.04472 -0.108873,-0.08016 -0.09836,-0.05009 -0.120432,-0.07327 -0.120027,-0.126012 3.27e-4,-0.04189 0.0098,-0.05626 0.03498,-0.05285 0.0081,0.0011 0.03953,0.01184 0.06984,0.02387 0.06745,0.02677 0.110433,0.03617 0.148273,0.03244 0.03449,-0.0034 0.05539,-0.0096 0.121985,-0.03598 0.05429,-0.02153 0.06866,-0.02456 0.08219,-0.01733 0.0146,0.0078 0.02033,0.0548 0.01016,0.08327 -0.01181,0.03307 -0.04133,0.05643 -0.119649,0.09471 -0.06355,0.03106 -0.09156,0.05114 -0.103222,0.07399 -0.0044,0.0086 -0.0086,0.0157 -0.0094,0.0157 -7.8e-4,0 -0.0036,-0.0052 -0.0062,-0.01166 z"
       id="path1610" />
    <path
       style="fill:#aaaaff;stroke:#000007;stroke-width:0.0039432"
       d="m 17.54153,17.469898 c -0.01219,-0.0099 -0.01219,-0.03073 0,-0.0406 0.01877,-0.0152 0.04484,-0.0034 0.04484,0.0203 0,0.02369 -0.02607,0.0355 -0.04484,0.0203 z"
       id="path1649" />
    <path
       style="fill:#aaaaff;stroke:#000007;stroke-width:0.0039432"
       d="m 16.517627,17.582822 c -0.07988,-0.065 -0.220002,-0.214213 -0.209756,-0.22336 0.002,-0.0017 0.01213,-0.0055 0.0226,-0.0083 0.05457,-0.01469 0.102688,-0.06681 0.118807,-0.128693 0.02347,-0.09012 -0.03059,-0.186245 -0.120469,-0.214219 -0.04893,-0.01523 -0.115962,-0.0064 -0.152501,0.02006 -0.009,0.0065 -0.01753,0.01186 -0.01895,0.01186 -0.0026,0 7.8e-4,-0.05672 0.005,-0.08308 l 0.0023,-0.01448 0.02474,-0.0016 c 0.06669,-0.0043 0.104759,-0.07151 0.07465,-0.131926 -0.01343,-0.02695 -0.0451,-0.04846 -0.07134,-0.04846 -0.0092,0 -0.0098,-0.001 -0.0077,-0.01477 0.0024,-0.01594 0.02851,-0.269266 0.03225,-0.312989 l 0.0023,-0.02657 h 0.227204 c 0.251561,0 0.249304,-1.9e-4 0.302499,0.02578 0.08535,0.04166 0.145879,0.14463 0.170229,0.289571 0.01556,0.09264 0.01081,0.144114 -0.01949,0.210939 -0.03021,0.06663 -0.06737,0.109394 -0.194987,0.224381 -0.117216,0.105619 -0.160567,0.155244 -0.183483,0.210035 -0.01963,0.04695 -0.007,0.146481 0.02767,0.217957 0.0085,0.01758 0.01499,0.03248 0.01435,0.03313 -6.6e-4,6.6e-4 -0.0213,-0.01523 -0.04592,-0.03526 z m 0.354824,-0.779871 c -3.3e-5,-0.04927 -0.02353,-0.140267 -0.04699,-0.182004 -0.008,-0.01414 -0.01166,-0.02712 -0.01304,-0.0456 -0.0025,-0.03293 -0.01351,-0.05776 -0.03548,-0.07974 -0.04793,-0.04793 -0.129687,-0.04468 -0.175142,0.007 l -0.01576,0.0179 h -0.06742 -0.06742 l 7.8e-5,0.01082 c 4.3e-5,0.0059 0.0019,0.02323 0.004,0.03839 0.016,0.111512 0.06205,0.190442 0.132785,0.22759 0.04197,0.02204 0.06741,0.02566 0.182986,0.02603 l 0.101377,3.27e-4 -1.2e-5,-0.02067 z"
       id="path1764" />
    <path
       style="fill:#aaaaff;stroke:#000007;stroke-width:0.0039432"
       d="m 17.792051,17.584613 c 0.02233,-0.04524 0.03324,-0.08772 0.03599,-0.140122 0.0029,-0.05432 -0.0039,-0.07849 -0.03488,-0.124929 -0.02783,-0.04169 -0.07376,-0.08896 -0.172764,-0.177774 -0.04228,-0.03792 -0.08817,-0.08118 -0.101984,-0.09612 -0.04952,-0.05355 -0.08561,-0.119795 -0.101177,-0.185682 -0.01032,-0.04369 -0.0017,-0.132234 0.02027,-0.21012 0.03722,-0.131445 0.106696,-0.211775 0.205263,-0.237317 0.02068,-0.0053 0.05647,-0.0063 0.250494,-0.0063 0.252783,0 0.231147,-0.0027 0.231155,0.02887 1e-6,0.009 0.0071,0.08155 0.01574,0.161171 0.0087,0.07962 0.01574,0.148954 0.01574,0.15408 0,0.008 -0.0025,0.0097 -0.01773,0.01198 -0.02251,0.0034 -0.04799,0.02246 -0.06098,0.04567 -0.0131,0.0234 -0.01356,0.06115 -0.0011,0.08495 0.01636,0.03112 0.04564,0.04873 0.08102,0.04873 h 0.02121 l 0.0025,0.02657 c 0.0014,0.01462 0.0025,0.03664 0.0025,0.04892 l 2.5e-5,0.02235 -0.02264,-0.01366 c -0.03395,-0.02047 -0.0584,-0.02629 -0.102901,-0.02447 -0.03242,0.0013 -0.04168,0.0034 -0.06457,0.01408 -0.03737,0.01753 -0.07007,0.04971 -0.08859,0.08717 -0.01441,0.02916 -0.01461,0.0302 -0.01461,0.07701 0,0.04526 6e-4,0.04868 0.01265,0.07417 0.01718,0.03628 0.04988,0.06994 0.08498,0.0875 0.0151,0.0075 0.03152,0.01373 0.03652,0.01373 0.005,0 0.01,0.0015 0.01112,0.0033 0.0068,0.01099 -0.154989,0.181277 -0.221334,0.232983 -0.01801,0.01404 -0.03419,0.02605 -0.03595,0.02668 -0.0017,6.6e-4 0.0045,-0.01442 0.01388,-0.03346 z m -0.07285,-0.772048 c 0.0984,-0.03238 0.154749,-0.123403 0.170463,-0.275361 l 0.0017,-0.01673 h -0.06706 -0.06706 l -0.02019,-0.02101 c -0.07547,-0.07854 -0.207084,-0.02705 -0.208286,0.08149 -1.6e-4,0.01402 -0.003,0.02472 -0.0093,0.03485 -0.01066,0.01709 -0.02596,0.05505 -0.03457,0.08577 -0.0066,0.02365 -0.01788,0.09372 -0.01792,0.111578 l -2.4e-5,0.01118 0.113188,-0.0016 c 0.102821,-0.0014 0.115559,-0.0024 0.139063,-0.01015 z"
       id="path1803" />
    <path
       style="fill:#5555ff;stroke:#000007;stroke-width:0.0039432"
       d="m 16.847404,17.772129 c -0.167847,-0.02297 -0.275058,-0.10662 -0.3155,-0.246176 -0.02097,-0.07237 -0.01946,-0.134948 0.0043,-0.178217 0.02738,-0.04985 0.06124,-0.08581 0.217387,-0.230811 0.08146,-0.07565 0.119315,-0.120956 0.144737,-0.173228 0.02715,-0.05583 0.03457,-0.09169 0.03175,-0.153542 -0.0061,-0.133177 -0.05519,-0.258925 -0.126659,-0.324244 -0.02626,-0.02401 -0.04839,-0.03754 -0.08403,-0.05143 l -0.02606,-0.01015 -0.239172,-0.0011 c -0.222399,-0.0011 -0.239169,-0.0016 -0.239144,-0.0079 7.1e-5,-0.01727 0.01709,-0.07477 0.03248,-0.109738 0.03163,-0.07184 0.07845,-0.143679 0.136041,-0.208711 0.03634,-0.04104 0.105105,-0.108178 0.146403,-0.142948 0.09923,-0.08355 0.234839,-0.152295 0.34546,-0.175139 0.0314,-0.0065 0.11881,-0.01549 0.121758,-0.01253 0.001,0.001 -3.5e-5,0.0087 -0.0023,0.01699 -0.0066,0.02382 -0.0051,0.06877 0.0032,0.09548 0.03602,0.115752 0.173057,0.162965 0.275141,0.0948 0.05833,-0.03895 0.08897,-0.112036 0.07524,-0.179461 l -0.006,-0.02957 0.03176,0.0023 c 0.0973,0.0073 0.174467,0.02911 0.267985,0.07574 0.116061,0.05788 0.246834,0.16698 0.338956,0.282792 0.07814,0.09824 0.135339,0.20893 0.142173,0.27515 l 0.0023,0.02182 h -0.227659 c -0.256166,0 -0.254345,-1.69e-4 -0.310737,0.02891 -0.07287,0.03758 -0.125907,0.115574 -0.155433,0.228575 -0.0164,0.06279 -0.02117,0.09646 -0.02122,0.149991 -3.5e-5,0.04307 0.0011,0.05051 0.01271,0.08431 0.01288,0.0374 0.02342,0.06067 0.03578,0.07895 0.0037,0.0055 0.01189,0.01784 0.01818,0.02746 0.01835,0.02806 0.04845,0.05862 0.15484,0.157227 0.108567,0.100626 0.152253,0.149298 0.175976,0.196061 l 0.01527,0.0301 -4.1e-4,0.04759 c -4.09e-4,0.05488 -0.0069,0.08662 -0.02795,0.136118 -0.01813,0.04271 -0.03322,0.06543 -0.06446,0.09709 -0.06895,0.06986 -0.162369,0.105269 -0.291076,0.110333 -0.04928,0.002 -0.06747,0.0011 -0.09449,-0.0044 -0.066,-0.01336 -0.12479,-0.04705 -0.157387,-0.09023 -0.01439,-0.01906 -0.016,-0.02326 -0.01366,-0.03571 0.0034,-0.0181 0.021,-0.04234 0.04155,-0.05723 0.0089,-0.0064 0.04412,-0.02599 0.07833,-0.04346 0.09649,-0.0493 0.115944,-0.07085 0.116066,-0.128644 5.5e-5,-0.02662 -0.0014,-0.03412 -0.0082,-0.04331 -0.01321,-0.01778 -0.02771,-0.01652 -0.09247,0.008 -0.08195,0.03103 -0.09917,0.03546 -0.137449,0.03543 -0.03907,-3.3e-5 -0.07171,-0.0082 -0.136705,-0.0344 -0.02431,-0.0098 -0.05042,-0.01895 -0.05804,-0.02038 -0.0332,-0.0062 -0.04541,0.0084 -0.04541,0.05438 0,0.05872 0.01999,0.08013 0.125914,0.134919 0.08273,0.04279 0.110305,0.06893 0.110305,0.104587 0,0.01024 -0.0053,0.01773 -0.03051,0.04282 -0.03311,0.03299 -0.07483,0.05693 -0.121062,0.06944 -0.02822,0.0076 -0.128344,0.01072 -0.16876,0.0052 z m 0.01817,-0.06314 c 0.01721,-0.02072 0.0028,-0.05074 -0.02447,-0.05074 -0.02464,0 -0.03778,0.02156 -0.02725,0.04469 0.0088,0.0193 0.03788,0.0227 0.05171,0.006 z m 0.657476,0 c 0.0094,-0.01127 0.0089,-0.03301 -9.6e-4,-0.04286 -0.0098,-0.0098 -0.03158,-0.01034 -0.04286,-0.001 -0.0046,0.0038 -0.0094,0.01258 -0.01074,0.01952 -0.002,0.01064 -4.72e-4,0.01459 0.01,0.02507 0.01047,0.01047 0.01442,0.01205 0.02507,0.01 0.007,-0.0014 0.01574,-0.0062 0.01952,-0.01074 z m -0.777554,-0.06111 c 0.02167,-0.02383 -0.0034,-0.05891 -0.03439,-0.04811 -0.01343,0.0047 -0.01975,0.01376 -0.01975,0.02838 0,0.0157 0.0043,0.02276 0.01732,0.02839 0.01499,0.0065 0.02524,0.0041 0.03682,-0.0087 z m 0.239723,0.0019 c 0.0098,-0.01079 0.0089,-0.03299 -0.0017,-0.04357 -0.01159,-0.01159 -0.03529,-0.01109 -0.04504,9.6e-4 -0.0086,0.0106 -0.0091,0.03065 -0.0011,0.04209 0.0098,0.01396 0.03536,0.01424 0.04776,5.58e-4 z m 0.417752,-0.0019 c 0.01043,-0.01147 0.0113,-0.02375 0.0025,-0.03623 -0.01795,-0.02563 -0.05644,-0.01397 -0.05644,0.01709 0,0.01402 0.0068,0.02398 0.01979,0.02914 0.01261,0.005 0.02333,0.0019 0.03409,-0.01 z m 0.241229,-4.71e-4 c 0.01966,-0.025 -0.0051,-0.05823 -0.03545,-0.04764 -0.01343,0.0047 -0.01975,0.01376 -0.01975,0.02838 0,0.01557 0.0043,0.02276 0.01667,0.02797 0.01537,0.0065 0.02903,0.0034 0.03854,-0.0087 z m -0.780849,-0.05677 c 0.02492,-0.02341 -0.0025,-0.06365 -0.03429,-0.05045 -0.0194,0.008 -0.02492,0.0315 -0.01143,0.04864 0.01057,0.01343 0.03243,0.0143 0.04572,0.0018 z m 0.658713,7.2e-4 c 0.0098,-0.0098 0.01034,-0.03158 0.001,-0.04286 -0.0038,-0.0046 -0.01258,-0.0094 -0.01952,-0.01074 -0.01064,-0.002 -0.0146,-4.71e-4 -0.02507,0.01 -0.01047,0.01047 -0.01204,0.01442 -0.01,0.02507 0.0014,0.007 0.0062,0.01574 0.01074,0.01952 0.01127,0.0094 0.03301,0.0089 0.04286,-0.001 z m -0.839903,-0.05701 c 0.01756,-0.01229 0.01454,-0.04381 -0.005,-0.05273 -0.01414,-0.0064 -0.02272,-0.0055 -0.03445,0.0037 -0.02146,0.01688 -0.0083,0.05483 0.01897,0.05483 0.0067,0 0.01595,-0.0026 0.02051,-0.0058 z m 1.019214,-0.0038 c 0.0061,-0.0061 0.0097,-0.01417 0.0097,-0.02183 0,-0.0077 -0.0035,-0.01574 -0.0097,-0.02183 -0.02873,-0.02873 -0.07259,0.0146 -0.04477,0.04421 0.01172,0.01249 0.03198,0.01223 0.04477,-5.57e-4 z m -0.897631,-0.05905 c 0.01952,-0.01952 0.0057,-0.05333 -0.02183,-0.05333 -0.01619,0 -0.03149,0.01531 -0.03149,0.03149 0,0.01619 0.01531,0.03149 0.03149,0.03149 0.0077,0 0.01574,-0.0035 0.02183,-0.0097 z m 0.77281,0.0034 c 0.02563,-0.01795 0.01397,-0.05644 -0.01709,-0.05644 -0.03106,0 -0.04271,0.03849 -0.01709,0.05644 0.005,0.0035 0.01264,0.0063 0.01709,0.0063 0.0044,0 0.01214,-0.0028 0.01709,-0.0063 z m -0.377398,-0.898241 c 0.02038,-0.01024 0.03157,-0.02944 0.03157,-0.05413 0,-0.0648 -0.08645,-0.08483 -0.114654,-0.02656 -0.02546,0.0526 0.0306,0.107058 0.08308,0.08069 z m 0.01685,-0.241121 c 0.01211,-0.0046 0.02825,-0.01495 0.03811,-0.02461 0.06075,-0.0595 0.04508,-0.159372 -0.03087,-0.196796 -0.01475,-0.0073 -0.02467,-0.0089 -0.05354,-0.0089 -0.03192,0 -0.03752,0.0011 -0.05653,0.01168 -0.06786,0.03758 -0.08422,0.127415 -0.03391,0.186191 0.0077,0.009 0.02458,0.02152 0.038,0.02823 0.03004,0.01501 0.06582,0.01654 0.09875,0.0043 z m -0.413352,-0.241107 c 0.02496,-0.0106 0.05525,-0.04388 0.06405,-0.07039 0.0099,-0.02992 0.0065,-0.07056 -0.0083,-0.09767 -0.04754,-0.08735 -0.175491,-0.08267 -0.216137,0.0079 -0.0098,0.02183 -0.01076,0.02774 -0.0092,0.05633 0.002,0.03626 0.01049,0.05677 0.03277,0.07905 0.03566,0.03566 0.08858,0.04525 0.136758,0.02479 z m 0.830311,0.0026 c 0.02509,-0.0082 0.05171,-0.03269 0.06505,-0.05986 0.01474,-0.03003 0.01541,-0.07541 0.0016,-0.104134 -0.03577,-0.07399 -0.130989,-0.09285 -0.191164,-0.03785 -0.02792,0.02552 -0.03896,0.05088 -0.03914,0.08996 -1.7e-4,0.03522 0.0099,0.05969 0.0349,0.08463 0.03457,0.03452 0.07828,0.04377 0.12883,0.02725 z"
       id="path1879" />
    <path
       style="fill:#5f5fd3;stroke:#000007;stroke-width:0.0039432"
       d="m 18.016105,17.348023 c -0.03082,-0.01064 -0.05402,-0.026 -0.07711,-0.05103 -0.02728,-0.02956 -0.03924,-0.05407 -0.04297,-0.08803 -0.0075,-0.068 0.0075,-0.112972 0.05143,-0.154906 0.05855,-0.05585 0.143124,-0.06545 0.212399,-0.0241 0.02092,0.01249 0.02161,0.01345 0.02044,0.02829 -0.0036,0.04521 -0.03335,0.12689 -0.06928,0.190087 -0.02485,0.04371 -0.06547,0.103821 -0.07124,0.105414 -0.0022,6e-4 -0.01282,-0.002 -0.02368,-0.0058 z"
       id="path2033" />
    <path
       style="fill:#5f5fd3;stroke:#000007;stroke-width:0.0039432"
       d="m 18.126391,16.931925 c -0.03757,-0.01317 -0.06171,-0.05881 -0.05287,-0.09999 0.007,-0.03286 0.04553,-0.06737 0.07514,-0.06737 h 0.0099 l 0.0086,0.08169 c 0.0047,0.04493 0.0085,0.08391 0.0085,0.08661 -1e-4,0.0067 -0.02913,0.0061 -0.04929,-9.6e-4 z"
       id="path2072" />
    <path
       style="fill:#5f5fd3;stroke:#000007;stroke-width:0.0039432"
       d="m 16.269326,17.311022 c -0.05341,-0.08095 -0.0827,-0.142789 -0.100053,-0.21119 -0.01286,-0.05069 -0.01258,-0.0532 0.0073,-0.06675 0.06783,-0.04616 0.168324,-0.0342 0.224764,0.02677 0.03853,0.04162 0.05599,0.0963 0.04673,0.14635 -0.01352,0.07313 -0.06844,0.131869 -0.137133,0.146673 -0.01207,0.0026 -0.0128,0.0019 -0.04164,-0.04184 z"
       id="path2111" />
    <path
       style="fill:#5f5fd3;stroke:#000007;stroke-width:0.0039432"
       d="m 16.165643,16.923587 c 0.0011,-0.0084 0.0048,-0.04101 0.0081,-0.07241 0.0093,-0.08914 0.0087,-0.08661 0.0211,-0.08661 0.0059,0 0.02024,0.0058 0.03196,0.01279 0.01643,0.0099 0.02383,0.01763 0.0323,0.03391 0.03009,0.05778 -0.0052,0.119442 -0.07181,0.125483 l -0.02376,0.0022 z"
       id="path2150" />
    <path
       style="fill:#5f5fd3;stroke:#000007;stroke-width:0.0039432"
       d="m 16.179968,16.49681 c -0.04204,-0.02317 -0.08851,-0.06521 -0.128509,-0.116255 -0.08614,-0.109917 -0.135823,-0.236854 -0.136718,-0.349305 -3.27e-4,-0.04165 -1.41e-4,-0.04258 0.01118,-0.0545 0.03664,-0.03859 0.11794,-0.08673 0.168992,-0.100075 0.03845,-0.01005 0.08651,-0.01178 0.116077,-0.0042 0.02903,0.0075 0.07449,0.03077 0.106362,0.05455 0.02545,0.01898 0.07457,0.06555 0.09123,0.08649 l 0.0117,0.01471 -0.03985,0.04631 c -0.06167,0.07168 -0.110343,0.146858 -0.135761,0.209701 -0.0057,0.01408 -0.01202,0.02914 -0.01406,0.03346 -0.0094,0.01988 -0.0166,0.05831 -0.01741,0.09252 -0.0011,0.04607 -0.0062,0.09845 -0.0095,0.09835 -0.0014,-4.1e-5 -0.01205,-0.0053 -0.02373,-0.01178 z"
       id="path2189" />
    <path
       style="fill:#5f5fd3;stroke:#000007;stroke-width:0.0039432"
       d="m 18.134873,16.501963 c -0.0022,-0.0078 -0.0063,-0.06086 -0.0084,-0.109621 -0.0016,-0.03748 -0.01364,-0.07629 -0.03981,-0.128407 -0.03593,-0.07154 -0.08563,-0.144122 -0.14044,-0.205104 l -0.02745,-0.03054 0.01028,-0.01349 c 0.04349,-0.05702 0.125394,-0.118062 0.185482,-0.138242 0.02834,-0.0095 0.03524,-0.01035 0.0689,-0.0083 0.07776,0.0047 0.145269,0.03481 0.21555,0.09602 l 0.02461,0.02143 v 0.04049 c 0,0.02227 -0.0028,0.05623 -0.0061,0.07545 -0.02633,0.15125 -0.143778,0.330786 -0.258351,0.394907 -0.02024,0.01133 -0.02249,0.01183 -0.02432,0.0054 z"
       id="path2228" />
    <path
       style="fill:#5f5fd3;stroke:#000007;stroke-width:0.0039432"
       d="m 17.476829,16.793531 c 0.0068,-0.05824 0.02413,-0.12268 0.0425,-0.157799 l 0.0087,-0.01663 0.01141,0.02178 c 0.02095,0.04 0.06283,0.06463 0.10993,0.06463 0.03341,0 0.05771,-0.009 0.08115,-0.03008 0.03605,-0.03242 0.05176,-0.08507 0.0383,-0.128387 l -0.0058,-0.0187 h 0.05925 0.05925 l -0.0025,0.02854 c -0.0064,0.07544 -0.03791,0.149147 -0.083,0.194325 -0.02882,0.02888 -0.05151,0.04286 -0.08895,0.05482 -0.01768,0.0056 -0.04103,0.0072 -0.127304,0.0087 l -0.105651,0.0019 z"
       id="path2267" />
    <path
       style="fill:#5f5fd3;stroke:#000007;stroke-width:0.0039432"
       d="m 16.665772,16.811937 c -0.05052,-0.0058 -0.09572,-0.02939 -0.129299,-0.06739 -0.03535,-0.04 -0.0674,-0.12146 -0.07537,-0.191595 l -0.0028,-0.02461 h 0.05971 0.05971 l -0.0032,0.0089 c -0.0017,0.0049 -0.0032,0.02569 -0.0031,0.04626 9.3e-5,0.03272 0.0014,0.03991 0.01058,0.05744 0.0268,0.0513 0.09038,0.07641 0.149759,0.05915 0.02651,-0.0077 0.06079,-0.03696 0.07173,-0.06122 0.004,-0.0088 0.0085,-0.016 0.01002,-0.016 0.0035,0 0.022,0.04091 0.02962,0.06573 0.01064,0.03466 0.01777,0.06928 0.02023,0.09839 l 0.0025,0.02881 -0.08818,-5.57e-4 c -0.0485,-3e-4 -0.0988,-0.0017 -0.111797,-0.0032 z"
       id="path2306" />
    <path
       style="fill:#afafe9;stroke:#000007;stroke-width:0.0039432"
       d="m 17.162089,17.61295 c -0.0098,-0.01822 -0.03801,-0.03788 -0.109757,-0.07655 -0.09672,-0.05212 -0.115693,-0.07372 -0.112253,-0.127744 0.0017,-0.02715 0.0099,-0.04173 0.02344,-0.04173 0.004,0 0.03349,0.0096 0.06569,0.02138 0.128754,0.04703 0.155617,0.04753 0.268793,0.005 0.06783,-0.02548 0.07923,-0.02835 0.08985,-0.02267 0.01051,0.0056 0.01754,0.03273 0.01471,0.0567 -0.005,0.04293 -0.03143,0.0675 -0.122608,0.114314 -0.05948,0.03053 -0.08425,0.04768 -0.0997,0.06901 l -0.01111,0.01534 z"
       id="path2345" />
    <path
       style="fill:#afafe9;stroke:#000007;stroke-width:0.0039432"
       d="m 17.111525,18.01224 c -0.08784,-0.0093 -0.176383,-0.0466 -0.232075,-0.09781 l -0.01955,-0.01798 0.0742,-2.6e-4 c 0.06749,-2.4e-4 0.07775,-0.0012 0.113566,-0.01078 0.02284,-0.0061 0.05737,-0.01957 0.08224,-0.03209 l 0.04287,-0.02158 0.02228,0.01306 c 0.02768,0.01622 0.06626,0.03181 0.105804,0.04273 0.02569,0.0071 0.0415,0.0084 0.104531,0.0086 l 0.07427,2.73e-4 -0.02629,0.02443 c -0.01899,0.01764 -0.03852,0.03049 -0.07033,0.04628 -0.0813,0.04035 -0.172721,0.05554 -0.271509,0.04509 z"
       id="path2421" />
    <path
       style="fill:#5f5fd3;stroke:#000007;stroke-width:0.0039432"
       d="m 16.860727,17.888315 c -0.01699,-0.0031 -0.02809,-0.0082 -0.04209,-0.01934 -0.03224,-0.0257 -0.145062,-0.143781 -0.137378,-0.143781 0.0014,0 0.01123,0.0044 0.02189,0.0098 0.04994,0.02531 0.113874,0.03955 0.194898,0.0434 0.0855,0.0041 0.140375,-0.0076 0.19728,-0.04199 0.02288,-0.01382 0.0675,-0.05556 0.07192,-0.06727 0.0021,-0.0055 0.0052,-0.0034 0.01629,0.01166 0.01583,0.02134 0.05162,0.05125 0.07578,0.06334 0.07554,0.0378 0.141298,0.04421 0.266674,0.026 0.02687,-0.0039 0.0799,-0.02002 0.108401,-0.03294 0.014,-0.0063 0.02546,-0.01 0.02546,-0.0081 0,0.0063 -0.139545,0.144909 -0.152126,0.151129 -0.02014,0.01 -0.0504,0.01239 -0.125431,0.01009 -0.08118,-0.0025 -0.10079,-0.0074 -0.174249,-0.04389 -0.03621,-0.01798 -0.0411,-0.01946 -0.04724,-0.0143 -0.01244,0.01045 -0.07804,0.03834 -0.113608,0.0483 -0.02948,0.0083 -0.04505,0.01 -0.09918,0.01093 -0.03532,6e-4 -0.0746,-7.8e-4 -0.08729,-0.0031 z"
       id="path2460" />
    <path
       style="fill:#aaaaff;stroke:#000007;stroke-width:0.0039432"
       d="m 17.659859,17.528339 c -0.0043,-0.0043 -0.0079,-0.01238 -0.0079,-0.0179 0,-0.01211 0.01618,-0.02935 0.02756,-0.02935 0.01063,0 0.02756,0.01694 0.02756,0.02756 0,0.01138 -0.01723,0.02756 -0.02935,0.02756 -0.0055,0 -0.01357,-0.0035 -0.0179,-0.0079 z"
       id="path2610" />
    <path
       style="fill:#aaaaff;stroke:#000007;stroke-width:0.0039432"
       d="m 17.601788,17.648329 c -0.01114,-0.0079 -0.01205,-0.02927 -0.0017,-0.03867 0.009,-0.0081 0.02966,-0.0085 0.03754,-6e-4 0.02365,0.02365 -0.0084,0.0587 -0.03588,0.03926 z"
       id="path2686" />
    <path
       style="fill:#aaaaff;stroke:#000007;stroke-width:0.0039432"
       d="m 17.482997,17.707121 c -0.01463,-0.01231 -0.01533,-0.02238 -0.0025,-0.03526 0.01171,-0.01171 0.02694,-0.01243 0.03758,-0.0018 0.01064,0.01064 0.0099,0.02587 -0.0018,0.03758 -0.01225,0.01225 -0.01828,0.01214 -0.03334,-5.57e-4 z"
       id="path2725" />
    <path
       style="fill:#aaaaff;stroke:#000007;stroke-width:0.0039432"
       d="m 17.480548,17.585604 c -0.01258,-0.01258 -0.0122,-0.02186 0.0014,-0.03487 0.01369,-0.01312 0.022,-0.01334 0.03441,-9e-4 0.01171,0.01171 0.01243,0.02694 0.0018,0.03758 -0.01064,0.01064 -0.02587,0.0099 -0.03758,-0.0018 z"
       id="path2764" />
    <path
       style="fill:#aaaaff;stroke:#000007;stroke-width:0.0039432"
       d="m 17.359291,17.647123 c -0.0082,-0.009 -0.0084,-0.02386 -4.1e-4,-0.03523 0.0084,-0.01201 0.02899,-0.01182 0.04043,3.54e-4 0.01069,0.01138 0.01078,0.0185 4.1e-4,0.0317 -0.0099,0.01258 -0.03047,0.01419 -0.04045,0.0032 z"
       id="path2803" />
    <path
       style="fill:#aaaaff;stroke:#000007;stroke-width:0.0039432"
       d="m 16.941584,17.645572 c -0.01334,-0.01904 -0.0026,-0.04243 0.0194,-0.04243 0.0073,0 0.01606,0.0028 0.01946,0.0062 0.008,0.008 0.008,0.03083 0,0.03881 -0.0094,0.0094 -0.0315,0.008 -0.03887,-0.0025 z"
       id="path2842" />
    <path
       style="fill:#aaaaff;stroke:#000007;stroke-width:0.0039432"
       d="m 16.821568,17.584894 c -0.01,-0.01267 -0.01032,-0.02164 -0.0013,-0.03233 0.01146,-0.01354 0.02654,-0.01478 0.03818,-0.0031 0.01232,0.01232 0.01288,0.02714 0.0014,0.03781 -0.01216,0.01133 -0.02837,0.01033 -0.03835,-0.0023 z"
       id="path2881" />
    <path
       style="fill:#aaaaff;stroke:#000007;stroke-width:0.0039432"
       d="m 16.764017,17.467495 c -0.01226,-0.01226 -0.01226,-0.02353 0,-0.03579 0.01269,-0.01269 0.02697,-0.01241 0.0373,7.2e-4 0.0103,0.01309 0.0103,0.02128 0,0.03437 -0.01033,0.01313 -0.02461,0.0134 -0.0373,7.2e-4 z"
       id="path2920" />
    <path
       style="fill:#aaaaff;stroke:#000007;stroke-width:0.0039432"
       d="m 16.644272,17.527597 c -0.01064,-0.01142 -0.01018,-0.02735 0.0011,-0.03794 0.01102,-0.01035 0.02265,-0.01093 0.03359,-0.0017 0.01354,0.01146 0.01478,0.02654 0.0031,0.03818 -0.01232,0.01232 -0.02714,0.01288 -0.03781,0.0014 z"
       id="path2959" />
    <path
       style="fill:#aaaaff;stroke:#000007;stroke-width:0.0039432"
       d="m 16.704049,17.648194 c -0.01103,-0.0077 -0.01189,-0.02918 -0.0016,-0.03854 0.0099,-0.009 0.03041,-0.0083 0.04004,0.0013 0.01006,0.01006 0.01,0.01989 -3e-4,0.03293 -0.0094,0.01193 -0.02479,0.01364 -0.03821,0.0043 z"
       id="path2998" />
    <path
       style="fill:#aaaaff;stroke:#000007;stroke-width:0.0039432"
       d="m 16.830083,17.713196 c -0.01022,-0.0041 -0.01798,-0.02102 -0.01455,-0.03181 0.0093,-0.0293 0.05299,-0.02291 0.05299,0.0078 0,0.01828 -0.02059,0.03115 -0.03844,0.02405 z"
       id="path3037" />
    <path
       style="fill:#aaaaff;stroke:#000007;stroke-width:0.0039432"
       d="m 17.143099,16.57077 c -0.01865,-0.01081 -0.03236,-0.03707 -0.02891,-0.05535 0.008,-0.04225 0.05272,-0.06306 0.08711,-0.04052 0.03509,0.02299 0.03285,0.0789 -0.0038,0.09668 -0.02098,0.01016 -0.03579,0.0099 -0.05433,-8.4e-4 z"
       id="path3076" />
    <path
       style="fill:#aaaaff;stroke:#000007;stroke-width:0.0039432"
       d="m 17.140178,16.335923 c -0.05182,-0.01705 -0.08661,-0.06245 -0.08661,-0.112997 0,-0.04005 0.0295,-0.08686 0.0658,-0.104433 0.02464,-0.01193 0.0792,-0.01199 0.102471,-1.09e-4 0.0254,0.01297 0.03916,0.02686 0.05197,0.05249 0.01714,0.0343 0.01714,0.07042 0,0.104725 -0.02006,0.04013 -0.05119,0.0603 -0.09623,0.06233 -0.01516,7.2e-4 -0.03199,-2.2e-4 -0.0374,-0.002 z"
       id="path3115" />
    <path
       style="fill:#aaaaff;stroke:#000007;stroke-width:0.0039432"
       d="m 16.710055,16.093598 c -0.03204,-0.01144 -0.06213,-0.04495 -0.06966,-0.07759 -0.01324,-0.0574 0.0079,-0.10732 0.05687,-0.134134 0.02087,-0.01144 0.02707,-0.01293 0.05315,-0.01283 0.07236,2.73e-4 0.122849,0.05465 0.117111,0.126129 -0.0032,0.04053 -0.03655,0.08503 -0.07332,0.09798 -0.02098,0.0074 -0.06407,0.0076 -0.08416,4.72e-4 z"
       id="path3154" />
    <path
       style="fill:#aaaaff;stroke:#000007;stroke-width:0.0039432"
       d="m 17.124842,15.974875 c -0.0913,-0.02455 -0.148815,-0.121604 -0.125928,-0.212497 l 0.0044,-0.01749 h 0.16655 0.166549 l 0.0041,0.0128 c 0.01303,0.0407 0.0079,0.08786 -0.01406,0.129759 -0.03737,0.07126 -0.123251,0.108507 -0.201611,0.08744 z"
       id="path3193" />
    <path
       style="fill:#aaaaff;stroke:#000007;stroke-width:0.0039432"
       d="m 17.543179,16.091883 c -0.02315,-0.01085 -0.04771,-0.03434 -0.05882,-0.05626 -0.0075,-0.01481 -0.0095,-0.02492 -0.0095,-0.0475 3.3e-5,-0.0439 0.005,-0.05671 0.03281,-0.08396 0.01898,-0.01862 0.02926,-0.02536 0.04733,-0.03101 0.05407,-0.01694 0.11347,0.008 0.139245,0.05839 0.0138,0.02699 0.01447,0.06969 0.0016,0.09878 -0.01042,0.02345 -0.03193,0.04676 -0.05363,0.05813 -0.023,0.01204 -0.07663,0.0139 -0.09896,0.0034 z"
       id="path3232" />
    <path
       style="fill:#aaaaff;stroke:#000007;stroke-width:0.0039432"
       d="m 17.888164,15.997458 c -0.01405,-0.01394 -0.03755,-0.03572 -0.05222,-0.0484 l -0.02668,-0.02306 h 0.01835 c 0.01783,0 0.01936,-10e-4 0.05423,-0.03551 0.04481,-0.04434 0.08871,-0.07743 0.13361,-0.100691 0.0575,-0.0298 0.08463,-0.03768 0.137454,-0.03994 0.04192,-0.0018 0.04921,-0.001 0.07874,0.0082 0.04439,0.01391 0.0778,0.03446 0.113064,0.06952 0.03815,0.03793 0.06386,0.08558 0.07329,0.135859 l 0.0029,0.01556 -0.02128,-0.01915 c -0.0615,-0.05533 -0.136894,-0.0898 -0.209008,-0.09556 -0.07702,-0.0062 -0.147524,0.02854 -0.233566,0.11497 l -0.04335,0.04354 z"
       id="path3271" />
    <path
       style="fill:#aaaaff;stroke:#000007;stroke-width:0.0039432"
       d="m 16.397921,15.995697 c -0.04167,-0.04913 -0.106377,-0.09681 -0.161087,-0.118699 -0.08226,-0.03291 -0.199125,-0.0023 -0.291492,0.07637 -0.01297,0.01105 -0.0242,0.01822 -0.02497,0.01595 -0.0026,-0.0078 0.01574,-0.06106 0.02983,-0.08664 0.01699,-0.03082 0.06474,-0.07932 0.09636,-0.09785 0.04448,-0.02608 0.06801,-0.03325 0.115515,-0.03517 0.03554,-0.0014 0.04966,-2.4e-4 0.07677,0.0066 0.06918,0.01742 0.143533,0.06264 0.212747,0.12938 0.04135,0.03988 0.04207,0.04036 0.06108,0.04045 l 0.01924,9.6e-5 -0.02165,0.01849 c -0.01191,0.01016 -0.03595,0.03227 -0.05342,0.04912 -0.01747,0.01685 -0.03253,0.03047 -0.03346,0.03028 -9.6e-4,-1.91e-4 -0.01239,-0.01295 -0.02546,-0.02837 z"
       id="path3310" />
    <path
       style="fill:#333333;stroke:#333333;stroke-width:0.0314356px;stroke-linecap:butt;stroke-linejoin:miter;stroke-opacity:1"
       d="m 18.455342,16.516547 c 0.09059,-0.02774 0.183768,-0.04085 0.314356,0.157177 v 0.314357 c -0.06808,0.09037 -0.153995,0.16229 -0.314356,0.157178"
       id="path7737"
       sodipodi:nodetypes="cccc" />
    <path
       style="fill:#333333;stroke:#333333;stroke-width:0.0314356px;stroke-linecap:butt;stroke-linejoin:miter;stroke-opacity:1"
       d="m 15.94049,17.137525 c -0.09059,0.02774 -0.183768,0.04085 -0.314357,-0.157178 V 16.66599 c 0.06808,-0.09037 0.153995,-0.162291 0.314357,-0.157179"
       id="path4193"
       sodipodi:nodetypes="cccc" />
  </g>
</svg>
