<?xml version="1.0" encoding="UTF-8" standalone="no"?>
<!-- Created with Inkscape (http://www.inkscape.org/) -->

<svg
   width="23.999996"
   height="24.032694"
   viewBox="0 0 6.349999 6.3586488"
   version="1.1"
   id="svg5"
   inkscape:version="1.1 (c68e22c387, 2021-05-23)"
   sodipodi:docname="24.svg"
   xmlns:inkscape="http://www.inkscape.org/namespaces/inkscape"
   xmlns:sodipodi="http://sodipodi.sourceforge.net/DTD/sodipodi-0.dtd"
   xmlns="http://www.w3.org/2000/svg"
   xmlns:svg="http://www.w3.org/2000/svg">
  <sodipodi:namedview
     id="namedview7"
     pagecolor="#505050"
     bordercolor="#eeeeee"
     borderopacity="1"
     inkscape:pageshadow="0"
     inkscape:pageopacity="0"
     inkscape:pagecheckerboard="false"
     inkscape:document-units="mm"
     showgrid="true"
     units="px"
     inkscape:snap-center="true"
     inkscape:zoom="6.3359375"
     inkscape:cx="10.732429"
     inkscape:cy="13.020962"
     inkscape:window-width="1920"
     inkscape:window-height="1019"
     inkscape:window-x="0"
     inkscape:window-y="30"
     inkscape:window-maximized="1"
     inkscape:current-layer="layer2"
     fit-margin-top="3.6"
     fit-margin-left="2"
     fit-margin-right="2"
     fit-margin-bottom="3.6"
     lock-margins="false">
    <inkscape:grid
       type="xygrid"
       id="grid1111"
       originx="-14.022915"
       originy="-13.501984" />
  </sodipodi:namedview>
  <defs
     id="defs2" />
  <g
     inkscape:groupmode="layer"
     id="layer2"
     inkscape:label="Layer 2"
     transform="translate(-14.022916,-13.502023)">
    <path
       style="fill:#000000;stroke:#000000;stroke-width:0.0523927px;stroke-linecap:butt;stroke-linejoin:miter;stroke-opacity:1"
       d="m 15.365749,17.690201 c 0.111507,0.01934 0.21813,-0.05001 0.261964,-0.261964 v -1.047855 c -0.06102,-0.211892 -0.183757,-0.216393 -0.261964,-0.261964 -0.104722,0.06216 -0.259764,0.05157 -0.261963,0.261964 v 1.047855 c -0.04469,0.256121 0.40198,0.336977 0.261963,0.261964"
       id="path3462"
       sodipodi:nodetypes="ccccccc" />
    <path
       style="fill:#000000;stroke:#000000;stroke-width:0.0523927px;stroke-linecap:butt;stroke-linejoin:miter;stroke-opacity:1"
       d="m 19.033241,17.690201 c 0.111508,0.01934 0.21813,-0.05001 0.261964,-0.261964 v -1.047855 c -0.06102,-0.211892 -0.183756,-0.216393 -0.261964,-0.261964 -0.104721,0.06216 -0.259764,0.05157 -0.261964,0.261964 v 1.047855 c -0.04469,0.256121 0.401982,0.336977 0.261964,0.261964"
       id="path4158"
       sodipodi:nodetypes="ccccccc" />
    <path
       style="fill:none;stroke:#000000;stroke-width:0.19802;stroke-linecap:butt;stroke-linejoin:miter;stroke-miterlimit:4;stroke-dasharray:none;stroke-opacity:1"
       d="m 14.840242,16.655751 0.261964,-1.571782 c 0.211525,-0.184421 0.71986,-0.582617 1.047855,-0.523927 h 2.09571 c 0.323131,0.09311 0.508066,0.01284 0.892149,0.499456 0.02558,0.06195 0.41767,1.596253 0.41767,1.596253"
       id="path7864"
       sodipodi:nodetypes="cccccc" />
  </g>
  <g
     inkscape:label="Layer 1"
     inkscape:groupmode="layer"
     id="layer1"
     transform="translate(-14.022916,-13.502023)">
    <g
       style="overflow:hidden;fill:currentColor"
       id="g1302"
       transform="matrix(0.00467222,0,0,0.00467222,14.760465,14.522516)"
       inkscape:transform-center-x="-3.7474795"
       inkscape:transform-center-y="2.300754">
      <path
         d="m 688.768,192.04267 h 64 c 0,0 89.216,-108.45867 170.66667,-42.66667 96.44803,77.888 -21.33334,256 -85.33334,255.95733 C 790.4,405.33333 688.768,192.04267 688.768,192.04267 Z m -354.66667,0 h -64 c 0,0 -89.216,-108.45867 -170.666663,-42.66667 -96.448,77.888 21.333333,256 85.333333,255.95733 47.70133,0 149.33333,-213.29066 149.33333,-213.29066 z"
         fill="#996704"
         id="path1209" />
      <path
         d="m 384,853.33333 a 128,85.333333 0 1 0 256,0 128,85.333333 0 1 0 -256,0 z"
         fill="#ffc107"
         id="path1211" />
      <path
         d="m 874.66667,581.33333 c 0,106.048 -170.66667,272 -277.33334,272 -64,0 -85.33333,-42.66666 -85.33333,-42.66666 0,0 -21.33333,42.66666 -85.33333,42.66666 -106.66667,0 -277.33334,-165.952 -277.33334,-272 L 170.66667,384 c 0,-106.048 106.66666,-192 192,-234.66667 0,0 42.66666,-21.33333 85.33333,-21.33333 h 128 c 42.66667,0 85.33333,21.33333 85.33333,21.33333 64,21.33334 192,128.61867 192,234.66667 z"
         fill="#ffc107"
         id="path1213" />
      <path
         d="M 640,597.33333 C 597.33333,554.66667 597.33333,512 597.33333,512 c 0,0 0,-149.33333 106.66667,-149.33333 H 853.33333 C 853.33333,298.66667 725.33333,128 576,128 H 512 448 C 298.66667,128 170.66667,298.66667 170.66667,362.66667 H 320 C 426.66667,362.66667 426.66667,512 426.66667,512 c 0,0 0,42.66667 -42.66667,85.33333 -42.66667,42.66667 -106.66667,85.33334 -106.66667,128 0,42.66667 21.33334,128 149.33334,128 64,0 85.33333,-42.66666 85.33333,-42.66666 0,0 21.33333,42.66666 85.33333,42.66666 128,0 149.33334,-85.33333 149.33334,-128 0,-42.66666 -64,-85.33333 -106.66667,-128 z"
         fill="#d69107"
         id="path1215" />
      <path
         d="m 256,405.33333 c 0,0 0,106.66667 87.104,106.66667 h 62.22933 c 0,0 0,-106.66667 -74.66666,-106.66667 z m 512,0 c 0,0 0,106.66667 -87.104,106.66667 h -62.22933 c 0,0 0,-106.66667 74.66666,-106.66667 z"
         fill="#5d4037"
         id="path1217" />
      <path
         d="m 341.33333,426.66667 m -42.66666,0 a 42.666667,42.666667 0 1 0 85.33333,0 42.666667,42.666667 0 1 0 -85.33333,0 z"
         fill="#eeff41"
         id="path1219" />
      <path
         d="m 682.66667,426.66667 m -42.66667,0 a 42.666667,42.666667 0 1 0 85.33333,0 42.666667,42.666667 0 1 0 -85.33333,0 z"
         fill="#eeff41"
         id="path1221" />
      <path
         d="m 341.33333,426.66667 m -21.33333,0 a 21.333335,21.333335 0 1 0 42.66667,0 21.333335,21.333335 0 1 0 -42.66667,0 z"
         fill="#212121"
         id="path1223" />
      <path
         d="m 682.66667,426.66667 m -21.33334,0 a 21.333335,21.333335 0 1 0 42.66667,0 21.333335,21.333335 0 1 0 -42.66667,0 z"
         fill="#212121"
         id="path1225" />
      <path
         d="m 237.14133,219.11467 8.53334,10.368 A 400.64,400.64 0 0 1 286.4,192.02133 h -16.29867 c 0,0 -52.52266,-63.872 -113.74933,-63.872 -18.58133,0 -37.952,5.86667 -56.917333,21.20534 -21.525333,17.36533 -32.341333,39.744 -35.498667,64 0.02133,0 0.04267,0 0.064,-0.0427 42.66667,-42.66667 81.70667,-42.496 92.33067,-42.496 33.04533,0.0213 70.42133,35.86133 80.81066,48.29867 z M 923.43467,149.376 c -18.96534,-15.33867 -38.336,-21.20533 -56.91734,-21.20533 -61.22666,0 -113.74933,63.872 -113.74933,63.872 H 737.57867 A 395.41333,395.41333 0 0 1 777.728,228.864 l 8,-9.74933 c 10.38933,-12.43734 47.76533,-48.29867 80.81067,-48.29867 10.624,0 49.664,-0.17067 92.33066,42.496 0.0213,0.0427 0.0427,0.0427 0.064,0.0427 C 955.776,189.12 944.96,166.74133 923.43467,149.376 Z M 597.33333,725.33333 C 597.33333,772.45867 512,768 512,810.66667 512,768 426.66667,772.45867 426.66667,725.33333 c 0,-47.12533 38.208,0 85.33333,0 47.12533,0 85.33333,-47.12533 85.33333,0 z"
         fill="#3e2723"
         id="path1227" />
      <path
         d="m 394.66667,778.66667 m -10.66667,0 a 10.666667,10.666667 0 1 0 21.33333,0 10.666667,10.666667 0 1 0 -21.33333,0 z"
         fill="#3e2723"
         id="path1229" />
      <path
         d="m 373.33333,736 m -10.66666,0 A 10.666667,10.666667 0 1 0 384,736 a 10.666667,10.666667 0 1 0 -21.33333,0 z"
         fill="#3e2723"
         id="path1231" />
      <path
         d="m 394.66667,821.33333 m -10.66667,0 a 10.666667,10.666667 0 1 0 21.33333,0 10.666667,10.666667 0 1 0 -21.33333,0 z"
         fill="#3e2723"
         id="path1233" />
      <path
         d="m 352,800 m -10.66667,0 a 10.66667,10.66667 0 1 0 21.33334,0 10.66667,10.66667 0 1 0 -21.33334,0 z"
         fill="#3e2723"
         id="path1235" />
      <path
         d="m 330.66667,757.33333 m -10.66667,0 a 10.666667,10.666667 0 1 0 21.33333,0 10.666667,10.666667 0 1 0 -21.33333,0 z"
         fill="#3e2723"
         id="path1237" />
      <path
         d="m 437.33333,800 m -10.66666,0 A 10.666667,10.666667 0 1 0 448,800 a 10.666667,10.666667 0 1 0 -21.33333,0 z"
         fill="#3e2723"
         id="path1239" />
      <path
         d="m 629.33333,778.66667 m -10.66666,0 a 10.666667,10.666667 0 1 0 21.33333,0 10.666667,10.666667 0 1 0 -21.33333,0 z"
         fill="#3e2723"
         id="path1241" />
      <path
         d="M 650.66667,736 M 640,736 a 10.666667,10.666667 0 1 0 21.33333,0 A 10.666667,10.666667 0 1 0 640,736 Z"
         fill="#3e2723"
         id="path1243" />
      <path
         d="m 629.33333,821.33333 m -10.66666,0 a 10.666667,10.666667 0 1 0 21.33333,0 10.666667,10.666667 0 1 0 -21.33333,0 z"
         fill="#3e2723"
         id="path1245" />
      <path
         d="m 672,800 m -10.66667,0 a 10.66667,10.66667 0 1 0 21.33334,0 10.66667,10.66667 0 1 0 -21.33334,0 z"
         fill="#3e2723"
         id="path1247" />
      <path
         d="m 693.33333,757.33333 m -10.66666,0 a 10.666667,10.666667 0 1 0 21.33333,0 10.666667,10.666667 0 1 0 -21.33333,0 z"
         fill="#3e2723"
         id="path1249" />
      <path
         d="M 586.66667,800 M 576,800 a 10.666667,10.666667 0 1 0 21.33333,0 A 10.666667,10.666667 0 1 0 576,800 Z"
         fill="#3e2723"
         id="path1251" />
      <path
         d="m 512,298.66667 m -42.66667,0 a 42.66667,42.66667 0 1 0 85.33334,0 42.66667,42.66667 0 1 0 -85.33334,0 z"
         fill="#3e2723"
         id="path1253" />
      <path
         d="m 512,405.33333 m -21.33333,0 a 21.333333,21.333333 0 1 0 42.66666,0 21.333333,21.333333 0 1 0 -42.66666,0 z"
         fill="#3e2723"
         id="path1255" />
      <path
         d="M 451.92533,128 A 63.189333,63.189333 0 0 0 448,149.33333 a 64,64 0 0 0 128,0 C 576,141.80267 574.464,134.69867 572.07467,128 Z"
         fill="#3e2723"
         id="path1257" />
      <path
         d="m 661.33333,213.33333 m -42.66666,0 a 42.666667,42.666667 0 1 0 85.33333,0 42.666667,42.666667 0 1 0 -85.33333,0 z"
         fill="#3e2723"
         id="path1259" />
      <path
         d="m 362.66667,213.33333 m -42.66667,0 a 42.666667,42.666667 0 1 0 85.33333,0 42.666667,42.666667 0 1 0 -85.33333,0 z"
         fill="#3e2723"
         id="path1261" />
      <path
         d="m 832,522.66667 a 32,32 0 0 0 32,32 c 2.66667,0 5.20533,-0.42667 7.65867,-1.04534 l -6.784,-62.86933 c -0.29867,0 -0.576,-0.0853 -0.87467,-0.0853 a 32,32 0 0 0 -32,32 z M 832,576 c -35.328,0 -64,28.672 -64,64 a 63.872,63.872 0 0 0 55.12533,63.12533 c 28.11734,-37.76 47.21067,-76.992 50.53867,-111.33866 A 63.402667,63.402667 0 0 0 832,576 Z M 160,554.66667 a 32,32 0 0 0 0,-64 c -0.29867,0 -0.576,0.0853 -0.87467,0.0853 l -6.784,62.86933 c 2.45334,0.61867 4.992,1.04534 7.65867,1.04534 z M 192,576 c -16,0 -30.464,6.08 -41.664,15.78667 3.328,34.32533 22.42133,73.57866 50.53867,111.33866 A 63.872,63.872 0 0 0 256,640 c 0,-35.328 -28.672,-64 -64,-64 z"
         fill="#a36b07"
         id="path1263" />
      <path
         d="m 597.33333,853.33333 c -64,0 -85.33333,-42.66666 -85.33333,-42.66666 0,0 -21.33333,42.66666 -85.33333,42.66666 -43.008,0 -73.77067,-9.74933 -95.936,-24.17066 25.856,29.97333 59.264,65.6 67.968,63.808 9.51466,1.81333 18.88,3.02933 27.968,3.02933 C 463.18933,896 491.456,885.07733 512,871.12533 532.544,885.07733 560.81067,896 597.33333,896 c 9.088,0 18.45334,-1.216 27.968,-3.02933 8.68267,1.792 42.112,-33.83467 67.968,-63.808 -22.16533,14.42133 -52.928,24.17066 -95.936,24.17066 z"
         fill="#996704"
         id="path1265" />
    </g>
    <path
       style="fill:#afdde9;stroke:#000007;stroke-width:0.006572"
       d="m 17.916194,16.707884 c -0.04444,-0.0086 -0.08357,-0.03052 -0.111985,-0.06279 -0.10609,-0.120524 -0.02908,-0.310767 0.130418,-0.322179 0.06512,-0.0046 0.105395,0.01047 0.1515,0.05691 0.04066,0.04096 0.05886,0.08389 0.05886,0.138891 0,0.115824 -0.115217,0.211086 -0.228792,0.189169 z m 0.08454,-0.103418 c 0.08727,-0.04644 0.05617,-0.180532 -0.04391,-0.189284 -0.105221,-0.0092 -0.150248,0.133095 -0.05961,0.188362 0.02721,0.01659 0.07329,0.017 0.103508,9.28e-4 z"
       id="path1417" />
    <path
       style="fill:#afdde9;stroke:#000007;stroke-width:0.006572"
       d="m 16.321717,16.707884 c -0.09498,-0.01834 -0.160647,-0.09577 -0.160847,-0.189677 -2.17e-4,-0.105208 0.07588,-0.1879 0.179776,-0.195333 0.06475,-0.0046 0.104912,0.01059 0.151911,0.05759 0.04408,0.04408 0.06114,0.08924 0.05673,0.15021 -0.0081,0.112353 -0.118454,0.198265 -0.227569,0.177208 z m 0.08454,-0.10322 c 0.03174,-0.01662 0.05421,-0.06073 0.05026,-0.09869 -0.0098,-0.09446 -0.132906,-0.125358 -0.186511,-0.04682 -0.01934,0.02833 -0.02013,0.07971 -0.0017,0.10997 0.0275,0.04511 0.08927,0.06102 0.137932,0.03554 z"
       id="path1456" />
    <path
       style="fill:#93a7ac;stroke:#000007;stroke-width:0.006572"
       d="m 16.274921,16.901626 c -0.10709,-0.02319 -0.192353,-0.09279 -0.245397,-0.200317 -0.03287,-0.06663 -0.05875,-0.158072 -0.06621,-0.233954 l -0.0047,-0.04757 h 0.108597 0.108599 l -0.01046,0.02461 c -0.01672,0.03936 -0.01409,0.109798 0.0057,0.15286 0.02343,0.05099 0.04634,0.07515 0.09305,0.09814 0.04841,0.02383 0.1083,0.02756 0.161062,0.01004 0.05545,-0.01842 0.108406,-0.07529 0.125439,-0.13473 0.0042,-0.01481 0.007,-0.01162 0.02869,0.03281 0.03807,0.07809 0.06961,0.204854 0.06961,0.279729 v 0.02867 l -0.165681,-5e-4 c -0.116092,-3.66e-4 -0.178446,-0.0033 -0.208331,-0.0098 z"
       id="path1532" />
    <path
       style="fill:#93a7ac;stroke:#000007;stroke-width:0.006572"
       d="m 17.656237,16.867614 c 0.0061,-0.06089 0.02086,-0.134477 0.03724,-0.185366 0.01319,-0.04099 0.04855,-0.118109 0.05415,-0.118109 0.0015,0 0.0099,0.01576 0.01874,0.03501 0.05579,0.121864 0.21614,0.156758 0.316083,0.06879 0.05914,-0.05205 0.08438,-0.141347 0.0601,-0.212594 -0.0059,-0.01724 -0.01069,-0.03229 -0.01069,-0.03345 0,-0.0011 0.04813,-0.0021 0.106955,-0.0021 h 0.106956 l -0.0051,0.05227 c -0.01815,0.187748 -0.105512,0.339148 -0.231113,0.400521 -0.07038,0.03439 -0.107067,0.03922 -0.298146,0.03929 l -0.159642,5e-5 z"
       id="path1571" />
    <path
       style="fill:#93a7ac;stroke:#000007;stroke-width:0.006572"
       d="m 17.14116,18.250729 c -0.01569,-0.03786 -0.06549,-0.07453 -0.181455,-0.133596 -0.163928,-0.08349 -0.20072,-0.12212 -0.200046,-0.210021 5.45e-4,-0.06981 0.0164,-0.09377 0.0583,-0.08808 0.0135,0.0018 0.06588,0.01974 0.116406,0.03979 0.112415,0.04461 0.184054,0.06029 0.247122,0.05407 0.05749,-0.0056 0.09231,-0.01594 0.203308,-0.05997 0.09048,-0.03589 0.114439,-0.04094 0.13698,-0.02888 0.02433,0.01302 0.03389,0.09134 0.01694,0.138791 -0.01969,0.05512 -0.06888,0.09405 -0.199416,0.157846 -0.105909,0.05176 -0.152608,0.08523 -0.172036,0.123308 -0.0073,0.01439 -0.01441,0.02617 -0.0157,0.02617 -0.0013,0 -0.006,-0.0087 -0.0104,-0.01944 z"
       id="path1610" />
    <path
       style="fill:#aaaaff;stroke:#000007;stroke-width:0.006572"
       d="m 17.770606,17.995598 c -0.02032,-0.01645 -0.02032,-0.05121 0,-0.06767 0.03129,-0.02533 0.07473,-0.0056 0.07473,0.03383 0,0.03949 -0.04345,0.05916 -0.07473,0.03383 z"
       id="path1649" />
    <path
       style="fill:#aaaaff;stroke:#000007;stroke-width:0.006572"
       d="m 16.064101,18.183805 c -0.133129,-0.108334 -0.36667,-0.357023 -0.349592,-0.372268 0.0033,-0.0029 0.02022,-0.0092 0.03766,-0.01384 0.09095,-0.02448 0.171146,-0.111348 0.198011,-0.214487 0.03911,-0.150195 -0.05098,-0.310408 -0.200781,-0.357032 -0.08155,-0.02538 -0.19327,-0.01069 -0.254169,0.03343 -0.015,0.01087 -0.02921,0.01976 -0.03158,0.01976 -0.0044,0 0.0013,-0.09453 0.0083,-0.13847 l 0.0039,-0.02413 0.04124,-0.0027 c 0.111157,-0.0071 0.174599,-0.119189 0.124424,-0.219876 -0.02238,-0.04491 -0.07517,-0.08077 -0.118896,-0.08077 -0.01541,0 -0.0163,-0.0017 -0.01285,-0.02461 0.004,-0.02656 0.04751,-0.448778 0.05375,-0.521649 l 0.0038,-0.04429 h 0.378674 c 0.419267,0 0.415506,-3.16e-4 0.504164,0.04296 0.14225,0.06944 0.243132,0.24105 0.283715,0.482618 0.02594,0.154403 0.01801,0.24019 -0.03249,0.351565 -0.05035,0.111049 -0.11229,0.182324 -0.324978,0.373968 -0.19536,0.176032 -0.267612,0.25874 -0.305804,0.350059 -0.03272,0.07825 -0.01166,0.244134 0.04612,0.363261 0.01421,0.0293 0.02498,0.05414 0.02392,0.05522 -0.0011,0.0011 -0.0355,-0.02539 -0.07653,-0.05877 z m 0.591374,-1.299786 c -5.5e-5,-0.08212 -0.03921,-0.233777 -0.07831,-0.303339 -0.01325,-0.02357 -0.01944,-0.0452 -0.02173,-0.076 -0.0041,-0.05489 -0.02251,-0.09627 -0.05914,-0.132903 -0.07988,-0.07988 -0.216145,-0.07446 -0.291903,0.01161 l -0.02626,0.02984 H 16.06577 15.953409 l 1.3e-4,0.01804 c 7.1e-5,0.0099 0.0031,0.03871 0.0067,0.06398 0.02666,0.185853 0.103408,0.317403 0.221308,0.379316 0.06995,0.03674 0.112358,0.04276 0.304976,0.04338 l 0.168962,5.45e-4 -2e-5,-0.03445 z"
       id="path1764" />
    <path
       style="fill:#aaaaff;stroke:#000007;stroke-width:0.006572"
       d="m 18.188141,18.18679 c 0.03721,-0.0754 0.0554,-0.146195 0.05999,-0.233538 0.0048,-0.09053 -0.0065,-0.130816 -0.05814,-0.208214 -0.04638,-0.06949 -0.122936,-0.148274 -0.28794,-0.296291 -0.07046,-0.0632 -0.146944,-0.135292 -0.169973,-0.160197 -0.08253,-0.08925 -0.142687,-0.199659 -0.168629,-0.309471 -0.0172,-0.07281 -0.0029,-0.22039 0.03379,-0.3502 0.06203,-0.219074 0.177827,-0.352958 0.342105,-0.395527 0.03446,-0.0089 0.09412,-0.01042 0.41749,-0.01042 0.421305,0 0.385245,-0.0045 0.385258,0.04811 3e-6,0.01504 0.01181,0.135921 0.02624,0.268618 0.01444,0.132697 0.02624,0.248257 0.02624,0.256799 0,0.01338 -0.0041,0.01614 -0.02955,0.01996 -0.03751,0.0056 -0.07999,0.03744 -0.101633,0.07611 -0.02183,0.039 -0.0226,0.10192 -0.0018,0.141584 0.02727,0.05186 0.07607,0.08121 0.13504,0.08121 h 0.03535 l 0.0042,0.04429 c 0.0023,0.02436 0.0042,0.06106 0.0042,0.08154 l 4.2e-5,0.03725 -0.03773,-0.02276 c -0.05658,-0.03412 -0.09733,-0.04381 -0.171502,-0.04079 -0.05404,0.0022 -0.06946,0.0056 -0.107614,0.02347 -0.06228,0.02921 -0.11679,0.08285 -0.147646,0.145283 -0.02402,0.0486 -0.02435,0.05034 -0.02435,0.128349 0,0.07543 10e-4,0.08113 0.02109,0.123617 0.02864,0.06046 0.08313,0.116574 0.141628,0.145838 0.02516,0.01258 0.05254,0.02288 0.06086,0.02288 0.0083,0 0.01666,0.0025 0.01853,0.0055 0.01131,0.01831 -0.258315,0.302127 -0.36889,0.388304 -0.03002,0.0234 -0.05699,0.04341 -0.05992,0.04447 -0.0029,0.0011 0.0075,-0.02404 0.02314,-0.05577 z m -0.121422,-1.286747 c 0.164002,-0.05396 0.257915,-0.205671 0.284106,-0.458935 l 0.0029,-0.02789 h -0.111771 -0.11177 l -0.03365,-0.03502 c -0.125776,-0.130903 -0.34514,-0.04508 -0.347143,0.135815 -2.66e-4,0.02336 -0.005,0.0412 -0.01556,0.05809 -0.01777,0.02849 -0.04326,0.09175 -0.05761,0.142953 -0.01104,0.03941 -0.0298,0.156198 -0.02986,0.185963 l -3.9e-5,0.01864 0.188646,-0.0027 c 0.171368,-0.0024 0.192598,-0.004 0.231772,-0.01691 z"
       id="path1803" />
    <path
       style="fill:#5555ff;stroke:#000007;stroke-width:0.006572"
       d="m 16.613729,18.499316 c -0.279744,-0.03828 -0.458429,-0.1777 -0.525833,-0.410293 -0.03495,-0.12061 -0.03243,-0.224913 0.0072,-0.297029 0.04564,-0.08309 0.102073,-0.143009 0.362312,-0.384685 0.135771,-0.126087 0.198859,-0.201593 0.241228,-0.288712 0.04525,-0.09305 0.05761,-0.152812 0.05291,-0.255904 -0.01012,-0.221962 -0.09198,-0.431541 -0.211098,-0.540406 -0.04376,-0.04001 -0.08065,-0.06257 -0.140057,-0.08572 l -0.04344,-0.01692 -0.398619,-0.0019 c -0.370665,-0.0018 -0.398616,-0.0027 -0.398573,-0.01311 1.17e-4,-0.02879 0.02849,-0.12462 0.05414,-0.182898 0.05271,-0.11973 0.13075,-0.239465 0.226735,-0.347851 0.06057,-0.0684 0.175175,-0.180297 0.244005,-0.238247 0.165386,-0.139242 0.391398,-0.253825 0.575766,-0.291898 0.05234,-0.01081 0.198017,-0.02581 0.20293,-0.02089 0.0017,0.0017 -5.8e-5,0.01444 -0.0039,0.02832 -0.01103,0.0397 -0.0085,0.114614 0.0054,0.159138 0.06004,0.192921 0.288428,0.271609 0.458568,0.157994 0.09722,-0.06492 0.14829,-0.186727 0.125403,-0.299102 l -0.01004,-0.04928 0.05294,0.0039 c 0.162168,0.01216 0.290778,0.04851 0.446642,0.12624 0.193434,0.09646 0.411389,0.2783 0.564926,0.47132 0.130239,0.163731 0.225565,0.348216 0.236956,0.458584 l 0.0038,0.03637 h -0.379432 c -0.426943,0 -0.423909,-2.83e-4 -0.517895,0.04819 -0.12145,0.06264 -0.209845,0.192622 -0.259055,0.380958 -0.02734,0.104657 -0.03529,0.160772 -0.03536,0.249984 -5.9e-5,0.07179 0.0018,0.08419 0.02119,0.14052 0.02146,0.06234 0.03904,0.101119 0.05963,0.131586 0.0061,0.0091 0.01981,0.02973 0.0303,0.04576 0.03059,0.04677 0.08075,0.0977 0.258066,0.262045 0.180946,0.16771 0.253756,0.24883 0.293293,0.326768 l 0.02545,0.05017 -6.82e-4,0.07931 c -6.82e-4,0.09147 -0.01157,0.144371 -0.04659,0.226863 -0.03021,0.07119 -0.05536,0.109053 -0.107437,0.161813 -0.114922,0.116434 -0.270615,0.175449 -0.485126,0.183888 -0.08213,0.0033 -0.112456,0.0018 -0.157479,-0.0073 -0.110004,-0.02226 -0.207984,-0.07842 -0.262311,-0.150381 -0.02398,-0.03176 -0.02666,-0.03876 -0.02277,-0.05951 0.0056,-0.03016 0.035,-0.07057 0.06925,-0.09538 0.01479,-0.01071 0.07354,-0.04331 0.130552,-0.07244 0.160821,-0.08216 0.19324,-0.11809 0.193444,-0.214407 9.2e-5,-0.04436 -0.0023,-0.05686 -0.01367,-0.07218 -0.02202,-0.02963 -0.04618,-0.02754 -0.154122,0.01332 -0.13658,0.05171 -0.165285,0.0591 -0.229081,0.05905 -0.06512,-5.5e-5 -0.119523,-0.01374 -0.227842,-0.05733 -0.04051,-0.0163 -0.08404,-0.03158 -0.09674,-0.03396 -0.05534,-0.01038 -0.07568,0.01398 -0.07568,0.09064 0,0.09787 0.03331,0.133551 0.209856,0.224865 0.137888,0.07131 0.183842,0.114888 0.183842,0.174312 0,0.01707 -0.0089,0.02955 -0.05085,0.07137 -0.05519,0.05499 -0.124717,0.09488 -0.20177,0.115739 -0.04704,0.01274 -0.213907,0.01786 -0.281266,0.0086 z m 0.03028,-0.105228 c 0.02869,-0.03454 0.0046,-0.08456 -0.04079,-0.08456 -0.04106,0 -0.06296,0.03594 -0.04541,0.07448 0.01466,0.03217 0.06314,0.03783 0.08619,0.01007 z m 1.095794,0 c 0.0156,-0.01879 0.01477,-0.05502 -0.0016,-0.07143 -0.01641,-0.01641 -0.05264,-0.01724 -0.07143,-0.0017 -0.0076,0.0063 -0.01566,0.02096 -0.0179,0.03254 -0.0034,0.01774 -7.86e-4,0.02432 0.01665,0.04178 0.01745,0.01745 0.02404,0.02008 0.04179,0.01665 0.01159,-0.0023 0.02624,-0.01029 0.03254,-0.0179 z m -1.295924,-0.101855 c 0.03611,-0.03972 -0.0057,-0.09818 -0.05731,-0.08018 -0.02239,0.0078 -0.03292,0.02293 -0.03292,0.0473 0,0.02617 0.0072,0.03793 0.02886,0.04732 0.02498,0.01081 0.04206,0.0068 0.06136,-0.01444 z m 0.399539,0.0032 c 0.01628,-0.01799 0.01489,-0.05499 -0.0028,-0.07261 -0.01931,-0.01931 -0.05882,-0.01849 -0.07506,0.0016 -0.01431,0.01766 -0.01516,0.05108 -0.0018,0.07015 0.01629,0.02326 0.05893,0.02373 0.0796,9.29e-4 z m 0.696254,-0.0032 c 0.01738,-0.01911 0.01883,-0.03959 0.0042,-0.06039 -0.02992,-0.04271 -0.09406,-0.02329 -0.09406,0.02848 0,0.02337 0.01128,0.03996 0.03299,0.04856 0.02102,0.0083 0.03889,0.0031 0.05682,-0.01665 z m 0.402047,-7.86e-4 c 0.03276,-0.04166 -0.0085,-0.09705 -0.05909,-0.0794 -0.02239,0.0078 -0.03291,0.02293 -0.03291,0.0473 0,0.02595 0.0071,0.03794 0.02778,0.04661 0.02562,0.01076 0.04839,0.0056 0.06423,-0.01451 z m -1.301415,-0.09461 c 0.04153,-0.03901 -0.0041,-0.106085 -0.05715,-0.08409 -0.03233,0.01339 -0.04153,0.0525 -0.01905,0.08107 0.01761,0.02238 0.05405,0.02383 0.0762,0.003 z m 1.097856,0.0012 c 0.01641,-0.01641 0.01724,-0.05264 0.0017,-0.07143 -0.0063,-0.0076 -0.02096,-0.01566 -0.03254,-0.0179 -0.01774,-0.0034 -0.02433,-7.85e-4 -0.04178,0.01665 -0.01745,0.01745 -0.02007,0.02403 -0.01665,0.04179 0.0023,0.01159 0.01029,0.02624 0.0179,0.03254 0.01879,0.0156 0.05502,0.01477 0.07143,-0.0017 z m -1.399838,-0.09501 c 0.02926,-0.02049 0.02424,-0.07302 -0.0084,-0.08788 -0.02356,-0.01074 -0.03787,-0.0092 -0.05741,0.0062 -0.03577,0.02814 -0.01389,0.09139 0.03161,0.09139 0.0112,0 0.02658,-0.0044 0.03419,-0.0097 z m 1.69869,-0.0064 c 0.01015,-0.01015 0.01611,-0.02361 0.01611,-0.03639 0,-0.01278 -0.0059,-0.02623 -0.01611,-0.03638 -0.04788,-0.04788 -0.120988,0.02433 -0.07461,0.07369 0.01954,0.02081 0.0533,0.02039 0.07461,-9.28e-4 z m -1.496053,-0.09842 c 0.03254,-0.03254 0.0095,-0.08888 -0.03638,-0.08888 -0.02698,0 -0.05249,0.02552 -0.05249,0.05249 0,0.02698 0.02552,0.05249 0.05249,0.05249 0.01278,0 0.02623,-0.0059 0.03638,-0.01611 z m 1.288017,0.0056 c 0.04271,-0.02992 0.02329,-0.09406 -0.02848,-0.09406 -0.05177,0 -0.07119,0.06415 -0.02848,0.09406 0.0083,0.0058 0.02107,0.01051 0.02848,0.01051 0.0074,0 0.02023,-0.0047 0.02848,-0.01051 z M 17.199979,16.50674 c 0.03396,-0.01706 0.05262,-0.04906 0.05262,-0.09021 0,-0.108007 -0.144078,-0.141388 -0.19109,-0.04427 -0.04244,0.08767 0.051,0.17843 0.138466,0.134485 z m 0.02809,-0.401868 c 0.02018,-0.0076 0.04709,-0.02492 0.06351,-0.04101 0.101247,-0.09917 0.07513,-0.26562 -0.05145,-0.327994 -0.02459,-0.01211 -0.04112,-0.01486 -0.08924,-0.01486 -0.0532,0 -0.06254,0.0019 -0.09422,0.01947 -0.113103,0.06264 -0.140372,0.212358 -0.05652,0.310319 0.01279,0.01495 0.04096,0.03587 0.06334,0.04705 0.05006,0.02501 0.109708,0.02756 0.164583,0.0071 z m -0.68892,-0.401846 c 0.0416,-0.01767 0.09208,-0.07314 0.106751,-0.117321 0.01656,-0.04987 0.01084,-0.1176 -0.01375,-0.162785 -0.07923,-0.145578 -0.292486,-0.137786 -0.360228,0.01317 -0.01633,0.03639 -0.01794,0.04624 -0.01532,0.09389 0.0033,0.06044 0.01749,0.09461 0.05462,0.131747 0.05943,0.05943 0.147634,0.07541 0.22793,0.04131 z m 1.383852,0.0043 c 0.04182,-0.01366 0.08619,-0.05449 0.10842,-0.09976 0.02457,-0.05005 0.02569,-0.125687 0.0026,-0.173556 -0.05961,-0.123324 -0.218314,-0.154747 -0.318606,-0.06309 -0.04654,0.04254 -0.06494,0.0848 -0.06524,0.149934 -2.84e-4,0.0587 0.01654,0.09949 0.05816,0.141041 0.05761,0.05753 0.130467,0.07295 0.214717,0.04542 z"
       id="path1879" />
    <path
       style="fill:#5f5fd3;stroke:#000007;stroke-width:0.006572"
       d="m 18.561564,17.792473 c -0.05136,-0.01774 -0.09004,-0.04334 -0.128522,-0.08505 -0.04546,-0.04927 -0.0654,-0.09012 -0.07161,-0.146711 -0.01244,-0.113329 0.01244,-0.188285 0.08572,-0.258175 0.09759,-0.09309 0.23854,-0.10908 0.353999,-0.04016 0.03486,0.02081 0.03602,0.02241 0.03406,0.04715 -0.006,0.07535 -0.05558,0.211482 -0.115463,0.316811 -0.04141,0.07285 -0.109124,0.173034 -0.118729,0.175689 -0.0036,0.001 -0.02136,-0.0033 -0.03946,-0.0096 z"
       id="path2033" />
    <path
       style="fill:#5f5fd3;stroke:#000007;stroke-width:0.006572"
       d="m 18.745375,17.098977 c -0.06262,-0.02195 -0.102845,-0.09802 -0.08812,-0.166658 0.01174,-0.05477 0.07589,-0.112277 0.12524,-0.112277 h 0.01656 l 0.01429,0.136155 c 0.0079,0.07488 0.01424,0.139844 0.01417,0.144355 -1.67e-4,0.01113 -0.04855,0.01021 -0.08215,-0.0016 z"
       id="path2072" />
    <path
       style="fill:#5f5fd3;stroke:#000007;stroke-width:0.006572"
       d="m 15.650267,17.730805 c -0.08901,-0.134912 -0.137837,-0.237983 -0.166756,-0.351983 -0.02144,-0.08448 -0.02097,-0.08866 0.01221,-0.111254 0.113048,-0.07694 0.28054,-0.057 0.374608,0.04461 0.06421,0.06936 0.09332,0.160502 0.07789,0.243917 -0.02254,0.121881 -0.114073,0.219781 -0.228556,0.244455 -0.02012,0.0044 -0.02134,0.0031 -0.0694,-0.06974 z"
       id="path2111" />
    <path
       style="fill:#5f5fd3;stroke:#000007;stroke-width:0.006572"
       d="m 15.477462,17.08508 c 0.0019,-0.01404 0.008,-0.06835 0.01348,-0.120681 0.01556,-0.148565 0.01453,-0.144357 0.03517,-0.144357 0.0098,0 0.03374,0.0096 0.05327,0.02132 0.02739,0.01645 0.03971,0.02938 0.05384,0.05652 0.05015,0.0963 -0.0087,0.19907 -0.119688,0.209137 l -0.0396,0.0036 z"
       id="path2150" />
    <path
       style="fill:#5f5fd3;stroke:#000007;stroke-width:0.006572"
       d="m 15.501336,16.373785 c -0.07006,-0.03861 -0.14751,-0.108685 -0.214181,-0.193758 -0.143567,-0.183196 -0.226372,-0.394758 -0.227863,-0.582176 -5.45e-4,-0.06942 -2.35e-4,-0.07097 0.01863,-0.09083 0.06106,-0.06431 0.196566,-0.144556 0.281653,-0.166791 0.06409,-0.01675 0.14418,-0.01964 0.193462,-0.007 0.04838,0.01243 0.124149,0.05129 0.17727,0.09091 0.04242,0.03164 0.124285,0.10925 0.152055,0.144153 l 0.0195,0.02452 -0.06642,0.07719 c -0.102787,0.119464 -0.183906,0.244764 -0.226268,0.349501 -0.0095,0.02346 -0.02004,0.04856 -0.02343,0.05577 -0.01561,0.03313 -0.02767,0.09719 -0.02902,0.154198 -0.0018,0.07679 -0.01025,0.164082 -0.01583,0.163922 -0.0023,-6.7e-5 -0.02008,-0.0089 -0.03955,-0.01963 z"
       id="path2189" />
    <path
       style="fill:#5f5fd3;stroke:#000007;stroke-width:0.006572"
       d="m 18.759511,16.382373 c -0.0037,-0.01308 -0.01046,-0.101428 -0.01393,-0.182701 -0.0027,-0.06246 -0.02273,-0.127152 -0.06635,-0.214012 -0.05988,-0.119225 -0.142716,-0.240204 -0.234067,-0.34184 l -0.04575,-0.0509 0.01714,-0.02248 c 0.07248,-0.09503 0.208991,-0.19677 0.309137,-0.230403 0.04724,-0.01586 0.05874,-0.01725 0.114828,-0.01384 0.129608,0.0079 0.242115,0.05802 0.35925,0.160028 l 0.04101,0.03571 v 0.06748 c 0,0.03711 -0.0046,0.09371 -0.01014,0.125757 -0.04388,0.252083 -0.23963,0.55131 -0.430584,0.658177 -0.03374,0.01888 -0.03749,0.01971 -0.04054,0.009 z"
       id="path2228" />
    <path
       style="fill:#5f5fd3;stroke:#000007;stroke-width:0.006572"
       d="m 17.662771,16.868319 c 0.01129,-0.09706 0.04021,-0.204466 0.07083,-0.262997 l 0.0145,-0.02771 0.01901,0.0363 c 0.03491,0.06667 0.104715,0.107709 0.183217,0.107709 0.05569,0 0.09619,-0.01502 0.135243,-0.05013 0.06009,-0.05403 0.08627,-0.141777 0.06383,-0.213978 l -0.0097,-0.03117 h 0.09875 0.09875 l -0.0041,0.04757 c -0.01071,0.125728 -0.06319,0.248579 -0.138327,0.323875 -0.04803,0.04813 -0.08585,0.07144 -0.148254,0.09136 -0.02947,0.0094 -0.06839,0.01208 -0.212174,0.01456 l -0.176084,0.0031 z"
       id="path2267" />
    <path
       style="fill:#5f5fd3;stroke:#000007;stroke-width:0.006572"
       d="m 16.31101,16.898997 c -0.0842,-0.0097 -0.159529,-0.04899 -0.215499,-0.112317 -0.05892,-0.06667 -0.112335,-0.202433 -0.125616,-0.319325 l -0.0046,-0.04101 h 0.09951 0.09951 l -0.0054,0.01477 c -0.0029,0.0081 -0.0053,0.04281 -0.0052,0.0771 1.55e-4,0.05454 0.0023,0.06651 0.01763,0.09573 0.04466,0.0855 0.150642,0.127358 0.249598,0.09859 0.04419,-0.01285 0.101313,-0.0616 0.119546,-0.102032 0.0066,-0.01466 0.01413,-0.02667 0.0167,-0.02667 0.0059,0 0.03666,0.06818 0.04936,0.109542 0.01774,0.05776 0.02961,0.115472 0.03371,0.163974 l 0.0041,0.04801 -0.146959,-9.28e-4 c -0.08083,-5e-4 -0.164676,-0.0029 -0.186329,-0.0054 z"
       id="path2306" />
    <path
       style="fill:#afafe9;stroke:#000007;stroke-width:0.006572"
       d="m 17.138204,18.234018 c -0.01635,-0.03036 -0.06335,-0.06314 -0.182927,-0.127585 -0.161198,-0.08687 -0.192822,-0.12286 -0.187089,-0.212907 0.0029,-0.04525 0.01653,-0.06955 0.03906,-0.06955 0.0066,0 0.05582,0.01604 0.109485,0.03564 0.21459,0.07838 0.259362,0.07922 0.447989,0.0084 0.113046,-0.04246 0.132056,-0.04725 0.149746,-0.03779 0.01751,0.0094 0.02923,0.05455 0.02451,0.0945 -0.0084,0.07155 -0.05238,0.112508 -0.204347,0.190523 -0.09914,0.05089 -0.140419,0.07947 -0.166173,0.115015 l -0.01851,0.02556 z"
       id="path2345" />
    <path
       style="fill:#afafe9;stroke:#000007;stroke-width:0.006572"
       d="m 17.053932,18.899501 c -0.146395,-0.01548 -0.293972,-0.07767 -0.386793,-0.163023 l -0.03259,-0.02997 0.123661,-4.33e-4 c 0.112487,-4e-4 0.129589,-0.002 0.189277,-0.01796 0.03807,-0.01017 0.09561,-0.03262 0.137065,-0.05349 l 0.07145,-0.03596 0.03714,0.02177 c 0.04613,0.02704 0.110432,0.05301 0.17634,0.07121 0.04281,0.01183 0.06917,0.01401 0.174217,0.01439 l 0.123779,4.55e-4 -0.04381,0.04071 c -0.03165,0.0294 -0.0642,0.05082 -0.117218,0.07713 -0.135501,0.06725 -0.287869,0.09256 -0.452516,0.07515 z"
       id="path2421" />
    <path
       style="fill:#5f5fd3;stroke:#000007;stroke-width:0.006572"
       d="m 16.635934,18.69296 c -0.02831,-0.0051 -0.04682,-0.01366 -0.07015,-0.03224 -0.05373,-0.04283 -0.24177,-0.239636 -0.228962,-0.239636 0.0023,0 0.01871,0.0074 0.03649,0.01639 0.08324,0.04218 0.18979,0.06591 0.32483,0.07233 0.142495,0.0068 0.233958,-0.01269 0.3288,-0.06999 0.03814,-0.02304 0.112507,-0.0926 0.119867,-0.112114 0.0035,-0.0092 0.0086,-0.0056 0.02715,0.01944 0.02639,0.03556 0.08604,0.08541 0.126306,0.105565 0.1259,0.063 0.235497,0.07369 0.444456,0.04334 0.04479,-0.0065 0.133159,-0.03336 0.180668,-0.0549 0.02333,-0.01058 0.04243,-0.01666 0.04243,-0.01351 0,0.01046 -0.232574,0.241514 -0.253542,0.251881 -0.03356,0.01659 -0.084,0.02065 -0.209053,0.01682 -0.135306,-0.0041 -0.167982,-0.01236 -0.290414,-0.07315 -0.06035,-0.02996 -0.0685,-0.03243 -0.07874,-0.02383 -0.02074,0.01742 -0.130069,0.0639 -0.189347,0.0805 -0.04914,0.01377 -0.07508,0.01663 -0.165309,0.01821 -0.05886,10e-4 -0.124326,-0.0013 -0.145481,-0.0051 z"
       id="path2460" />
    <path
       style="fill:#aaaaff;stroke:#000007;stroke-width:0.006572"
       d="m 17.967822,18.093 c -0.0072,-0.0072 -0.01312,-0.02064 -0.01312,-0.02983 0,-0.02019 0.02697,-0.04891 0.04593,-0.04891 0.01771,0 0.04593,0.02823 0.04593,0.04593 0,0.01896 -0.02872,0.04593 -0.04891,0.04593 -0.0092,0 -0.02261,-0.0059 -0.02983,-0.01312 z"
       id="path2610" />
    <path
       style="fill:#aaaaff;stroke:#000007;stroke-width:0.006572"
       d="m 17.871037,18.292983 c -0.01856,-0.01312 -0.02009,-0.04878 -0.0028,-0.06445 0.01498,-0.01356 0.04944,-0.01409 0.06256,-10e-4 0.03941,0.03941 -0.01397,0.09784 -0.0598,0.06543 z"
       id="path2686" />
    <path
       style="fill:#aaaaff;stroke:#000007;stroke-width:0.006572"
       d="m 17.673052,18.39097 c -0.02438,-0.02051 -0.02555,-0.0373 -0.0041,-0.05877 0.01951,-0.01951 0.0449,-0.02072 0.06264,-0.003 0.01773,0.01773 0.01652,0.04312 -0.003,0.06264 -0.02041,0.02041 -0.03046,0.02024 -0.05557,-9.29e-4 z"
       id="path2725" />
    <path
       style="fill:#aaaaff;stroke:#000007;stroke-width:0.006572"
       d="m 17.668969,18.188441 c -0.02096,-0.02096 -0.02034,-0.03644 0.0023,-0.05812 0.02282,-0.02186 0.03666,-0.02223 0.05735,-0.0015 0.01951,0.01951 0.02071,0.0449 0.003,0.06264 -0.01773,0.01774 -0.04312,0.01653 -0.06264,-0.003 z"
       id="path2764" />
    <path
       style="fill:#aaaaff;stroke:#000007;stroke-width:0.006572"
       d="m 17.466874,18.290972 c -0.01365,-0.01508 -0.01392,-0.03977 -6.82e-4,-0.05872 0.01401,-0.02001 0.04831,-0.0197 0.06738,5.91e-4 0.01781,0.01897 0.01797,0.03084 6.82e-4,0.05283 -0.01648,0.02096 -0.05079,0.02365 -0.06741,0.0053 z"
       id="path2803" />
    <path
       style="fill:#aaaaff;stroke:#000007;stroke-width:0.006572"
       d="m 16.770696,18.288388 c -0.02223,-0.03174 -0.0044,-0.07071 0.03234,-0.07071 0.01216,0 0.02676,0.0046 0.03243,0.01031 0.01329,0.01329 0.01329,0.05139 0,0.06468 -0.01569,0.01568 -0.0525,0.01326 -0.06478,-0.0042 z"
       id="path2842" />
    <path
       style="fill:#aaaaff;stroke:#000007;stroke-width:0.006572"
       d="m 16.57067,18.187258 c -0.01661,-0.02112 -0.0172,-0.03606 -0.0021,-0.05388 0.0191,-0.02257 0.04423,-0.02464 0.06364,-0.0052 0.02053,0.02053 0.02146,0.04523 0.0023,0.06301 -0.02026,0.01889 -0.04728,0.01722 -0.06391,-0.0039 z"
       id="path2881" />
    <path
       style="fill:#aaaaff;stroke:#000007;stroke-width:0.006572"
       d="m 16.474752,17.991593 c -0.02043,-0.02044 -0.02043,-0.03922 0,-0.05965 0.02115,-0.02115 0.04495,-0.02069 0.06216,0.0012 0.01716,0.02181 0.01716,0.03547 0,0.05729 -0.01721,0.02189 -0.04101,0.02234 -0.06216,0.0012 z"
       id="path2920" />
    <path
       style="fill:#aaaaff;stroke:#000007;stroke-width:0.006572"
       d="m 16.275176,18.091763 c -0.01773,-0.01903 -0.01696,-0.04559 0.0018,-0.06324 0.01836,-0.01725 0.03775,-0.01821 0.05598,-0.0028 0.02257,0.0191 0.02463,0.04423 0.0052,0.06364 -0.02053,0.02054 -0.04523,0.02146 -0.06301,0.0023 z"
       id="path2959" />
    <path
       style="fill:#aaaaff;stroke:#000007;stroke-width:0.006572"
       d="m 16.374805,18.292757 c -0.01838,-0.01288 -0.01981,-0.04863 -0.0026,-0.06423 0.01651,-0.01494 0.05069,-0.01378 0.06674,0.0022 0.01676,0.01677 0.01663,0.03315 -5e-4,0.05489 -0.01565,0.01989 -0.04131,0.02274 -0.06368,0.0071 z"
       id="path2998" />
    <path
       style="fill:#aaaaff;stroke:#000007;stroke-width:0.006572"
       d="m 16.584862,18.401095 c -0.01703,-0.0068 -0.02996,-0.03503 -0.02425,-0.05302 0.01551,-0.04884 0.08832,-0.03818 0.08832,0.01293 0,0.03046 -0.03431,0.05192 -0.06407,0.04009 z"
       id="path3037" />
    <path
       style="fill:#aaaaff;stroke:#000007;stroke-width:0.006572"
       d="m 17.106554,16.497051 c -0.03108,-0.01801 -0.05394,-0.06179 -0.04819,-0.09225 0.01331,-0.07041 0.08787,-0.105094 0.145185,-0.06754 0.05848,0.03831 0.05475,0.131502 -0.0064,0.161128 -0.03497,0.01693 -0.05965,0.01656 -0.09055,-0.0014 z"
       id="path3076" />
    <path
       style="fill:#aaaaff;stroke:#000007;stroke-width:0.006572"
       d="m 17.101686,16.10564 c -0.08636,-0.02842 -0.144356,-0.104075 -0.144356,-0.188329 0,-0.06675 0.04916,-0.144759 0.109667,-0.174054 0.04106,-0.01988 0.131994,-0.01998 0.170784,-1.83e-4 0.04234,0.02161 0.06527,0.04476 0.08662,0.08748 0.02856,0.05717 0.02856,0.117373 0,0.174542 -0.03343,0.06689 -0.08531,0.100497 -0.160379,0.10388 -0.02526,0.0012 -0.05331,-3.67e-4 -0.06234,-0.0034 z"
       id="path3115" />
    <path
       style="fill:#aaaaff;stroke:#000007;stroke-width:0.006572"
       d="m 16.384815,15.701765 c -0.0534,-0.01906 -0.103551,-0.07492 -0.116093,-0.129321 -0.02206,-0.09566 0.01322,-0.178868 0.09478,-0.223557 0.03478,-0.01906 0.04511,-0.02155 0.08858,-0.02139 0.120599,4.54e-4 0.204747,0.09108 0.195184,0.210214 -0.0054,0.06755 -0.06092,0.141719 -0.122191,0.163302 -0.03496,0.01231 -0.106783,0.0127 -0.140263,7.86e-4 z"
       id="path3154" />
    <path
       style="fill:#aaaaff;stroke:#000007;stroke-width:0.006572"
       d="m 17.076126,15.503894 c -0.152167,-0.04092 -0.248024,-0.202674 -0.209879,-0.354162 l 0.0073,-0.02915 h 0.277582 0.277582 l 0.0069,0.02133 c 0.02171,0.06784 0.01319,0.146428 -0.02343,0.216264 -0.06229,0.118774 -0.205418,0.180845 -0.336018,0.145725 z"
       id="path3193" />
    <path
       style="fill:#aaaaff;stroke:#000007;stroke-width:0.006572"
       d="m 17.773355,15.698907 c -0.03859,-0.01809 -0.07952,-0.05724 -0.09804,-0.09377 -0.01251,-0.02469 -0.01588,-0.04154 -0.01586,-0.07916 5.5e-5,-0.07317 0.0084,-0.09451 0.05469,-0.139928 0.03164,-0.03104 0.04876,-0.04226 0.07888,-0.05169 0.09012,-0.02824 0.189117,0.01328 0.232074,0.09731 0.023,0.04499 0.02411,0.116148 0.0026,0.164631 -0.01736,0.03908 -0.05322,0.07794 -0.08939,0.09688 -0.03834,0.02007 -0.127719,0.02317 -0.16494,0.0057 z"
       id="path3232" />
    <path
       style="fill:#aaaaff;stroke:#000007;stroke-width:0.006572"
       d="m 18.34833,15.541532 c -0.02342,-0.02323 -0.06259,-0.05953 -0.08704,-0.08067 l -0.04446,-0.03844 h 0.03058 c 0.02971,0 0.03226,-0.0017 0.09039,-0.05919 0.07468,-0.0739 0.147855,-0.129049 0.222682,-0.167819 0.09584,-0.04966 0.141053,-0.0628 0.22909,-0.06657 0.06986,-0.003 0.08202,-0.0017 0.131233,0.01371 0.07398,0.02319 0.129673,0.05743 0.18844,0.115858 0.06358,0.06321 0.106425,0.142638 0.122145,0.226433 l 0.0049,0.02593 -0.03546,-0.03191 c -0.102505,-0.09221 -0.228157,-0.149665 -0.348347,-0.159274 -0.12837,-0.01026 -0.245873,0.04757 -0.389277,0.191617 l -0.07225,0.07256 z"
       id="path3271" />
    <path
       style="fill:#aaaaff;stroke:#000007;stroke-width:0.006572"
       d="m 15.864591,15.538597 c -0.06945,-0.08189 -0.177295,-0.161353 -0.268477,-0.197832 -0.1371,-0.05485 -0.331875,-0.0038 -0.485821,0.127289 -0.02161,0.01841 -0.04034,0.03037 -0.04161,0.02658 -0.0044,-0.01301 0.02623,-0.101773 0.04972,-0.144398 0.02831,-0.05137 0.107909,-0.132195 0.160594,-0.163087 0.07414,-0.04347 0.113356,-0.05541 0.192525,-0.05862 0.05923,-0.0024 0.08277,-4e-4 0.127952,0.01099 0.1153,0.02904 0.239221,0.104393 0.354577,0.215633 0.06892,0.06646 0.07012,0.06726 0.101801,0.06742 l 0.03206,1.59e-4 -0.03609,0.03081 c -0.01985,0.01694 -0.05991,0.05379 -0.08903,0.08186 -0.02912,0.02808 -0.05421,0.05079 -0.05577,0.05046 -0.0016,-3.17e-4 -0.02065,-0.02159 -0.04243,-0.04728 z"
       id="path3310" />
    <path
       style="fill:#333333;stroke:#333333;stroke-width:0.0523927px;stroke-linecap:butt;stroke-linejoin:miter;stroke-opacity:1"
       d="m 19.293626,16.406679 c 0.15098,-0.04623 0.30628,-0.06809 0.523926,0.261963 v 0.523928 c -0.113466,0.15062 -0.256658,0.270483 -0.523926,0.261963"
       id="path7737"
       sodipodi:nodetypes="cccc" />
    <path
       style="fill:#333333;stroke:#333333;stroke-width:0.0523927px;stroke-linecap:butt;stroke-linejoin:miter;stroke-opacity:1"
       d="m 15.102206,17.441643 c -0.150981,0.04623 -0.30628,0.06808 -0.523927,-0.261964 v -0.523928 c 0.113467,-0.15062 0.256658,-0.270484 0.523927,-0.261964"
       id="path4193"
       sodipodi:nodetypes="cccc" />
  </g>
</svg>
