<?xml version="1.0" encoding="UTF-8" standalone="no"?>
<!-- Created with Inkscape (http://www.inkscape.org/) -->

<svg
   width="31.999998"
   height="34.065781"
   viewBox="0 0 8.4666662 9.0132357"
   version="1.1"
   id="svg5"
   inkscape:version="1.1 (c68e22c387, 2021-05-23)"
   sodipodi:docname="32.svg"
   xmlns:inkscape="http://www.inkscape.org/namespaces/inkscape"
   xmlns:sodipodi="http://sodipodi.sourceforge.net/DTD/sodipodi-0.dtd"
   xmlns="http://www.w3.org/2000/svg"
   xmlns:svg="http://www.w3.org/2000/svg">
  <sodipodi:namedview
     id="namedview7"
     pagecolor="#505050"
     bordercolor="#eeeeee"
     borderopacity="1"
     inkscape:pageshadow="0"
     inkscape:pageopacity="0"
     inkscape:pagecheckerboard="false"
     inkscape:document-units="mm"
     showgrid="true"
     units="px"
     inkscape:snap-center="true"
     inkscape:zoom="6.3359375"
     inkscape:cx="14.678175"
     inkscape:cy="18.071517"
     inkscape:window-width="1920"
     inkscape:window-height="1019"
     inkscape:window-x="0"
     inkscape:window-y="30"
     inkscape:window-maximized="1"
     inkscape:current-layer="layer2"
     fit-margin-top="5.3"
     fit-margin-left="2"
     fit-margin-right="2"
     fit-margin-bottom="5.2"
     lock-margins="false">
    <inkscape:grid
       type="xygrid"
       id="grid1111"
       originx="-12.964581"
       originy="-12.161471" />
  </sodipodi:namedview>
  <defs
     id="defs2" />
  <g
     inkscape:groupmode="layer"
     id="layer2"
     inkscape:label="Layer 2"
     transform="translate(-12.964582,-12.161501)">
    <path
       style="fill:#000000;stroke:#000000;stroke-width:0.0733498px;stroke-linecap:butt;stroke-linejoin:miter;stroke-opacity:1"
       d="m 14.632882,18.093742 c 0.156111,0.02707 0.305382,-0.07001 0.36675,-0.36675 v -1.466997 c -0.08543,-0.296649 -0.257259,-0.30295 -0.36675,-0.366749 -0.14661,0.08703 -0.363669,0.0722 -0.366748,0.366749 v 1.466997 c -0.06257,0.358569 0.562773,0.471768 0.366748,0.36675"
       id="path3462"
       sodipodi:nodetypes="ccccccc" />
    <path
       style="fill:#000000;stroke:#000000;stroke-width:0.0733498px;stroke-linecap:butt;stroke-linejoin:miter;stroke-opacity:1"
       d="m 19.767371,18.093742 c 0.156111,0.02707 0.305382,-0.07001 0.366749,-0.36675 v -1.466997 c -0.08543,-0.296649 -0.257258,-0.30295 -0.366749,-0.366749 -0.14661,0.08703 -0.36367,0.0722 -0.366749,0.366749 v 1.466997 c -0.06257,0.358569 0.562774,0.471768 0.366749,0.36675"
       id="path4158"
       sodipodi:nodetypes="ccccccc" />
    <path
       style="fill:none;stroke:#000000;stroke-width:0.277228;stroke-linecap:butt;stroke-linejoin:miter;stroke-miterlimit:4;stroke-dasharray:none;stroke-opacity:1"
       d="m 13.897173,16.645512 0.36675,-2.200495 c 0.296135,-0.258189 1.007804,-0.815664 1.466996,-0.733498 h 2.933994 c 0.452383,0.130357 0.711292,0.01797 1.249008,0.699239 0.03582,0.08673 0.584738,2.234754 0.584738,2.234754"
       id="path7864"
       sodipodi:nodetypes="cccccc" />
  </g>
  <g
     inkscape:label="Layer 1"
     inkscape:groupmode="layer"
     id="layer1"
     transform="translate(-12.964582,-12.161501)">
    <g
       style="overflow:hidden;fill:currentColor"
       id="g1302"
       transform="matrix(0.00654111,0,0,0.00654111,13.785485,13.658983)"
       inkscape:transform-center-x="-5.2464721"
       inkscape:transform-center-y="3.2210565">
      <path
         d="m 688.768,192.04267 h 64 c 0,0 89.216,-108.45867 170.66667,-42.66667 96.44803,77.888 -21.33334,256 -85.33334,255.95733 C 790.4,405.33333 688.768,192.04267 688.768,192.04267 Z m -354.66667,0 h -64 c 0,0 -89.216,-108.45867 -170.666663,-42.66667 -96.448,77.888 21.333333,256 85.333333,255.95733 47.70133,0 149.33333,-213.29066 149.33333,-213.29066 z"
         fill="#996704"
         id="path1209" />
      <path
         d="m 384,853.33333 a 128,85.333333 0 1 0 256,0 128,85.333333 0 1 0 -256,0 z"
         fill="#ffc107"
         id="path1211" />
      <path
         d="m 874.66667,581.33333 c 0,106.048 -170.66667,272 -277.33334,272 -64,0 -85.33333,-42.66666 -85.33333,-42.66666 0,0 -21.33333,42.66666 -85.33333,42.66666 -106.66667,0 -277.33334,-165.952 -277.33334,-272 L 170.66667,384 c 0,-106.048 106.66666,-192 192,-234.66667 0,0 42.66666,-21.33333 85.33333,-21.33333 h 128 c 42.66667,0 85.33333,21.33333 85.33333,21.33333 64,21.33334 192,128.61867 192,234.66667 z"
         fill="#ffc107"
         id="path1213" />
      <path
         d="M 640,597.33333 C 597.33333,554.66667 597.33333,512 597.33333,512 c 0,0 0,-149.33333 106.66667,-149.33333 H 853.33333 C 853.33333,298.66667 725.33333,128 576,128 H 512 448 C 298.66667,128 170.66667,298.66667 170.66667,362.66667 H 320 C 426.66667,362.66667 426.66667,512 426.66667,512 c 0,0 0,42.66667 -42.66667,85.33333 -42.66667,42.66667 -106.66667,85.33334 -106.66667,128 0,42.66667 21.33334,128 149.33334,128 64,0 85.33333,-42.66666 85.33333,-42.66666 0,0 21.33333,42.66666 85.33333,42.66666 128,0 149.33334,-85.33333 149.33334,-128 0,-42.66666 -64,-85.33333 -106.66667,-128 z"
         fill="#d69107"
         id="path1215" />
      <path
         d="m 256,405.33333 c 0,0 0,106.66667 87.104,106.66667 h 62.22933 c 0,0 0,-106.66667 -74.66666,-106.66667 z m 512,0 c 0,0 0,106.66667 -87.104,106.66667 h -62.22933 c 0,0 0,-106.66667 74.66666,-106.66667 z"
         fill="#5d4037"
         id="path1217" />
      <path
         d="m 341.33333,426.66667 m -42.66666,0 a 42.666667,42.666667 0 1 0 85.33333,0 42.666667,42.666667 0 1 0 -85.33333,0 z"
         fill="#eeff41"
         id="path1219" />
      <path
         d="m 682.66667,426.66667 m -42.66667,0 a 42.666667,42.666667 0 1 0 85.33333,0 42.666667,42.666667 0 1 0 -85.33333,0 z"
         fill="#eeff41"
         id="path1221" />
      <path
         d="m 341.33333,426.66667 m -21.33333,0 a 21.333335,21.333335 0 1 0 42.66667,0 21.333335,21.333335 0 1 0 -42.66667,0 z"
         fill="#212121"
         id="path1223" />
      <path
         d="m 682.66667,426.66667 m -21.33334,0 a 21.333335,21.333335 0 1 0 42.66667,0 21.333335,21.333335 0 1 0 -42.66667,0 z"
         fill="#212121"
         id="path1225" />
      <path
         d="m 237.14133,219.11467 8.53334,10.368 A 400.64,400.64 0 0 1 286.4,192.02133 h -16.29867 c 0,0 -52.52266,-63.872 -113.74933,-63.872 -18.58133,0 -37.952,5.86667 -56.917333,21.20534 -21.525333,17.36533 -32.341333,39.744 -35.498667,64 0.02133,0 0.04267,0 0.064,-0.0427 42.66667,-42.66667 81.70667,-42.496 92.33067,-42.496 33.04533,0.0213 70.42133,35.86133 80.81066,48.29867 z M 923.43467,149.376 c -18.96534,-15.33867 -38.336,-21.20533 -56.91734,-21.20533 -61.22666,0 -113.74933,63.872 -113.74933,63.872 H 737.57867 A 395.41333,395.41333 0 0 1 777.728,228.864 l 8,-9.74933 c 10.38933,-12.43734 47.76533,-48.29867 80.81067,-48.29867 10.624,0 49.664,-0.17067 92.33066,42.496 0.0213,0.0427 0.0427,0.0427 0.064,0.0427 C 955.776,189.12 944.96,166.74133 923.43467,149.376 Z M 597.33333,725.33333 C 597.33333,772.45867 512,768 512,810.66667 512,768 426.66667,772.45867 426.66667,725.33333 c 0,-47.12533 38.208,0 85.33333,0 47.12533,0 85.33333,-47.12533 85.33333,0 z"
         fill="#3e2723"
         id="path1227" />
      <path
         d="m 394.66667,778.66667 m -10.66667,0 a 10.666667,10.666667 0 1 0 21.33333,0 10.666667,10.666667 0 1 0 -21.33333,0 z"
         fill="#3e2723"
         id="path1229" />
      <path
         d="m 373.33333,736 m -10.66666,0 A 10.666667,10.666667 0 1 0 384,736 a 10.666667,10.666667 0 1 0 -21.33333,0 z"
         fill="#3e2723"
         id="path1231" />
      <path
         d="m 394.66667,821.33333 m -10.66667,0 a 10.666667,10.666667 0 1 0 21.33333,0 10.666667,10.666667 0 1 0 -21.33333,0 z"
         fill="#3e2723"
         id="path1233" />
      <path
         d="m 352,800 m -10.66667,0 a 10.66667,10.66667 0 1 0 21.33334,0 10.66667,10.66667 0 1 0 -21.33334,0 z"
         fill="#3e2723"
         id="path1235" />
      <path
         d="m 330.66667,757.33333 m -10.66667,0 a 10.666667,10.666667 0 1 0 21.33333,0 10.666667,10.666667 0 1 0 -21.33333,0 z"
         fill="#3e2723"
         id="path1237" />
      <path
         d="m 437.33333,800 m -10.66666,0 A 10.666667,10.666667 0 1 0 448,800 a 10.666667,10.666667 0 1 0 -21.33333,0 z"
         fill="#3e2723"
         id="path1239" />
      <path
         d="m 629.33333,778.66667 m -10.66666,0 a 10.666667,10.666667 0 1 0 21.33333,0 10.666667,10.666667 0 1 0 -21.33333,0 z"
         fill="#3e2723"
         id="path1241" />
      <path
         d="M 650.66667,736 M 640,736 a 10.666667,10.666667 0 1 0 21.33333,0 A 10.666667,10.666667 0 1 0 640,736 Z"
         fill="#3e2723"
         id="path1243" />
      <path
         d="m 629.33333,821.33333 m -10.66666,0 a 10.666667,10.666667 0 1 0 21.33333,0 10.666667,10.666667 0 1 0 -21.33333,0 z"
         fill="#3e2723"
         id="path1245" />
      <path
         d="m 672,800 m -10.66667,0 a 10.66667,10.66667 0 1 0 21.33334,0 10.66667,10.66667 0 1 0 -21.33334,0 z"
         fill="#3e2723"
         id="path1247" />
      <path
         d="m 693.33333,757.33333 m -10.66666,0 a 10.666667,10.666667 0 1 0 21.33333,0 10.666667,10.666667 0 1 0 -21.33333,0 z"
         fill="#3e2723"
         id="path1249" />
      <path
         d="M 586.66667,800 M 576,800 a 10.666667,10.666667 0 1 0 21.33333,0 A 10.666667,10.666667 0 1 0 576,800 Z"
         fill="#3e2723"
         id="path1251" />
      <path
         d="m 512,298.66667 m -42.66667,0 a 42.66667,42.66667 0 1 0 85.33334,0 42.66667,42.66667 0 1 0 -85.33334,0 z"
         fill="#3e2723"
         id="path1253" />
      <path
         d="m 512,405.33333 m -21.33333,0 a 21.333333,21.333333 0 1 0 42.66666,0 21.333333,21.333333 0 1 0 -42.66666,0 z"
         fill="#3e2723"
         id="path1255" />
      <path
         d="M 451.92533,128 A 63.189333,63.189333 0 0 0 448,149.33333 a 64,64 0 0 0 128,0 C 576,141.80267 574.464,134.69867 572.07467,128 Z"
         fill="#3e2723"
         id="path1257" />
      <path
         d="m 661.33333,213.33333 m -42.66666,0 a 42.666667,42.666667 0 1 0 85.33333,0 42.666667,42.666667 0 1 0 -85.33333,0 z"
         fill="#3e2723"
         id="path1259" />
      <path
         d="m 362.66667,213.33333 m -42.66667,0 a 42.666667,42.666667 0 1 0 85.33333,0 42.666667,42.666667 0 1 0 -85.33333,0 z"
         fill="#3e2723"
         id="path1261" />
      <path
         d="m 832,522.66667 a 32,32 0 0 0 32,32 c 2.66667,0 5.20533,-0.42667 7.65867,-1.04534 l -6.784,-62.86933 c -0.29867,0 -0.576,-0.0853 -0.87467,-0.0853 a 32,32 0 0 0 -32,32 z M 832,576 c -35.328,0 -64,28.672 -64,64 a 63.872,63.872 0 0 0 55.12533,63.12533 c 28.11734,-37.76 47.21067,-76.992 50.53867,-111.33866 A 63.402667,63.402667 0 0 0 832,576 Z M 160,554.66667 a 32,32 0 0 0 0,-64 c -0.29867,0 -0.576,0.0853 -0.87467,0.0853 l -6.784,62.86933 c 2.45334,0.61867 4.992,1.04534 7.65867,1.04534 z M 192,576 c -16,0 -30.464,6.08 -41.664,15.78667 3.328,34.32533 22.42133,73.57866 50.53867,111.33866 A 63.872,63.872 0 0 0 256,640 c 0,-35.328 -28.672,-64 -64,-64 z"
         fill="#a36b07"
         id="path1263" />
      <path
         d="m 597.33333,853.33333 c -64,0 -85.33333,-42.66666 -85.33333,-42.66666 0,0 -21.33333,42.66666 -85.33333,42.66666 -43.008,0 -73.77067,-9.74933 -95.936,-24.17066 25.856,29.97333 59.264,65.6 67.968,63.808 9.51466,1.81333 18.88,3.02933 27.968,3.02933 C 463.18933,896 491.456,885.07733 512,871.12533 532.544,885.07733 560.81067,896 597.33333,896 c 9.088,0 18.45334,-1.216 27.968,-3.02933 8.68267,1.792 42.112,-33.83467 67.968,-63.808 -22.16533,14.42133 -52.928,24.17066 -95.936,24.17066 z"
         fill="#996704"
         id="path1265" />
    </g>
    <path
       style="fill:#afdde9;stroke:#000007;stroke-width:0.0092008"
       d="m 18.203505,16.718498 c -0.06222,-0.01201 -0.117002,-0.04273 -0.156778,-0.08791 -0.148526,-0.168734 -0.04072,-0.435074 0.182585,-0.451051 0.09116,-0.0065 0.147553,0.01466 0.212099,0.07968 0.05693,0.05734 0.0824,0.117453 0.0824,0.194447 0,0.162154 -0.161303,0.295521 -0.320309,0.264837 z m 0.118354,-0.144785 c 0.12218,-0.06502 0.07863,-0.252745 -0.06147,-0.264997 -0.147309,-0.01288 -0.210347,0.186333 -0.08345,0.263706 0.03809,0.02323 0.102605,0.0238 0.144911,0.0013 z"
       id="path1417" />
    <path
       style="fill:#afdde9;stroke:#000007;stroke-width:0.0092008"
       d="m 15.971237,16.718498 c -0.132969,-0.02567 -0.224905,-0.134073 -0.225185,-0.265547 -3.04e-4,-0.147292 0.106233,-0.26306 0.251686,-0.273467 0.09065,-0.0065 0.146877,0.01483 0.212675,0.08063 0.06172,0.06172 0.0856,0.124941 0.07942,0.210294 -0.01137,0.157294 -0.165836,0.277571 -0.318597,0.248092 z m 0.118355,-0.144508 c 0.04444,-0.02327 0.07589,-0.08502 0.07036,-0.138164 -0.01378,-0.132245 -0.186068,-0.175501 -0.261115,-0.06555 -0.02708,0.03966 -0.02818,0.111599 -0.0024,0.153958 0.0385,0.06315 0.124972,0.08543 0.193105,0.04976 z"
       id="path1456" />
    <path
       style="fill:#93a7ac;stroke:#000007;stroke-width:0.0092008"
       d="m 15.905723,16.989737 c -0.149926,-0.03247 -0.269294,-0.129907 -0.343556,-0.280444 -0.04602,-0.09328 -0.08225,-0.2213 -0.0927,-0.327536 l -0.0066,-0.0666 h 0.152036 0.152038 l -0.01464,0.03445 c -0.02341,0.0551 -0.01973,0.153717 0.008,0.214004 0.0328,0.07139 0.06488,0.105205 0.130275,0.137401 0.06777,0.03336 0.151621,0.03858 0.225488,0.01405 0.07763,-0.02579 0.151768,-0.105411 0.175614,-0.188621 0.0059,-0.02073 0.0098,-0.01627 0.04017,0.04593 0.0533,0.109325 0.09746,0.286795 0.09746,0.39162 v 0.04014 l -0.231954,-7e-4 c -0.162529,-5.13e-4 -0.249824,-0.0046 -0.291663,-0.01366 z"
       id="path1532" />
    <path
       style="fill:#93a7ac;stroke:#000007;stroke-width:0.0092008"
       d="m 17.839566,16.94212 c 0.0085,-0.08524 0.0292,-0.188268 0.05213,-0.259512 0.01847,-0.05739 0.06797,-0.165353 0.07581,-0.165353 0.0021,0 0.01389,0.02206 0.02623,0.04902 0.07811,0.170609 0.302596,0.219461 0.442516,0.0963 0.08279,-0.07287 0.118128,-0.197885 0.08414,-0.297632 -0.0082,-0.02413 -0.01496,-0.04521 -0.01496,-0.04683 0,-0.0016 0.06738,-0.0029 0.149737,-0.0029 h 0.149738 l -0.0071,0.07318 c -0.02541,0.262848 -0.147717,0.474808 -0.323558,0.56073 -0.09853,0.04815 -0.149894,0.05491 -0.417405,0.055 l -0.223499,7e-5 z"
       id="path1571" />
    <path
       style="fill:#93a7ac;stroke:#000007;stroke-width:0.0092008"
       d="m 17.118458,18.878481 c -0.02196,-0.05301 -0.09168,-0.104344 -0.254037,-0.187035 -0.229499,-0.116889 -0.281008,-0.170968 -0.280065,-0.294029 7.64e-4,-0.09773 0.02296,-0.131279 0.08162,-0.123307 0.0189,0.0025 0.09223,0.02764 0.162969,0.05571 0.157381,0.06245 0.257675,0.0844 0.345971,0.0757 0.08049,-0.0079 0.129238,-0.02231 0.284631,-0.08395 0.126672,-0.05025 0.160214,-0.05732 0.191772,-0.04044 0.03406,0.01823 0.04745,0.127878 0.02372,0.194308 -0.02756,0.07717 -0.09643,0.131676 -0.279183,0.220984 -0.148272,0.07246 -0.213651,0.119317 -0.24085,0.172632 -0.01028,0.02015 -0.02017,0.03664 -0.02198,0.03664 -0.0018,0 -0.0084,-0.01224 -0.01456,-0.02721 z"
       id="path1610" />
    <path
       style="fill:#aaaaff;stroke:#000007;stroke-width:0.0092008"
       d="m 17.999682,18.521297 c -0.02845,-0.02303 -0.02845,-0.07169 0,-0.09473 0.0438,-0.03546 0.104624,-0.0079 0.104624,0.04736 0,0.05529 -0.06083,0.08283 -0.104624,0.04736 z"
       id="path1649" />
    <path
       style="fill:#aaaaff;stroke:#000007;stroke-width:0.0092008"
       d="m 15.610575,18.784787 c -0.18638,-0.151667 -0.513338,-0.499832 -0.489429,-0.521175 0.0046,-0.0041 0.02831,-0.01281 0.05272,-0.01938 0.127326,-0.03427 0.239605,-0.155887 0.277216,-0.300282 0.05476,-0.210273 -0.07137,-0.434571 -0.281094,-0.499845 -0.114165,-0.03553 -0.270577,-0.01496 -0.355836,0.0468 -0.021,0.01522 -0.04089,0.02766 -0.04421,0.02766 -0.0062,0 0.0018,-0.132339 0.01168,-0.193858 l 0.0054,-0.03379 0.05773,-0.0038 c 0.155619,-0.0099 0.244438,-0.166865 0.174193,-0.307827 -0.03133,-0.06287 -0.105241,-0.113078 -0.166454,-0.113078 -0.02158,0 -0.02282,-0.0024 -0.01799,-0.03445 0.0056,-0.03718 0.06651,-0.628289 0.07525,-0.730308 l 0.0053,-0.06201 h 0.530144 c 0.586973,0 0.581708,-4.43e-4 0.705829,0.06014 0.19915,0.09722 0.340385,0.33747 0.397201,0.675665 0.03632,0.216164 0.02522,0.336266 -0.04548,0.492191 -0.07049,0.155468 -0.157206,0.255253 -0.454969,0.523555 -0.273504,0.246444 -0.374657,0.362236 -0.428126,0.490082 -0.04581,0.10955 -0.01633,0.341788 0.06457,0.508566 0.01989,0.04102 0.03497,0.0758 0.03348,0.0773 -0.0015,0.0015 -0.0497,-0.03554 -0.107149,-0.08228 z m 0.827924,-1.8197 c -7.7e-5,-0.114974 -0.05489,-0.327287 -0.109641,-0.424675 -0.01855,-0.03299 -0.02722,-0.06328 -0.03042,-0.106396 -0.0057,-0.07685 -0.03151,-0.134774 -0.08279,-0.186065 -0.111829,-0.111829 -0.302603,-0.104244 -0.408664,0.01625 l -0.03677,0.04177 h -0.157302 -0.157306 l 1.82e-4,0.02526 c 10e-5,0.0139 0.0043,0.0542 0.0094,0.08957 0.03732,0.260194 0.144772,0.444364 0.309831,0.531042 0.09793,0.05143 0.157301,0.05987 0.426967,0.06073 l 0.236547,7.63e-4 -2.8e-5,-0.04823 z"
       id="path1764" />
    <path
       style="fill:#aaaaff;stroke:#000007;stroke-width:0.0092008"
       d="m 18.584231,18.788967 c 0.05209,-0.105557 0.07756,-0.204674 0.08399,-0.326954 0.0067,-0.126742 -0.0091,-0.183142 -0.0814,-0.291499 -0.06493,-0.09729 -0.17211,-0.207584 -0.403116,-0.414808 -0.09864,-0.08848 -0.205722,-0.189408 -0.237962,-0.224276 -0.115537,-0.12495 -0.199762,-0.279522 -0.236081,-0.433259 -0.02408,-0.101929 -0.0041,-0.308546 0.04731,-0.49028 0.08684,-0.306704 0.248958,-0.494141 0.478948,-0.553737 0.04824,-0.01251 0.131762,-0.01459 0.584486,-0.01459 0.589826,0 0.539342,-0.0063 0.53936,0.06735 5e-6,0.02106 0.01654,0.190289 0.03674,0.376065 0.02021,0.185776 0.03674,0.34756 0.03674,0.359519 0,0.01873 -0.0057,0.0226 -0.04137,0.02794 -0.05251,0.0079 -0.111989,0.05241 -0.142286,0.106547 -0.03056,0.0546 -0.03164,0.142688 -0.0025,0.198217 0.03818,0.0726 0.106505,0.113688 0.189056,0.113688 h 0.04949 l 0.0059,0.06201 c 0.0032,0.0341 0.0059,0.08548 0.0059,0.114159 l 5.8e-5,0.05215 -0.05282,-0.03186 c -0.07921,-0.04777 -0.13626,-0.06133 -0.240103,-0.0571 -0.07565,0.0031 -0.09724,0.0078 -0.150659,0.03286 -0.08719,0.04089 -0.163506,0.11599 -0.206705,0.203395 -0.03363,0.06804 -0.03409,0.07048 -0.03409,0.179689 0,0.105605 0.0014,0.113588 0.02953,0.173064 0.04009,0.08464 0.116386,0.163203 0.198279,0.204173 0.03522,0.01761 0.07356,0.03203 0.08521,0.03203 0.01165,0 0.02333,0.0035 0.02594,0.0077 0.01584,0.02563 -0.36164,0.422977 -0.516446,0.543625 -0.04203,0.03276 -0.07978,0.06077 -0.08389,0.06226 -0.0041,0.0015 0.01048,-0.03366 0.0324,-0.07808 z m -0.16999,-1.801446 c 0.229602,-0.07555 0.36108,-0.287939 0.397748,-0.642509 l 0.0041,-0.03904 H 18.65961 18.503132 l -0.04711,-0.04903 c -0.176087,-0.183264 -0.483196,-0.06311 -0.486,0.190141 -3.73e-4,0.03271 -0.007,0.05768 -0.02179,0.08132 -0.02488,0.03989 -0.06056,0.128454 -0.08065,0.200134 -0.01546,0.05518 -0.04172,0.218678 -0.0418,0.260349 l -5.4e-5,0.0261 0.264105,-0.0038 c 0.239914,-0.0034 0.269636,-0.0056 0.32448,-0.02367 z"
       id="path1803" />
    <path
       style="fill:#5555ff;stroke:#000007;stroke-width:0.0092008"
       d="m 16.380054,19.226503 c -0.391641,-0.05359 -0.6418,-0.24878 -0.736165,-0.57441 -0.04893,-0.168855 -0.0454,-0.314879 0.01006,-0.415841 0.0639,-0.11633 0.142902,-0.200213 0.507237,-0.538559 0.190079,-0.176521 0.278402,-0.28223 0.337718,-0.404196 0.06335,-0.13027 0.08065,-0.213938 0.07408,-0.358266 -0.01417,-0.310747 -0.128776,-0.604157 -0.295537,-0.756568 -0.06127,-0.05601 -0.112905,-0.0876 -0.19608,-0.120001 l -0.06081,-0.02369 -0.558066,-0.0027 c -0.518931,-0.0025 -0.558063,-0.0038 -0.558003,-0.01836 1.64e-4,-0.0403 0.03989,-0.174468 0.0758,-0.256058 0.07379,-0.167622 0.18305,-0.335251 0.317429,-0.486991 0.0848,-0.09576 0.245246,-0.252415 0.341608,-0.333545 0.231539,-0.19494 0.547957,-0.355355 0.806072,-0.408657 0.07327,-0.01513 0.277224,-0.03613 0.284102,-0.02925 0.0024,0.0024 -8.2e-5,0.02022 -0.0055,0.03965 -0.01544,0.05558 -0.0119,0.16046 0.0075,0.222793 0.08406,0.27009 0.4038,0.380252 0.641996,0.221192 0.136111,-0.09089 0.207606,-0.261418 0.175563,-0.418743 l -0.01405,-0.06899 0.07412,0.0055 c 0.227036,0.01703 0.407089,0.06792 0.625299,0.176736 0.270808,0.135043 0.575945,0.38962 0.790897,0.659848 0.182334,0.229223 0.315791,0.487502 0.331738,0.642018 l 0.0053,0.05092 h -0.531205 c -0.597719,0 -0.593472,-3.96e-4 -0.725053,0.06746 -0.17003,0.08769 -0.293782,0.269671 -0.362677,0.533342 -0.03828,0.146519 -0.0494,0.22508 -0.0495,0.349977 -8.3e-5,0.100512 0.0025,0.117865 0.02967,0.196728 0.03004,0.08727 0.05465,0.141567 0.08348,0.184221 0.0086,0.01279 0.02773,0.04162 0.04242,0.06406 0.04283,0.06548 0.113054,0.136783 0.361293,0.366863 0.253324,0.234794 0.355258,0.348362 0.41061,0.457475 l 0.03563,0.07024 -9.55e-4,0.11104 c -9.55e-4,0.128055 -0.0162,0.20212 -0.06523,0.317608 -0.0423,0.09966 -0.07751,0.152675 -0.150412,0.226538 -0.160891,0.163008 -0.378861,0.245629 -0.679176,0.257443 -0.114988,0.0046 -0.157439,0.0025 -0.220471,-0.01019 -0.154005,-0.03116 -0.291177,-0.109794 -0.367236,-0.210533 -0.03357,-0.04446 -0.03732,-0.05426 -0.03188,-0.08332 0.0079,-0.04222 0.049,-0.0988 0.09695,-0.133532 0.02071,-0.015 0.102953,-0.06063 0.182773,-0.101412 0.225149,-0.115021 0.270536,-0.165326 0.270821,-0.300169 1.29e-4,-0.0621 -0.0032,-0.07961 -0.01914,-0.101049 -0.03083,-0.04148 -0.06465,-0.03855 -0.215771,0.01865 -0.191212,0.07239 -0.2314,0.08274 -0.320714,0.08267 -0.09117,-7.7e-5 -0.167332,-0.01924 -0.318978,-0.08026 -0.05671,-0.02282 -0.117652,-0.04422 -0.135437,-0.04755 -0.07747,-0.01453 -0.105949,0.01957 -0.105949,0.126898 0,0.137014 0.04663,0.186972 0.293799,0.314811 0.193043,0.09984 0.257378,0.160844 0.257378,0.244037 0,0.0239 -0.01245,0.04137 -0.07119,0.09992 -0.07726,0.07699 -0.174604,0.132832 -0.282478,0.162035 -0.06586,0.01783 -0.299469,0.02501 -0.393772,0.01211 z m 0.0424,-0.14732 c 0.04016,-0.04836 0.0064,-0.118377 -0.05711,-0.118377 -0.05748,0 -0.08815,0.05032 -0.06357,0.104275 0.02052,0.04504 0.0884,0.05297 0.120669,0.0141 z m 1.534111,0 c 0.02184,-0.02631 0.02068,-0.07703 -0.0023,-0.100004 -0.02297,-0.02297 -0.0737,-0.02414 -0.100004,-0.0024 -0.01065,0.0088 -0.02192,0.02934 -0.02506,0.04556 -0.0048,0.02484 -0.0011,0.03405 0.02331,0.05849 0.02443,0.02443 0.03365,0.02811 0.0585,0.02331 0.01622,-0.0032 0.03673,-0.01441 0.04556,-0.02506 z m -1.814294,-0.142597 c 0.05055,-0.0556 -0.008,-0.137445 -0.08023,-0.112249 -0.03135,0.01093 -0.04609,0.0321 -0.04609,0.06622 0,0.03664 0.01005,0.0531 0.04041,0.06625 0.03497,0.01513 0.05888,0.0095 0.0859,-0.02022 z m 0.559355,0.0045 c 0.02279,-0.02519 0.02084,-0.07699 -0.0039,-0.101657 -0.02703,-0.02703 -0.08235,-0.02589 -0.105081,0.0022 -0.02003,0.02473 -0.02123,0.07151 -0.0025,0.09821 0.02281,0.03256 0.0825,0.03322 0.111441,0.0013 z m 0.974755,-0.0045 c 0.02433,-0.02676 0.02636,-0.05543 0.0059,-0.08455 -0.04189,-0.0598 -0.13169,-0.03261 -0.13169,0.03987 0,0.03272 0.01579,0.05595 0.04618,0.06798 0.02943,0.01165 0.05444,0.0043 0.07955,-0.02331 z m 0.562866,-0.0011 c 0.04587,-0.05832 -0.01184,-0.135869 -0.08273,-0.111155 -0.03135,0.01093 -0.04608,0.0321 -0.04608,0.06622 0,0.03633 0.01,0.05311 0.03889,0.06526 0.03587,0.01507 0.06775,0.0079 0.08992,-0.02032 z m -1.82198,-0.132453 c 0.05814,-0.05462 -0.0057,-0.148518 -0.08001,-0.117728 -0.04526,0.01875 -0.05814,0.0735 -0.02667,0.113498 0.02465,0.03133 0.07567,0.03336 0.10668,0.0042 z m 1.536998,0.0017 c 0.02297,-0.02297 0.02414,-0.0737 0.0024,-0.100004 -0.0088,-0.01065 -0.02934,-0.02192 -0.04556,-0.02506 -0.02484,-0.0048 -0.03406,-0.0011 -0.05849,0.02331 -0.02443,0.02443 -0.0281,0.03364 -0.02331,0.0585 0.0032,0.01622 0.01441,0.03673 0.02506,0.04556 0.02631,0.02184 0.07703,0.02068 0.100004,-0.0024 z m -1.959774,-0.13301 c 0.04096,-0.02869 0.03394,-0.102225 -0.01173,-0.123037 -0.03298,-0.01503 -0.05302,-0.01287 -0.08038,0.0087 -0.05008,0.03939 -0.01945,0.127941 0.04425,0.127941 0.01568,0 0.03721,-0.0061 0.04787,-0.01357 z m 2.378166,-0.009 c 0.01421,-0.01421 0.02255,-0.03305 0.02255,-0.05095 0,-0.01789 -0.0083,-0.03673 -0.02255,-0.05094 -0.06703,-0.06703 -0.169382,0.03406 -0.104458,0.10317 0.02736,0.02913 0.07462,0.02855 0.104458,-0.0013 z m -2.094473,-0.137794 c 0.04556,-0.04556 0.01328,-0.124433 -0.05094,-0.124433 -0.03777,0 -0.07349,0.03573 -0.07349,0.07349 0,0.03777 0.03573,0.07349 0.07349,0.07349 0.01789,0 0.03672,-0.0083 0.05094,-0.02255 z m 1.803223,0.0078 c 0.0598,-0.04189 0.03261,-0.13169 -0.03987,-0.13169 -0.07248,0 -0.09967,0.08981 -0.03987,0.13169 0.01155,0.0081 0.0295,0.01471 0.03987,0.01471 0.01039,0 0.02832,-0.0066 0.03987,-0.01471 z m -0.880602,-2.095832 c 0.04754,-0.02388 0.07367,-0.06868 0.07367,-0.126297 0,-0.15121 -0.201709,-0.197943 -0.267526,-0.06198 -0.05942,0.122745 0.0714,0.249802 0.193853,0.188279 z m 0.03933,-0.562616 c 0.02825,-0.01057 0.06593,-0.03489 0.08892,-0.05741 0.141746,-0.138833 0.10519,-0.371867 -0.07203,-0.459191 -0.03443,-0.01696 -0.05757,-0.02081 -0.124932,-0.02081 -0.07448,0 -0.08756,0.0027 -0.131905,0.02726 -0.158344,0.0877 -0.19652,0.297301 -0.07913,0.434447 0.01791,0.02093 0.05734,0.05021 0.08867,0.06587 0.07008,0.03502 0.153591,0.03858 0.230417,0.0099 z m -0.964488,-0.562584 c 0.05824,-0.02474 0.128909,-0.102402 0.149451,-0.16425 0.02319,-0.06982 0.01518,-0.16464 -0.01925,-0.227898 -0.110928,-0.20381 -0.409481,-0.192901 -0.504319,0.01844 -0.02286,0.05095 -0.02512,0.06474 -0.02145,0.131439 0.0046,0.08462 0.02449,0.132458 0.07647,0.184446 0.0832,0.0832 0.206687,0.105579 0.319102,0.05783 z m 1.937392,0.006 c 0.05855,-0.01912 0.120664,-0.07628 0.151788,-0.139663 0.0344,-0.07007 0.03597,-0.175962 0.0036,-0.242979 -0.08346,-0.172653 -0.30564,-0.216646 -0.446049,-0.08832 -0.06516,0.05956 -0.09091,0.118721 -0.09133,0.209907 -3.97e-4,0.08218 0.02316,0.139285 0.08142,0.197457 0.08066,0.08055 0.182654,0.102128 0.300603,0.06359 z"
       id="path1879" />
    <path
       style="fill:#5f5fd3;stroke:#000007;stroke-width:0.0092008"
       d="m 19.107023,18.236922 c -0.07191,-0.02484 -0.126055,-0.06067 -0.17993,-0.119063 -0.06364,-0.06898 -0.09156,-0.126165 -0.100254,-0.205395 -0.01742,-0.158661 0.01742,-0.263599 0.120006,-0.361445 0.136628,-0.13032 0.333956,-0.152711 0.495598,-0.05623 0.04881,0.02914 0.05043,0.03137 0.04768,0.06601 -0.0084,0.10549 -0.07781,0.296075 -0.161648,0.443536 -0.05798,0.101986 -0.152774,0.242248 -0.166221,0.245964 -0.005,0.0014 -0.02991,-0.0046 -0.05524,-0.01337 z"
       id="path2033" />
    <path
       style="fill:#5f5fd3;stroke:#000007;stroke-width:0.0092008"
       d="m 19.364359,17.266029 c -0.08767,-0.03073 -0.143984,-0.137232 -0.123376,-0.233322 0.01644,-0.07668 0.106243,-0.157187 0.175336,-0.157187 h 0.02319 l 0.02001,0.190616 c 0.01102,0.104838 0.01994,0.195782 0.01984,0.202098 -2.34e-4,0.01558 -0.06797,0.01429 -0.115007,-0.0022 z"
       id="path2072" />
    <path
       style="fill:#5f5fd3;stroke:#000007;stroke-width:0.0092008"
       d="m 15.031208,18.150587 c -0.124609,-0.188877 -0.192972,-0.333176 -0.233458,-0.492776 -0.03001,-0.118277 -0.02936,-0.124131 0.0171,-0.155755 0.158267,-0.107721 0.392756,-0.0798 0.524451,0.06245 0.0899,0.0971 0.130645,0.224702 0.109047,0.341483 -0.03156,0.170634 -0.159703,0.307694 -0.319979,0.342237 -0.02817,0.0061 -0.02988,0.0043 -0.09716,-0.09764 z"
       id="path2111" />
    <path
       style="fill:#5f5fd3;stroke:#000007;stroke-width:0.0092008"
       d="m 14.789281,17.246572 c 0.0027,-0.01966 0.0112,-0.09569 0.01887,-0.168953 0.02178,-0.207991 0.02034,-0.202099 0.04924,-0.202099 0.01367,0 0.04724,0.01343 0.07458,0.02985 0.03835,0.02303 0.05559,0.04113 0.07538,0.07913 0.07021,0.134816 -0.01214,0.278698 -0.167564,0.292792 l -0.05544,0.005 z"
       id="path2150" />
    <path
       style="fill:#5f5fd3;stroke:#000007;stroke-width:0.0092008"
       d="m 14.822705,16.25076 c -0.09808,-0.05406 -0.206515,-0.152159 -0.299854,-0.271262 -0.200994,-0.256474 -0.316921,-0.552661 -0.319008,-0.815046 -7.63e-4,-0.09719 -3.29e-4,-0.09936 0.02608,-0.127167 0.08549,-0.09004 0.275193,-0.202379 0.394315,-0.233508 0.08972,-0.02345 0.201851,-0.02749 0.270846,-0.0098 0.06774,0.0174 0.173809,0.0718 0.248179,0.12727 0.05939,0.0443 0.173999,0.15295 0.212876,0.201814 l 0.0273,0.03433 -0.09299,0.10807 c -0.143902,0.167249 -0.257469,0.342669 -0.316775,0.489301 -0.01328,0.03284 -0.02805,0.06798 -0.03281,0.07808 -0.02185,0.04638 -0.03873,0.136064 -0.04063,0.215877 -0.0025,0.10751 -0.01435,0.229715 -0.02217,0.229491 -0.0032,-9.4e-5 -0.02811,-0.01246 -0.05537,-0.02748 z"
       id="path2189" />
    <path
       style="fill:#5f5fd3;stroke:#000007;stroke-width:0.0092008"
       d="m 19.384149,16.262783 c -0.0052,-0.01831 -0.01464,-0.141999 -0.0195,-0.255782 -0.0038,-0.08745 -0.03182,-0.178013 -0.09289,-0.299617 -0.08383,-0.166914 -0.199803,-0.336285 -0.327695,-0.478576 l -0.06405,-0.07126 0.024,-0.03147 c 0.101475,-0.133041 0.292587,-0.275478 0.432791,-0.322564 0.06614,-0.02221 0.08223,-0.02415 0.16076,-0.01937 0.18145,0.01107 0.338961,0.08123 0.502949,0.224039 l 0.05741,0.05 v 0.09447 c 0,0.05196 -0.0064,0.131189 -0.0142,0.17606 -0.06143,0.352916 -0.335482,0.771834 -0.602818,0.921447 -0.04723,0.02643 -0.05249,0.0276 -0.05676,0.01261 z"
       id="path2228" />
    <path
       style="fill:#5f5fd3;stroke:#000007;stroke-width:0.0092008"
       d="m 17.848713,16.943107 c 0.0158,-0.135879 0.05629,-0.286252 0.09916,-0.368195 l 0.0203,-0.0388 0.02661,0.05082 c 0.04887,0.09334 0.146602,0.150792 0.256504,0.150792 0.07796,0 0.134662,-0.02103 0.18934,-0.07018 0.08413,-0.07564 0.120775,-0.198488 0.08936,-0.29957 l -0.01356,-0.04364 h 0.138243 0.138243 l -0.0057,0.0666 c -0.015,0.17602 -0.08846,0.348011 -0.193658,0.453425 -0.06724,0.06738 -0.120197,0.100018 -0.207556,0.127911 -0.04126,0.01317 -0.09574,0.01692 -0.297043,0.02038 l -0.246517,0.0043 z"
       id="path2267" />
    <path
       style="fill:#5f5fd3;stroke:#000007;stroke-width:0.0092008"
       d="m 15.956248,16.986056 c -0.117876,-0.01363 -0.22334,-0.06859 -0.301699,-0.157244 -0.08249,-0.09333 -0.157268,-0.283406 -0.175862,-0.447055 l -0.0065,-0.05741 h 0.139315 0.139316 l -0.0075,0.02067 c -0.0041,0.01137 -0.0074,0.05994 -0.0073,0.107939 2.17e-4,0.07635 0.0032,0.09312 0.02468,0.134028 0.06252,0.119694 0.210898,0.178301 0.349436,0.138026 0.06187,-0.01799 0.141838,-0.08624 0.167365,-0.142845 0.0093,-0.02053 0.01978,-0.03734 0.02338,-0.03734 0.0083,0 0.05132,0.09546 0.06911,0.153359 0.02484,0.08087 0.04145,0.161661 0.04719,0.229564 l 0.0057,0.06721 -0.205743,-0.0013 c -0.113159,-7e-4 -0.230546,-0.0041 -0.26086,-0.0076 z"
       id="path2306" />
    <path
       style="fill:#afafe9;stroke:#000007;stroke-width:0.0092008"
       d="m 17.114319,18.855085 c -0.02289,-0.04251 -0.08869,-0.0884 -0.256097,-0.178619 -0.225678,-0.121618 -0.269951,-0.172003 -0.261925,-0.298069 0.0041,-0.06335 0.02314,-0.09737 0.05468,-0.09737 0.0092,0 0.07815,0.02246 0.153279,0.0499 0.300426,0.109737 0.363106,0.11091 0.627184,0.01173 0.158265,-0.05944 0.184879,-0.06615 0.209645,-0.0529 0.02451,0.01311 0.04092,0.07637 0.03431,0.1323 -0.01182,0.100168 -0.07333,0.157512 -0.286086,0.266732 -0.1388,0.07125 -0.196587,0.111252 -0.232642,0.161022 l -0.02592,0.03578 z"
       id="path2345" />
    <path
       style="fill:#afafe9;stroke:#000007;stroke-width:0.0092008"
       d="m 16.996339,19.786762 c -0.204954,-0.02167 -0.411561,-0.108743 -0.541511,-0.228233 l -0.04563,-0.04195 0.173125,-6.07e-4 c 0.157482,-5.6e-4 0.181425,-0.0028 0.264988,-0.02514 0.0533,-0.01423 0.133853,-0.04567 0.191891,-0.07488 l 0.100029,-0.05034 0.052,0.03048 c 0.06458,0.03785 0.154605,0.07421 0.246876,0.0997 0.05993,0.01656 0.09684,0.01961 0.243904,0.02015 l 0.173291,6.37e-4 -0.06134,0.05699 c -0.04431,0.04116 -0.08988,0.07115 -0.164105,0.107987 -0.189701,0.09415 -0.403017,0.129577 -0.633522,0.105213 z"
       id="path2421" />
    <path
       style="fill:#5f5fd3;stroke:#000007;stroke-width:0.0092008"
       d="m 16.411141,19.497605 c -0.03963,-0.0072 -0.06555,-0.01912 -0.09821,-0.04514 -0.07522,-0.05996 -0.338478,-0.33549 -0.320547,-0.33549 0.0032,0 0.02619,0.01032 0.05109,0.02295 0.116538,0.05905 0.265705,0.09227 0.454761,0.101268 0.199494,0.0095 0.327542,-0.01777 0.460321,-0.09799 0.0534,-0.03226 0.157509,-0.12964 0.167813,-0.15696 0.0049,-0.01294 0.01198,-0.0079 0.03801,0.02722 0.03695,0.04979 0.120459,0.119582 0.176829,0.147792 0.17626,0.0882 0.329696,0.103166 0.622238,0.06067 0.06271,-0.0091 0.186423,-0.0467 0.252935,-0.07686 0.03266,-0.01481 0.0594,-0.02332 0.0594,-0.01891 0,0.01465 -0.325604,0.338119 -0.35496,0.352634 -0.04698,0.02323 -0.117602,0.02891 -0.292673,0.02355 -0.189429,-0.0058 -0.235175,-0.01731 -0.40658,-0.102414 -0.08449,-0.04194 -0.0959,-0.0454 -0.110237,-0.03336 -0.02904,0.02439 -0.182097,0.08946 -0.265087,0.112706 -0.0688,0.01928 -0.105114,0.02328 -0.231432,0.02549 -0.0824,0.0014 -0.174057,-0.0018 -0.203674,-0.0071 z"
       id="path2460" />
    <path
       style="fill:#aaaaff;stroke:#000007;stroke-width:0.0092008"
       d="m 18.275784,18.65766 c -0.01011,-0.01011 -0.01837,-0.0289 -0.01837,-0.04176 0,-0.02827 0.03776,-0.06848 0.0643,-0.06848 0.02479,0 0.0643,0.03952 0.0643,0.0643 0,0.02654 -0.04021,0.0643 -0.06848,0.0643 -0.01285,0 -0.03165,-0.0083 -0.04176,-0.01837 z"
       id="path2610" />
    <path
       style="fill:#aaaaff;stroke:#000007;stroke-width:0.0092008"
       d="m 18.140286,18.937636 c -0.02598,-0.01837 -0.02812,-0.06829 -0.0039,-0.09023 0.02097,-0.01898 0.06922,-0.01973 0.08759,-0.0014 0.05518,0.05518 -0.01956,0.136973 -0.08372,0.09161 z"
       id="path2686" />
    <path
       style="fill:#aaaaff;stroke:#000007;stroke-width:0.0092008"
       d="m 17.863106,19.074818 c -0.03413,-0.02872 -0.03577,-0.05222 -0.0057,-0.08228 0.02731,-0.02731 0.06286,-0.02901 0.08769,-0.0042 0.02482,0.02482 0.02313,0.06037 -0.0042,0.08769 -0.02857,0.02857 -0.04264,0.02834 -0.0778,-0.0013 z"
       id="path2725" />
    <path
       style="fill:#aaaaff;stroke:#000007;stroke-width:0.0092008"
       d="m 17.857391,18.791278 c -0.02934,-0.02934 -0.02848,-0.05101 0.0032,-0.08137 0.03195,-0.0306 0.05132,-0.03112 0.08029,-0.0021 0.02731,0.02731 0.029,0.06286 0.0042,0.08769 -0.02482,0.02483 -0.06037,0.02314 -0.08769,-0.0042 z"
       id="path2764" />
    <path
       style="fill:#aaaaff;stroke:#000007;stroke-width:0.0092008"
       d="m 17.574457,18.934821 c -0.01911,-0.02111 -0.01948,-0.05568 -9.54e-4,-0.08221 0.01961,-0.02801 0.06763,-0.02758 0.09433,8.27e-4 0.02494,0.02656 0.02516,0.04317 9.55e-4,0.07396 -0.02307,0.02934 -0.0711,0.03311 -0.09437,0.0074 z"
       id="path2803" />
    <path
       style="fill:#aaaaff;stroke:#000007;stroke-width:0.0092008"
       d="m 16.599808,18.931203 c -0.03112,-0.04444 -0.0062,-0.099 0.04528,-0.099 0.01703,0 0.03747,0.0065 0.0454,0.01444 0.01861,0.01861 0.01861,0.07195 0,0.09055 -0.02196,0.02195 -0.0735,0.01856 -0.09069,-0.0059 z"
       id="path2842" />
    <path
       style="fill:#aaaaff;stroke:#000007;stroke-width:0.0092008"
       d="m 16.319772,18.789621 c -0.02326,-0.02957 -0.02408,-0.05048 -0.0029,-0.07543 0.02674,-0.0316 0.06192,-0.03449 0.0891,-0.0073 0.02875,0.02874 0.03004,0.06332 0.0032,0.08821 -0.02837,0.02644 -0.06619,0.02411 -0.08947,-0.0055 z"
       id="path2881" />
    <path
       style="fill:#aaaaff;stroke:#000007;stroke-width:0.0092008"
       d="m 16.185487,18.51569 c -0.02861,-0.02861 -0.02861,-0.0549 0,-0.08351 0.02961,-0.02961 0.06293,-0.02897 0.08702,0.0017 0.02402,0.03053 0.02402,0.04966 0,0.0802 -0.02409,0.03064 -0.05741,0.03127 -0.08702,0.0017 z"
       id="path2920" />
    <path
       style="fill:#aaaaff;stroke:#000007;stroke-width:0.0092008"
       d="m 15.90608,18.655928 c -0.02482,-0.02664 -0.02375,-0.06383 0.0025,-0.08853 0.0257,-0.02415 0.05285,-0.02549 0.07838,-0.0039 0.03159,0.02674 0.03448,0.06192 0.0073,0.0891 -0.02874,0.02875 -0.06332,0.03004 -0.08821,0.0032 z"
       id="path2959" />
    <path
       style="fill:#aaaaff;stroke:#000007;stroke-width:0.0092008"
       d="m 16.045561,18.93732 c -0.02573,-0.01803 -0.02774,-0.06808 -0.0036,-0.08992 0.02311,-0.02092 0.07097,-0.01929 0.09344,0.0031 0.02347,0.02348 0.02328,0.04641 -7e-4,0.07685 -0.02191,0.02785 -0.05783,0.03184 -0.08915,0.0099 z"
       id="path2998" />
    <path
       style="fill:#aaaaff;stroke:#000007;stroke-width:0.0092008"
       d="m 16.339641,19.088993 c -0.02385,-0.0095 -0.04194,-0.04904 -0.03395,-0.07423 0.02171,-0.06838 0.123646,-0.05345 0.123646,0.0181 0,0.04264 -0.04803,0.07269 -0.0897,0.05612 z"
       id="path3037" />
    <path
       style="fill:#aaaaff;stroke:#000007;stroke-width:0.0092008"
       d="m 17.070009,16.423332 c -0.04351,-0.02522 -0.07552,-0.0865 -0.06747,-0.129146 0.01863,-0.09857 0.12302,-0.147132 0.203259,-0.09456 0.08187,0.05364 0.07665,0.184103 -0.009,0.225579 -0.04896,0.0237 -0.08351,0.02319 -0.126768,-0.0019 z"
       id="path3076" />
    <path
       style="fill:#aaaaff;stroke:#000007;stroke-width:0.0092008"
       d="m 17.063194,15.875357 c -0.12091,-0.03979 -0.202098,-0.145706 -0.202098,-0.263661 0,-0.09345 0.06882,-0.202663 0.153533,-0.243675 0.05749,-0.02783 0.184792,-0.02797 0.239098,-2.57e-4 0.05928,0.03025 0.09138,0.06266 0.121268,0.122471 0.03999,0.08004 0.03999,0.164322 0,0.244359 -0.0468,0.09365 -0.119427,0.140696 -0.22453,0.145431 -0.03537,0.0017 -0.07464,-5.13e-4 -0.08727,-0.0047 z"
       id="path3115" />
    <path
       style="fill:#aaaaff;stroke:#000007;stroke-width:0.0092008"
       d="m 16.059575,15.309931 c -0.07476,-0.02668 -0.144972,-0.10489 -0.162531,-0.181049 -0.03088,-0.133917 0.01851,-0.250415 0.132693,-0.31298 0.04869,-0.02668 0.06316,-0.03017 0.124016,-0.02995 0.168838,6.36e-4 0.286646,0.127506 0.273257,0.2943 -0.0076,0.09457 -0.08529,0.198406 -0.171067,0.228623 -0.04894,0.01724 -0.149496,0.01778 -0.196368,0.0011 z"
       id="path3154" />
    <path
       style="fill:#aaaaff;stroke:#000007;stroke-width:0.0092008"
       d="m 17.02741,15.032912 c -0.213034,-0.05729 -0.347234,-0.283744 -0.293831,-0.495826 l 0.01028,-0.04081 h 0.388614 0.388615 l 0.0096,0.02986 c 0.03039,0.09498 0.01847,0.205 -0.0328,0.302769 -0.08721,0.166284 -0.287584,0.253184 -0.470424,0.204015 z"
       id="path3193" />
    <path
       style="fill:#aaaaff;stroke:#000007;stroke-width:0.0092008"
       d="m 18.003531,15.30593 c -0.05403,-0.02532 -0.111328,-0.08013 -0.13725,-0.131281 -0.01751,-0.03456 -0.02224,-0.05816 -0.0222,-0.110818 7.6e-5,-0.102438 0.01175,-0.132309 0.07657,-0.195899 0.0443,-0.04346 0.06826,-0.05916 0.110426,-0.07237 0.126173,-0.03953 0.264764,0.01859 0.324904,0.136235 0.0322,0.06299 0.03376,0.162607 0.0036,0.230484 -0.0243,0.05471 -0.0745,0.109109 -0.125141,0.135625 -0.05367,0.0281 -0.178807,0.03244 -0.230916,0.008 z"
       id="path3232" />
    <path
       style="fill:#aaaaff;stroke:#000007;stroke-width:0.0092008"
       d="m 18.808495,15.085606 c -0.03279,-0.03252 -0.08763,-0.08334 -0.121861,-0.112944 l -0.06224,-0.05382 h 0.04281 c 0.0416,0 0.04516,-0.0024 0.126546,-0.08287 0.104552,-0.103463 0.206996,-0.180669 0.311754,-0.234947 0.134181,-0.06952 0.197475,-0.08792 0.320726,-0.0932 0.09781,-0.0042 0.114833,-0.0024 0.183726,0.01919 0.103575,0.03247 0.181542,0.08041 0.263816,0.162201 0.08901,0.08849 0.148996,0.199693 0.171004,0.317007 l 0.0068,0.0363 -0.04965,-0.04467 c -0.143507,-0.1291 -0.31942,-0.209531 -0.487686,-0.222983 -0.179718,-0.01436 -0.344222,0.0666 -0.544988,0.268264 l -0.101143,0.101591 z"
       id="path3271" />
    <path
       style="fill:#aaaaff;stroke:#000007;stroke-width:0.0092008"
       d="m 15.331261,15.081496 c -0.09723,-0.114642 -0.248212,-0.225894 -0.375868,-0.276964 -0.19194,-0.07679 -0.464625,-0.0053 -0.680149,0.178204 -0.03026,0.02577 -0.05648,0.04252 -0.05825,0.03721 -0.0061,-0.01822 0.03672,-0.142483 0.06961,-0.202158 0.03964,-0.07192 0.151072,-0.185073 0.224831,-0.228321 0.103789,-0.06086 0.158699,-0.07757 0.269535,-0.08207 0.08292,-0.0034 0.115885,-5.6e-4 0.179133,0.01539 0.16142,0.04065 0.33491,0.146151 0.496408,0.301887 0.09649,0.09305 0.09817,0.09416 0.142521,0.09438 l 0.04488,2.23e-4 -0.05053,0.04313 c -0.02779,0.02372 -0.08388,0.0753 -0.124642,0.114605 -0.04077,0.03931 -0.0759,0.0711 -0.07808,0.07065 -0.0022,-4.44e-4 -0.02891,-0.03023 -0.0594,-0.06619 z"
       id="path3310" />
    <path
       style="fill:#333333;stroke:#333333;stroke-width:0.0733498px;stroke-linecap:butt;stroke-linejoin:miter;stroke-opacity:1"
       d="m 20.13191,16.296811 c 0.211372,-0.06472 0.428792,-0.09532 0.733497,0.366749 v 0.733498 c -0.158853,0.210868 -0.359322,0.378676 -0.733497,0.366749"
       id="path7737"
       sodipodi:nodetypes="cccc" />
    <path
       style="fill:#333333;stroke:#333333;stroke-width:0.0733498px;stroke-linecap:butt;stroke-linejoin:miter;stroke-opacity:1"
       d="m 14.263923,17.74576 c -0.211374,0.06472 -0.428793,0.09532 -0.733499,-0.366749 v -0.733499 c 0.158854,-0.210868 0.359322,-0.378677 0.733499,-0.366749"
       id="path4193"
       sodipodi:nodetypes="cccc" />
  </g>
</svg>
