<?xml version="1.0" encoding="UTF-8" standalone="no"?>
<!-- Created with Inkscape (http://www.inkscape.org/) -->

<svg
   width="48"
   height="48.031914"
   viewBox="0 0 12.7 12.708441"
   version="1.1"
   id="svg5"
   inkscape:version="1.1 (c68e22c387, 2021-05-23)"
   sodipodi:docname="48.svg"
   xmlns:inkscape="http://www.inkscape.org/namespaces/inkscape"
   xmlns:sodipodi="http://sodipodi.sourceforge.net/DTD/sodipodi-0.dtd"
   xmlns="http://www.w3.org/2000/svg"
   xmlns:svg="http://www.w3.org/2000/svg">
  <sodipodi:namedview
     id="namedview7"
     pagecolor="#505050"
     bordercolor="#eeeeee"
     borderopacity="1"
     inkscape:pageshadow="0"
     inkscape:pageopacity="0"
     inkscape:pagecheckerboard="false"
     inkscape:document-units="mm"
     showgrid="true"
     units="px"
     inkscape:snap-center="true"
     inkscape:zoom="6.3359375"
     inkscape:cx="22.727497"
     inkscape:cy="25.01603"
     inkscape:window-width="1920"
     inkscape:window-height="1019"
     inkscape:window-x="0"
     inkscape:window-y="30"
     inkscape:window-maximized="1"
     inkscape:current-layer="layer2"
     fit-margin-top="5.5"
     fit-margin-left="2"
     fit-margin-right="2"
     fit-margin-bottom="5.5"
     lock-margins="false">
    <inkscape:grid
       type="xygrid"
       id="grid1111"
       originx="-10.847914"
       originy="-10.327103" />
  </sodipodi:namedview>
  <defs
     id="defs2" />
  <g
     inkscape:groupmode="layer"
     id="layer2"
     inkscape:label="Layer 2"
     transform="translate(-10.847915,-10.327125)">
    <path
       style="fill:#000000;stroke:#000000;stroke-width:0.115264px;stroke-linecap:butt;stroke-linejoin:miter;stroke-opacity:1"
       d="m 13.167149,18.900825 c 0.245317,0.04254 0.479886,-0.110011 0.576321,-0.576321 v -2.305281 c -0.134242,-0.466163 -0.404264,-0.476065 -0.576321,-0.57632 -0.230388,0.136756 -0.57148,0.113452 -0.576319,0.57632 v 2.305281 c -0.09833,0.563465 0.884358,0.741349 0.576319,0.576321"
       id="path3462"
       sodipodi:nodetypes="ccccccc" />
    <path
       style="fill:#000000;stroke:#000000;stroke-width:0.115264px;stroke-linecap:butt;stroke-linejoin:miter;stroke-opacity:1"
       d="m 21.235632,18.900825 c 0.245317,0.04254 0.479885,-0.110011 0.57632,-0.576321 v -2.305281 c -0.134242,-0.466163 -0.404263,-0.476065 -0.57632,-0.57632 -0.230388,0.136756 -0.571482,0.113452 -0.57632,0.57632 v 2.305281 c -0.09833,0.563465 0.884359,0.741349 0.57632,0.576321"
       id="path4158"
       sodipodi:nodetypes="ccccccc" />
    <path
       style="fill:none;stroke:#000000;stroke-width:0.435644;stroke-linecap:butt;stroke-linejoin:miter;stroke-miterlimit:4;stroke-dasharray:none;stroke-opacity:1"
       d="m 12.011034,16.625035 0.576321,-3.457921 c 0.465356,-0.405725 1.583692,-1.281757 2.305281,-1.152639 h 4.610561 c 0.710888,0.204846 1.117745,0.02824 1.962728,1.098804 0.05628,0.136291 0.918873,3.511756 0.918873,3.511756"
       id="path7864"
       sodipodi:nodetypes="cccccc" />
  </g>
  <g
     inkscape:label="Layer 1"
     inkscape:groupmode="layer"
     id="layer1"
     transform="translate(-10.847915,-10.327125)">
    <g
       style="overflow:hidden;fill:currentColor"
       id="g1302"
       transform="matrix(0.01027888,0,0,0.01027888,11.835524,11.931918)"
       inkscape:transform-center-x="-8.244452"
       inkscape:transform-center-y="5.0616564">
      <path
         d="m 688.768,192.04267 h 64 c 0,0 89.216,-108.45867 170.66667,-42.66667 96.44803,77.888 -21.33334,256 -85.33334,255.95733 C 790.4,405.33333 688.768,192.04267 688.768,192.04267 Z m -354.66667,0 h -64 c 0,0 -89.216,-108.45867 -170.666663,-42.66667 -96.448,77.888 21.333333,256 85.333333,255.95733 47.70133,0 149.33333,-213.29066 149.33333,-213.29066 z"
         fill="#996704"
         id="path1209" />
      <path
         d="m 384,853.33333 a 128,85.333333 0 1 0 256,0 128,85.333333 0 1 0 -256,0 z"
         fill="#ffc107"
         id="path1211" />
      <path
         d="m 874.66667,581.33333 c 0,106.048 -170.66667,272 -277.33334,272 -64,0 -85.33333,-42.66666 -85.33333,-42.66666 0,0 -21.33333,42.66666 -85.33333,42.66666 -106.66667,0 -277.33334,-165.952 -277.33334,-272 L 170.66667,384 c 0,-106.048 106.66666,-192 192,-234.66667 0,0 42.66666,-21.33333 85.33333,-21.33333 h 128 c 42.66667,0 85.33333,21.33333 85.33333,21.33333 64,21.33334 192,128.61867 192,234.66667 z"
         fill="#ffc107"
         id="path1213" />
      <path
         d="M 640,597.33333 C 597.33333,554.66667 597.33333,512 597.33333,512 c 0,0 0,-149.33333 106.66667,-149.33333 H 853.33333 C 853.33333,298.66667 725.33333,128 576,128 H 512 448 C 298.66667,128 170.66667,298.66667 170.66667,362.66667 H 320 C 426.66667,362.66667 426.66667,512 426.66667,512 c 0,0 0,42.66667 -42.66667,85.33333 -42.66667,42.66667 -106.66667,85.33334 -106.66667,128 0,42.66667 21.33334,128 149.33334,128 64,0 85.33333,-42.66666 85.33333,-42.66666 0,0 21.33333,42.66666 85.33333,42.66666 128,0 149.33334,-85.33333 149.33334,-128 0,-42.66666 -64,-85.33333 -106.66667,-128 z"
         fill="#d69107"
         id="path1215" />
      <path
         d="m 256,405.33333 c 0,0 0,106.66667 87.104,106.66667 h 62.22933 c 0,0 0,-106.66667 -74.66666,-106.66667 z m 512,0 c 0,0 0,106.66667 -87.104,106.66667 h -62.22933 c 0,0 0,-106.66667 74.66666,-106.66667 z"
         fill="#5d4037"
         id="path1217" />
      <path
         d="m 341.33333,426.66667 m -42.66666,0 a 42.666667,42.666667 0 1 0 85.33333,0 42.666667,42.666667 0 1 0 -85.33333,0 z"
         fill="#eeff41"
         id="path1219" />
      <path
         d="m 682.66667,426.66667 m -42.66667,0 a 42.666667,42.666667 0 1 0 85.33333,0 42.666667,42.666667 0 1 0 -85.33333,0 z"
         fill="#eeff41"
         id="path1221" />
      <path
         d="m 341.33333,426.66667 m -21.33333,0 a 21.333335,21.333335 0 1 0 42.66667,0 21.333335,21.333335 0 1 0 -42.66667,0 z"
         fill="#212121"
         id="path1223" />
      <path
         d="m 682.66667,426.66667 m -21.33334,0 a 21.333335,21.333335 0 1 0 42.66667,0 21.333335,21.333335 0 1 0 -42.66667,0 z"
         fill="#212121"
         id="path1225" />
      <path
         d="m 237.14133,219.11467 8.53334,10.368 A 400.64,400.64 0 0 1 286.4,192.02133 h -16.29867 c 0,0 -52.52266,-63.872 -113.74933,-63.872 -18.58133,0 -37.952,5.86667 -56.917333,21.20534 -21.525333,17.36533 -32.341333,39.744 -35.498667,64 0.02133,0 0.04267,0 0.064,-0.0427 42.66667,-42.66667 81.70667,-42.496 92.33067,-42.496 33.04533,0.0213 70.42133,35.86133 80.81066,48.29867 z M 923.43467,149.376 c -18.96534,-15.33867 -38.336,-21.20533 -56.91734,-21.20533 -61.22666,0 -113.74933,63.872 -113.74933,63.872 H 737.57867 A 395.41333,395.41333 0 0 1 777.728,228.864 l 8,-9.74933 c 10.38933,-12.43734 47.76533,-48.29867 80.81067,-48.29867 10.624,0 49.664,-0.17067 92.33066,42.496 0.0213,0.0427 0.0427,0.0427 0.064,0.0427 C 955.776,189.12 944.96,166.74133 923.43467,149.376 Z M 597.33333,725.33333 C 597.33333,772.45867 512,768 512,810.66667 512,768 426.66667,772.45867 426.66667,725.33333 c 0,-47.12533 38.208,0 85.33333,0 47.12533,0 85.33333,-47.12533 85.33333,0 z"
         fill="#3e2723"
         id="path1227" />
      <path
         d="m 394.66667,778.66667 m -10.66667,0 a 10.666667,10.666667 0 1 0 21.33333,0 10.666667,10.666667 0 1 0 -21.33333,0 z"
         fill="#3e2723"
         id="path1229" />
      <path
         d="m 373.33333,736 m -10.66666,0 A 10.666667,10.666667 0 1 0 384,736 a 10.666667,10.666667 0 1 0 -21.33333,0 z"
         fill="#3e2723"
         id="path1231" />
      <path
         d="m 394.66667,821.33333 m -10.66667,0 a 10.666667,10.666667 0 1 0 21.33333,0 10.666667,10.666667 0 1 0 -21.33333,0 z"
         fill="#3e2723"
         id="path1233" />
      <path
         d="m 352,800 m -10.66667,0 a 10.66667,10.66667 0 1 0 21.33334,0 10.66667,10.66667 0 1 0 -21.33334,0 z"
         fill="#3e2723"
         id="path1235" />
      <path
         d="m 330.66667,757.33333 m -10.66667,0 a 10.666667,10.666667 0 1 0 21.33333,0 10.666667,10.666667 0 1 0 -21.33333,0 z"
         fill="#3e2723"
         id="path1237" />
      <path
         d="m 437.33333,800 m -10.66666,0 A 10.666667,10.666667 0 1 0 448,800 a 10.666667,10.666667 0 1 0 -21.33333,0 z"
         fill="#3e2723"
         id="path1239" />
      <path
         d="m 629.33333,778.66667 m -10.66666,0 a 10.666667,10.666667 0 1 0 21.33333,0 10.666667,10.666667 0 1 0 -21.33333,0 z"
         fill="#3e2723"
         id="path1241" />
      <path
         d="M 650.66667,736 M 640,736 a 10.666667,10.666667 0 1 0 21.33333,0 A 10.666667,10.666667 0 1 0 640,736 Z"
         fill="#3e2723"
         id="path1243" />
      <path
         d="m 629.33333,821.33333 m -10.66666,0 a 10.666667,10.666667 0 1 0 21.33333,0 10.666667,10.666667 0 1 0 -21.33333,0 z"
         fill="#3e2723"
         id="path1245" />
      <path
         d="m 672,800 m -10.66667,0 a 10.66667,10.66667 0 1 0 21.33334,0 10.66667,10.66667 0 1 0 -21.33334,0 z"
         fill="#3e2723"
         id="path1247" />
      <path
         d="m 693.33333,757.33333 m -10.66666,0 a 10.666667,10.666667 0 1 0 21.33333,0 10.666667,10.666667 0 1 0 -21.33333,0 z"
         fill="#3e2723"
         id="path1249" />
      <path
         d="M 586.66667,800 M 576,800 a 10.666667,10.666667 0 1 0 21.33333,0 A 10.666667,10.666667 0 1 0 576,800 Z"
         fill="#3e2723"
         id="path1251" />
      <path
         d="m 512,298.66667 m -42.66667,0 a 42.66667,42.66667 0 1 0 85.33334,0 42.66667,42.66667 0 1 0 -85.33334,0 z"
         fill="#3e2723"
         id="path1253" />
      <path
         d="m 512,405.33333 m -21.33333,0 a 21.333333,21.333333 0 1 0 42.66666,0 21.333333,21.333333 0 1 0 -42.66666,0 z"
         fill="#3e2723"
         id="path1255" />
      <path
         d="M 451.92533,128 A 63.189333,63.189333 0 0 0 448,149.33333 a 64,64 0 0 0 128,0 C 576,141.80267 574.464,134.69867 572.07467,128 Z"
         fill="#3e2723"
         id="path1257" />
      <path
         d="m 661.33333,213.33333 m -42.66666,0 a 42.666667,42.666667 0 1 0 85.33333,0 42.666667,42.666667 0 1 0 -85.33333,0 z"
         fill="#3e2723"
         id="path1259" />
      <path
         d="m 362.66667,213.33333 m -42.66667,0 a 42.666667,42.666667 0 1 0 85.33333,0 42.666667,42.666667 0 1 0 -85.33333,0 z"
         fill="#3e2723"
         id="path1261" />
      <path
         d="m 832,522.66667 a 32,32 0 0 0 32,32 c 2.66667,0 5.20533,-0.42667 7.65867,-1.04534 l -6.784,-62.86933 c -0.29867,0 -0.576,-0.0853 -0.87467,-0.0853 a 32,32 0 0 0 -32,32 z M 832,576 c -35.328,0 -64,28.672 -64,64 a 63.872,63.872 0 0 0 55.12533,63.12533 c 28.11734,-37.76 47.21067,-76.992 50.53867,-111.33866 A 63.402667,63.402667 0 0 0 832,576 Z M 160,554.66667 a 32,32 0 0 0 0,-64 c -0.29867,0 -0.576,0.0853 -0.87467,0.0853 l -6.784,62.86933 c 2.45334,0.61867 4.992,1.04534 7.65867,1.04534 z M 192,576 c -16,0 -30.464,6.08 -41.664,15.78667 3.328,34.32533 22.42133,73.57866 50.53867,111.33866 A 63.872,63.872 0 0 0 256,640 c 0,-35.328 -28.672,-64 -64,-64 z"
         fill="#a36b07"
         id="path1263" />
      <path
         d="m 597.33333,853.33333 c -64,0 -85.33333,-42.66666 -85.33333,-42.66666 0,0 -21.33333,42.66666 -85.33333,42.66666 -43.008,0 -73.77067,-9.74933 -95.936,-24.17066 25.856,29.97333 59.264,65.6 67.968,63.808 9.51466,1.81333 18.88,3.02933 27.968,3.02933 C 463.18933,896 491.456,885.07733 512,871.12533 532.544,885.07733 560.81067,896 597.33333,896 c 9.088,0 18.45334,-1.216 27.968,-3.02933 8.68267,1.792 42.112,-33.83467 67.968,-63.808 -22.16533,14.42133 -52.928,24.17066 -95.936,24.17066 z"
         fill="#996704"
         id="path1265" />
    </g>
    <path
       style="fill:#afdde9;stroke:#000007;stroke-width:0.0144584"
       d="m 18.778127,16.739727 c -0.09778,-0.01887 -0.18386,-0.06714 -0.246365,-0.13815 -0.233398,-0.265153 -0.06398,-0.683688 0.28692,-0.708794 0.143245,-0.01023 0.231869,0.02304 0.333298,0.125212 0.08946,0.09011 0.12949,0.184569 0.12949,0.30556 0,0.254813 -0.253476,0.46439 -0.503343,0.416172 z m 0.185986,-0.227519 c 0.191997,-0.102168 0.123569,-0.397171 -0.09659,-0.416424 -0.231486,-0.02024 -0.330546,0.29281 -0.131128,0.414396 0.05986,0.0365 0.161237,0.0374 0.227717,0.0021 z"
       id="path1417" />
    <path
       style="fill:#afdde9;stroke:#000007;stroke-width:0.0144584"
       d="m 15.270278,16.739727 c -0.208951,-0.04033 -0.353422,-0.210686 -0.353863,-0.417288 -4.77e-4,-0.231458 0.166938,-0.41338 0.395508,-0.429734 0.142451,-0.01023 0.230806,0.0233 0.334203,0.126701 0.09699,0.09699 0.134507,0.196337 0.124805,0.330462 -0.01787,0.247177 -0.2606,0.436183 -0.500653,0.389859 z m 0.185986,-0.227084 c 0.06984,-0.03656 0.11926,-0.133609 0.110561,-0.217115 -0.02165,-0.207813 -0.292393,-0.275787 -0.410324,-0.103015 -0.04255,0.06233 -0.04428,0.17537 -0.0037,0.241934 0.0605,0.09923 0.196384,0.134242 0.30345,0.0782 z"
       id="path1456" />
    <path
       style="fill:#93a7ac;stroke:#000007;stroke-width:0.0144584"
       d="m 15.167327,17.16596 c -0.235597,-0.05102 -0.423176,-0.20414 -0.539873,-0.440697 -0.07231,-0.146587 -0.12925,-0.347758 -0.145671,-0.5147 l -0.01034,-0.104654 h 0.238915 0.238916 l -0.02301,0.05413 c -0.03678,0.08658 -0.03101,0.241555 0.01254,0.336292 0.05155,0.112179 0.101948,0.165322 0.204718,0.215915 0.106491,0.05243 0.238262,0.06063 0.354338,0.02208 0.121997,-0.04052 0.238493,-0.165646 0.275965,-0.296404 0.0093,-0.03258 0.01547,-0.02556 0.06312,0.07218 0.08375,0.171797 0.153153,0.450679 0.153153,0.615403 v 0.06307 l -0.364499,-0.0011 c -0.255403,-8.07e-4 -0.392582,-0.0073 -0.458329,-0.02147 z"
       id="path1532" />
    <path
       style="fill:#93a7ac;stroke:#000007;stroke-width:0.0144584"
       d="m 18.206224,17.091134 c 0.01337,-0.133949 0.04588,-0.29585 0.08191,-0.407805 0.02902,-0.09019 0.10681,-0.259841 0.119137,-0.259841 0.0033,0 0.02182,0.03466 0.04121,0.07703 0.12274,0.2681 0.475508,0.344868 0.695382,0.151327 0.130093,-0.114513 0.18563,-0.310962 0.132223,-0.467707 -0.01292,-0.03792 -0.0235,-0.07104 -0.0235,-0.07359 0,-0.0025 0.105886,-0.0046 0.235301,-0.0046 h 0.235303 l -0.01112,0.11499 c -0.03993,0.413046 -0.232126,0.746126 -0.508448,0.881147 -0.154834,0.07566 -0.235548,0.08629 -0.655923,0.08643 l -0.351212,1.1e-4 z"
       id="path1571" />
    <path
       style="fill:#93a7ac;stroke:#000007;stroke-width:0.0144584"
       d="m 17.073053,20.133986 c -0.03451,-0.0833 -0.144072,-0.163968 -0.399201,-0.293912 -0.360641,-0.183682 -0.441584,-0.268664 -0.440101,-0.462045 0.0012,-0.153569 0.03608,-0.206296 0.12826,-0.193768 0.0297,0.004 0.144939,0.04343 0.256093,0.08754 0.247314,0.09814 0.404919,0.132632 0.54367,0.11896 0.126491,-0.01247 0.203088,-0.03506 0.447276,-0.131929 0.199057,-0.07897 0.251766,-0.09008 0.301356,-0.06355 0.05353,0.02864 0.07456,0.200951 0.03727,0.305341 -0.04331,0.121263 -0.15153,0.206921 -0.438716,0.347261 -0.232999,0.113861 -0.335737,0.187499 -0.378479,0.27128 -0.01615,0.03166 -0.0317,0.05757 -0.03454,0.05757 -0.0029,0 -0.01314,-0.01924 -0.02288,-0.04276 z"
       id="path1610" />
    <path
       style="fill:#aaaaff;stroke:#000007;stroke-width:0.0144584"
       d="m 18.457835,19.572697 c -0.0447,-0.03619 -0.0447,-0.112661 0,-0.148855 0.06883,-0.05573 0.164409,-0.01247 0.164409,0.07443 0,0.08689 -0.09559,0.130158 -0.164409,0.07443 z"
       id="path1649" />
    <path
       style="fill:#aaaaff;stroke:#000007;stroke-width:0.0144584"
       d="m 14.703523,19.986753 c -0.292882,-0.238333 -0.806674,-0.785451 -0.769102,-0.818989 0.0072,-0.0064 0.04448,-0.02013 0.08284,-0.03046 0.200084,-0.05385 0.376523,-0.244964 0.435625,-0.471871 0.08606,-0.330429 -0.11215,-0.682898 -0.441719,-0.78547 -0.179402,-0.05584 -0.425192,-0.02351 -0.55917,0.07355 -0.033,0.02391 -0.06426,0.04346 -0.06948,0.04346 -0.0097,0 0.0029,-0.207962 0.01835,-0.304635 l 0.0085,-0.05309 0.09071,-0.0059 c 0.244545,-0.01558 0.384118,-0.262216 0.273733,-0.483728 -0.04923,-0.09879 -0.16538,-0.177694 -0.261571,-0.177694 -0.03392,0 -0.03586,-0.0037 -0.02827,-0.05413 0.0088,-0.05843 0.104511,-0.987312 0.118253,-1.147628 l 0.0084,-0.09744 h 0.833082 c 0.922387,0 0.914114,-6.97e-4 1.109161,0.09451 0.31295,0.152777 0.534891,0.53031 0.624173,1.061759 0.05707,0.339687 0.03963,0.528418 -0.07147,0.773443 -0.110772,0.244307 -0.247038,0.401112 -0.714951,0.82273 -0.429793,0.387268 -0.588747,0.569227 -0.67277,0.770129 -0.07199,0.17215 -0.02567,0.537095 0.101475,0.799175 0.03126,0.06446 0.05495,0.119116 0.05261,0.121466 -0.0023,0.0023 -0.0781,-0.05584 -0.168377,-0.129301 z m 1.301023,-2.859529 c -1.21e-4,-0.180673 -0.08625,-0.514307 -0.172292,-0.667346 -0.02915,-0.05185 -0.04277,-0.09944 -0.04781,-0.167194 -0.009,-0.120758 -0.04951,-0.211788 -0.130105,-0.292387 -0.175731,-0.175732 -0.475519,-0.163813 -0.642186,0.02554 l -0.05778,0.06564 H 14.707184 14.45999 l 2.86e-4,0.0397 c 1.57e-4,0.02184 0.0068,0.08517 0.01478,0.140747 0.05864,0.408876 0.227499,0.698286 0.486877,0.834494 0.153892,0.08082 0.247188,0.09408 0.670949,0.09543 l 0.371716,0.0012 -4.3e-5,-0.07579 z"
       id="path1764" />
    <path
       style="fill:#aaaaff;stroke:#000007;stroke-width:0.0144584"
       d="m 19.376412,19.993322 c 0.08186,-0.165875 0.121877,-0.321631 0.131984,-0.513786 0.01045,-0.199166 -0.01426,-0.287794 -0.127907,-0.458069 -0.102036,-0.152891 -0.270459,-0.326204 -0.633468,-0.651841 -0.155005,-0.139047 -0.323278,-0.297641 -0.37394,-0.352434 -0.181558,-0.19635 -0.313912,-0.439249 -0.370984,-0.680836 -0.03784,-0.160173 -0.0065,-0.484858 0.07435,-0.77044 0.136458,-0.481963 0.391219,-0.776507 0.752633,-0.870158 0.07581,-0.01965 0.207054,-0.02292 0.918478,-0.02292 0.926869,0 0.847537,-0.0099 0.847566,0.105842 7e-6,0.03309 0.02599,0.299025 0.05774,0.590959 0.03176,0.291934 0.05773,0.546165 0.05773,0.564958 0,0.02944 -0.009,0.03552 -0.06501,0.04391 -0.08252,0.01237 -0.175983,0.08236 -0.223593,0.167431 -0.04802,0.0858 -0.04972,0.224224 -0.0039,0.311485 0.06,0.114093 0.167365,0.178652 0.297088,0.178652 h 0.07777 l 0.0092,0.09744 c 0.0051,0.05359 0.0092,0.134319 0.0093,0.179393 l 9.2e-5,0.08195 -0.08301,-0.05007 c -0.124473,-0.07506 -0.214122,-0.09638 -0.377304,-0.08973 -0.118885,0.0048 -0.152805,0.01224 -0.23675,0.05163 -0.137016,0.06426 -0.256938,0.182269 -0.324822,0.31962 -0.05284,0.10692 -0.05357,0.11075 -0.05357,0.282369 0,0.165951 0.0022,0.178495 0.04641,0.271958 0.063,0.133007 0.182892,0.256461 0.311581,0.320842 0.05534,0.02768 0.115591,0.05034 0.133905,0.05034 0.01831,0 0.03666,0.0055 0.04077,0.01211 0.02489,0.04028 -0.568293,0.664678 -0.811559,0.854267 -0.06604,0.05148 -0.125368,0.0955 -0.13182,0.09783 -0.0065,0.0023 0.01647,-0.05289 0.05092,-0.122703 z m -0.267128,-2.830844 c 0.360803,-0.118728 0.567411,-0.452475 0.625033,-1.009657 l 0.0064,-0.06135 h -0.245895 -0.245894 l -0.07403,-0.07704 c -0.276708,-0.287986 -0.759308,-0.09918 -0.763715,0.298793 -5.86e-4,0.05141 -0.01107,0.09064 -0.03424,0.127797 -0.03909,0.06269 -0.09517,0.201856 -0.126739,0.314496 -0.02429,0.08671 -0.06556,0.343637 -0.06569,0.40912 l -8.5e-5,0.04102 0.415023,-0.0059 c 0.377007,-0.0054 0.423713,-0.0088 0.509896,-0.03719 z"
       id="path1803" />
    <path
       style="fill:#5555ff;stroke:#000007;stroke-width:0.0144584"
       d="m 15.912705,20.680878 c -0.615437,-0.08421 -1.008544,-0.39094 -1.156831,-0.902644 -0.07689,-0.265344 -0.07135,-0.49481 0.01581,-0.653465 0.100408,-0.182804 0.224561,-0.31462 0.797087,-0.846307 0.298695,-0.277389 0.437489,-0.443504 0.530699,-0.635165 0.09955,-0.20471 0.126739,-0.336188 0.116405,-0.562989 -0.02226,-0.488317 -0.202361,-0.94939 -0.464414,-1.188893 -0.09629,-0.08801 -0.177423,-0.137659 -0.308126,-0.188572 l -0.09556,-0.03722 -0.876962,-0.0042 c -0.815462,-0.004 -0.876956,-0.0059 -0.876862,-0.02886 2.59e-4,-0.06332 0.06268,-0.274164 0.119116,-0.402377 0.11595,-0.263405 0.287651,-0.526822 0.498818,-0.765272 0.133255,-0.150471 0.385386,-0.396651 0.536812,-0.524141 0.363847,-0.306335 0.861075,-0.558416 1.266684,-0.642176 0.115141,-0.02378 0.435638,-0.05678 0.446446,-0.04597 0.0037,0.0037 -1.28e-4,0.03178 -0.0086,0.0623 -0.02426,0.08734 -0.0187,0.252152 0.01178,0.350104 0.132096,0.424427 0.634543,0.597539 1.00885,0.347588 0.21389,-0.142831 0.326239,-0.4108 0.275885,-0.658025 l -0.02207,-0.108405 0.116476,0.0087 c 0.356771,0.02677 0.639711,0.106733 0.982612,0.277729 0.425555,0.21221 0.905057,0.612259 1.242838,1.036904 0.286526,0.360208 0.496243,0.766075 0.521303,1.008885 l 0.0083,0.08001 H 19.76445 c -0.939272,0 -0.932599,-6.23e-4 -1.139369,0.106007 -0.26719,0.13779 -0.461657,0.423768 -0.56992,0.838108 -0.06016,0.230245 -0.07763,0.353697 -0.07778,0.549964 -1.3e-4,0.157947 0.004,0.185216 0.04662,0.309144 0.0472,0.137135 0.08587,0.222462 0.131191,0.289491 0.01359,0.02009 0.04358,0.0654 0.06666,0.100672 0.06731,0.102894 0.177656,0.214944 0.567745,0.576498 0.398081,0.368962 0.558263,0.547427 0.645244,0.71889 l 0.05599,0.110374 -0.0015,0.174491 c -0.0015,0.20123 -0.02546,0.317617 -0.102509,0.499099 -0.06648,0.156613 -0.121797,0.239918 -0.236362,0.355988 -0.252829,0.256155 -0.595353,0.385988 -1.067277,0.404553 -0.180695,0.0072 -0.247404,0.004 -0.346454,-0.01602 -0.242008,-0.04896 -0.457563,-0.172534 -0.577085,-0.330838 -0.05275,-0.06986 -0.05864,-0.08527 -0.05009,-0.130926 0.01245,-0.06634 0.077,-0.155254 0.152345,-0.209835 0.03254,-0.02357 0.161783,-0.09528 0.287214,-0.159362 0.353806,-0.180748 0.425128,-0.259799 0.425576,-0.471694 2.03e-4,-0.09758 -0.005,-0.125098 -0.03007,-0.158791 -0.04845,-0.06518 -0.101596,-0.06058 -0.339069,0.02931 -0.300476,0.113747 -0.363629,0.130027 -0.503979,0.129909 -0.143272,-1.2e-4 -0.262951,-0.03023 -0.501252,-0.126123 -0.08911,-0.03586 -0.184881,-0.06948 -0.212829,-0.07472 -0.12174,-0.02284 -0.166491,0.03076 -0.166491,0.19941 0,0.215308 0.07327,0.293813 0.461684,0.494704 0.303353,0.156898 0.404451,0.252755 0.404451,0.383487 0,0.03756 -0.01956,0.06501 -0.111876,0.157008 -0.121409,0.120988 -0.274379,0.208736 -0.443894,0.254627 -0.103499,0.02802 -0.470595,0.03931 -0.618785,0.01903 z m 0.06663,-0.231503 c 0.0631,-0.076 0.01001,-0.18602 -0.08974,-0.18602 -0.09032,0 -0.138522,0.07907 -0.09989,0.16386 0.03224,0.07077 0.138919,0.08324 0.189623,0.02216 z m 2.410745,0 c 0.03432,-0.04134 0.03249,-0.121047 -0.0036,-0.157148 -0.0361,-0.0361 -0.115808,-0.03793 -0.157148,-0.0037 -0.01673,0.01389 -0.03445,0.04611 -0.03938,0.0716 -0.0076,0.03903 -0.0018,0.05351 0.03663,0.09192 0.03839,0.03839 0.05288,0.04417 0.09192,0.03663 0.02549,-0.005 0.05771,-0.02264 0.0716,-0.03938 z m -2.851033,-0.22408 c 0.07943,-0.08737 -0.0125,-0.215986 -0.126077,-0.176392 -0.04926,0.01717 -0.07242,0.05045 -0.07242,0.10406 0,0.05758 0.01579,0.08345 0.06351,0.104104 0.05495,0.02377 0.09253,0.01493 0.134978,-0.03177 z m 0.878986,0.007 c 0.03582,-0.03958 0.03275,-0.120985 -0.0061,-0.159747 -0.04248,-0.04248 -0.129399,-0.04068 -0.165127,0.0034 -0.03147,0.03886 -0.03336,0.112377 -0.004,0.154334 0.03584,0.05117 0.129642,0.05221 0.175122,0.002 z m 1.531758,-0.007 c 0.03824,-0.04206 0.04143,-0.08711 0.0093,-0.132865 -0.06582,-0.09397 -0.206941,-0.05124 -0.206941,0.06266 0,0.05141 0.02481,0.08792 0.07257,0.106832 0.04624,0.0183 0.08554,0.0068 0.125002,-0.03663 z m 0.884504,-0.0018 c 0.07209,-0.09165 -0.01861,-0.213508 -0.130009,-0.174672 -0.04926,0.01717 -0.07241,0.05045 -0.07241,0.10406 0,0.05709 0.01572,0.08346 0.06112,0.102553 0.05636,0.02369 0.106458,0.01236 0.141302,-0.03193 z m -2.863111,-0.20814 c 0.09136,-0.08583 -0.0089,-0.233385 -0.125728,-0.185002 -0.07113,0.02947 -0.09136,0.115497 -0.04191,0.178354 0.03874,0.04924 0.118911,0.05243 0.16764,0.0066 z m 2.415283,0.0026 c 0.0361,-0.0361 0.03793,-0.115808 0.0037,-0.157148 -0.0139,-0.01674 -0.04611,-0.03445 -0.0716,-0.03938 -0.03903,-0.0076 -0.05353,-0.0018 -0.09192,0.03663 -0.03839,0.03839 -0.04416,0.05287 -0.03663,0.09192 0.005,0.02549 0.02264,0.05771 0.03938,0.0716 0.04134,0.03432 0.121048,0.03249 0.157149,-0.0037 z m -3.079646,-0.209016 c 0.06437,-0.04508 0.05333,-0.160639 -0.01844,-0.193344 -0.05182,-0.02362 -0.08331,-0.02022 -0.12632,0.0136 -0.07869,0.0619 -0.03056,0.20105 0.06954,0.20105 0.02464,0 0.05848,-0.0096 0.07523,-0.02132 z m 3.737119,-0.01412 c 0.02233,-0.02233 0.03543,-0.05193 0.03543,-0.08006 0,-0.02812 -0.01309,-0.05771 -0.03543,-0.08005 -0.105336,-0.105336 -0.266173,0.05353 -0.164149,0.162125 0.04299,0.04578 0.117264,0.04486 0.164149,-0.002 z m -3.291316,-0.216534 c 0.0716,-0.0716 0.02087,-0.195537 -0.08005,-0.195537 -0.05935,0 -0.115485,0.05614 -0.115485,0.115484 0,0.05935 0.05614,0.115485 0.115485,0.115485 0.02812,0 0.05771,-0.0131 0.08005,-0.03543 z m 2.833637,0.01232 c 0.09397,-0.06582 0.05124,-0.206941 -0.06266,-0.206941 -0.113898,0 -0.156627,0.141122 -0.06266,0.206941 0.01815,0.01272 0.04635,0.02311 0.06266,0.02311 0.01632,0 0.04451,-0.01045 0.06266,-0.02311 z m -1.383803,-3.29345 c 0.0747,-0.03753 0.115772,-0.107932 0.115772,-0.198467 0,-0.237616 -0.316971,-0.311053 -0.420398,-0.09739 -0.09338,0.192885 0.112197,0.392546 0.304626,0.295867 z m 0.06181,-0.884111 c 0.0444,-0.01661 0.103598,-0.05483 0.139727,-0.09022 0.222743,-0.218167 0.165299,-0.584362 -0.113195,-0.721586 -0.05411,-0.02666 -0.09046,-0.03271 -0.196322,-0.03271 -0.117048,0 -0.137586,0.0043 -0.207278,0.04284 -0.248827,0.137821 -0.308818,0.467187 -0.124346,0.682701 0.02815,0.03289 0.0901,0.07891 0.13933,0.10351 0.110126,0.05504 0.241358,0.06063 0.362084,0.01548 z m -1.515623,-0.884061 c 0.09152,-0.03887 0.202571,-0.160917 0.234851,-0.258107 0.03644,-0.109714 0.02385,-0.258719 -0.03025,-0.358125 -0.174315,-0.320273 -0.64347,-0.30313 -0.792502,0.02897 -0.03593,0.08007 -0.03947,0.101739 -0.0337,0.206547 0.0073,0.13297 0.03848,0.208149 0.120162,0.289844 0.130742,0.13074 0.324794,0.16591 0.501446,0.09088 z m 3.044473,0.0095 c 0.092,-0.03005 0.189615,-0.119872 0.238524,-0.21947 0.05406,-0.110107 0.05652,-0.276512 0.0056,-0.381825 -0.131145,-0.271311 -0.480291,-0.340443 -0.700934,-0.138787 -0.102399,0.09359 -0.142852,0.186561 -0.143512,0.329854 -6.24e-4,0.129144 0.0364,0.218876 0.127941,0.310289 0.126751,0.126578 0.287028,0.160488 0.472375,0.09993 z"
       id="path1879" />
    <path
       style="fill:#5f5fd3;stroke:#000007;stroke-width:0.0144584"
       d="m 20.197942,19.125823 c -0.113004,-0.03903 -0.198086,-0.09534 -0.282747,-0.187099 -0.100012,-0.108405 -0.143874,-0.19826 -0.157542,-0.322765 -0.02737,-0.249324 0.02738,-0.414227 0.188581,-0.567985 0.214701,-0.204788 0.524788,-0.239973 0.778796,-0.08836 0.07671,0.04579 0.07924,0.04929 0.07493,0.10373 -0.01312,0.16577 -0.122271,0.46526 -0.254018,0.696984 -0.09111,0.160264 -0.240073,0.380676 -0.261204,0.386515 -0.0079,0.0022 -0.047,-0.0073 -0.0868,-0.02101 z"
       id="path2033" />
    <path
       style="fill:#5f5fd3;stroke:#000007;stroke-width:0.0144584"
       d="m 20.602327,17.600133 c -0.137766,-0.04829 -0.22626,-0.21565 -0.193876,-0.366649 0.02584,-0.120503 0.166953,-0.247008 0.275527,-0.247008 h 0.03644 l 0.03145,0.29954 c 0.01731,0.164745 0.03133,0.307657 0.03117,0.317582 -3.67e-4,0.02449 -0.10681,0.02245 -0.180725,-0.0035 z"
       id="path2072" />
    <path
       style="fill:#5f5fd3;stroke:#000007;stroke-width:0.0144584"
       d="m 13.793089,18.990153 c -0.195814,-0.296807 -0.303242,-0.523562 -0.366863,-0.774362 -0.04715,-0.185864 -0.04613,-0.195063 0.02688,-0.244758 0.248706,-0.169276 0.617188,-0.1254 0.824138,0.09813 0.141266,0.152584 0.205299,0.353103 0.171359,0.536616 -0.04959,0.268139 -0.250962,0.483519 -0.502824,0.537801 -0.04426,0.0096 -0.04695,0.0068 -0.152682,-0.153428 z"
       id="path2111" />
    <path
       style="fill:#5f5fd3;stroke:#000007;stroke-width:0.0144584"
       d="m 13.412919,17.569558 c 0.0043,-0.0309 0.0176,-0.150375 0.02966,-0.265498 0.03423,-0.326843 0.03197,-0.317584 0.07738,-0.317584 0.02148,0 0.07423,0.0211 0.117197,0.04691 0.06027,0.03619 0.08735,0.06463 0.118456,0.12435 0.110324,0.211853 -0.01907,0.437954 -0.263315,0.460101 l -0.08712,0.0079 z"
       id="path2150" />
    <path
       style="fill:#5f5fd3;stroke:#000007;stroke-width:0.0144584"
       d="m 13.465442,16.00471 c -0.154125,-0.08495 -0.324524,-0.239107 -0.471199,-0.426268 -0.315848,-0.403031 -0.498019,-0.868468 -0.501298,-1.280787 -0.0012,-0.152724 -5.17e-4,-0.156134 0.04098,-0.199834 0.13435,-0.141494 0.432447,-0.318024 0.619639,-0.366941 0.140996,-0.03685 0.317194,-0.0432 0.425614,-0.01533 0.106447,0.02735 0.273129,0.112831 0.389996,0.199997 0.09333,0.06961 0.273427,0.240349 0.33452,0.317135 l 0.0429,0.05394 -0.146121,0.169825 c -0.226132,0.26282 -0.404595,0.53848 -0.497789,0.768901 -0.02087,0.05161 -0.04408,0.106821 -0.05156,0.122703 -0.03434,0.07288 -0.06086,0.213816 -0.06384,0.339236 -0.004,0.168944 -0.02255,0.360981 -0.03484,0.360629 -0.0051,-1.48e-4 -0.04418,-0.01958 -0.08701,-0.04319 z"
       id="path2189" />
    <path
       style="fill:#5f5fd3;stroke:#000007;stroke-width:0.0144584"
       d="m 20.633426,16.023604 c -0.0081,-0.02878 -0.02301,-0.223142 -0.03065,-0.401943 -0.0059,-0.137425 -0.05001,-0.279735 -0.145972,-0.470827 -0.131731,-0.262294 -0.313975,-0.528448 -0.514949,-0.752048 l -0.10065,-0.111986 0.03772,-0.04946 c 0.15946,-0.209064 0.459779,-0.432894 0.680099,-0.506886 0.103928,-0.0349 0.129213,-0.03795 0.252623,-0.03043 0.285136,0.0174 0.532654,0.127645 0.790349,0.352061 l 0.09022,0.07857 v 0.148461 c 0,0.08165 -0.01001,0.206153 -0.02231,0.276665 -0.09653,0.554583 -0.527185,1.212882 -0.947285,1.447988 -0.07422,0.04154 -0.08249,0.04337 -0.08919,0.01982 z"
       id="path2228" />
    <path
       style="fill:#5f5fd3;stroke:#000007;stroke-width:0.0144584"
       d="m 18.220598,17.092685 c 0.02482,-0.213525 0.08845,-0.449825 0.15582,-0.578592 l 0.0319,-0.06097 0.04181,0.07986 c 0.07679,0.146672 0.230375,0.236958 0.403078,0.236958 0.122505,0 0.211611,-0.03304 0.297534,-0.110279 0.132201,-0.11886 0.18979,-0.31191 0.140429,-0.470754 l -0.0213,-0.06857 h 0.217239 0.217239 l -0.0089,0.104654 c -0.02357,0.276603 -0.139016,0.546875 -0.30432,0.712525 -0.105666,0.105886 -0.188881,0.157171 -0.326159,0.201003 -0.06483,0.0207 -0.150449,0.02658 -0.466781,0.03203 l -0.387384,0.0067 z"
       id="path2267" />
    <path
       style="fill:#5f5fd3;stroke:#000007;stroke-width:0.0144584"
       d="M 15.246723,17.160176 C 15.06149,17.138755 14.895761,17.052387 14.772625,16.913078 14.642991,16.766422 14.52549,16.467726 14.496271,16.210563 l -0.01023,-0.09022 h 0.218924 0.218924 l -0.0118,0.03248 c -0.0065,0.01786 -0.01163,0.09419 -0.01141,0.169618 3.41e-4,0.119982 0.0051,0.14633 0.03878,0.210615 0.09825,0.188091 0.331411,0.280187 0.549114,0.216898 0.09723,-0.02827 0.222888,-0.135515 0.263002,-0.22447 0.01456,-0.03227 0.03109,-0.05868 0.03674,-0.05868 0.01305,0 0.08065,0.150004 0.108603,0.240992 0.03903,0.127075 0.06513,0.254039 0.07415,0.360744 l 0.0089,0.105611 -0.32331,-0.002 c -0.177821,-0.0011 -0.362287,-0.0065 -0.409924,-0.01199 z"
       id="path2306" />
    <path
       style="fill:#afafe9;stroke:#000007;stroke-width:0.0144584"
       d="m 17.06655,20.097222 c -0.03597,-0.0668 -0.139366,-0.138915 -0.402439,-0.280687 -0.354636,-0.191115 -0.424209,-0.270291 -0.411596,-0.468395 0.0064,-0.09955 0.03637,-0.153018 0.08592,-0.153018 0.01442,0 0.122811,0.03529 0.240866,0.07841 0.472098,0.172444 0.570595,0.174287 0.985576,0.01844 0.248701,-0.0934 0.290523,-0.10395 0.329441,-0.08313 0.03851,0.02061 0.0643,0.120017 0.05392,0.207901 -0.01858,0.157407 -0.115233,0.247519 -0.449565,0.41915 -0.218113,0.111969 -0.308922,0.174824 -0.365579,0.253035 l -0.04073,0.05623 z"
       id="path2345" />
    <path
       style="fill:#afafe9;stroke:#000007;stroke-width:0.0144584"
       d="m 16.881152,21.561286 c -0.32207,-0.03405 -0.646738,-0.170883 -0.850945,-0.358652 l -0.0717,-0.06592 0.272054,-9.54e-4 c 0.247472,-8.8e-4 0.285096,-0.0044 0.416409,-0.03951 0.08376,-0.02237 0.210341,-0.07177 0.301544,-0.117668 l 0.157188,-0.0791 0.08172,0.04789 c 0.101486,0.05948 0.242951,0.11661 0.387949,0.156673 0.09417,0.02603 0.152181,0.03081 0.383277,0.03166 l 0.272314,10e-4 -0.09639,0.08955 c -0.06963,0.06468 -0.141235,0.111801 -0.257878,0.169694 -0.298103,0.147952 -0.633313,0.203621 -0.995536,0.165334 z"
       id="path2421" />
    <path
       style="fill:#5f5fd3;stroke:#000007;stroke-width:0.0144584"
       d="m 15.961556,21.106896 c -0.06228,-0.01132 -0.103015,-0.03004 -0.154323,-0.07093 -0.118197,-0.09422 -0.531894,-0.527199 -0.503716,-0.527199 0.0051,0 0.04115,0.01622 0.08028,0.03606 0.183131,0.0928 0.417535,0.144998 0.714623,0.159135 0.313492,0.01492 0.51471,-0.02792 0.723363,-0.153985 0.08391,-0.05069 0.247513,-0.20372 0.263706,-0.246651 0.0077,-0.02033 0.01883,-0.01234 0.05973,0.04278 0.05807,0.07824 0.189292,0.187915 0.277873,0.232244 0.27698,0.138609 0.518094,0.162118 0.977803,0.09534 0.09854,-0.01431 0.29295,-0.07339 0.39747,-0.120785 0.05133,-0.02328 0.09334,-0.03665 0.09334,-0.02972 0,0.02302 -0.511663,0.53133 -0.557794,0.554139 -0.07382,0.0365 -0.184803,0.04543 -0.459915,0.03701 -0.297673,-0.0091 -0.36956,-0.02721 -0.638911,-0.160937 -0.132775,-0.06591 -0.150704,-0.07135 -0.173229,-0.05243 -0.04564,0.03832 -0.286153,0.140578 -0.416566,0.177109 -0.108119,0.03029 -0.165178,0.03658 -0.363678,0.04006 -0.129492,0.0022 -0.273519,-0.0028 -0.32006,-0.01123 z"
       id="path2460" />
    <path
       style="fill:#aaaaff;stroke:#000007;stroke-width:0.0144584"
       d="m 18.891709,19.786982 c -0.01588,-0.01588 -0.02886,-0.04541 -0.02886,-0.06562 0,-0.04442 0.05933,-0.107613 0.101046,-0.107613 0.03896,0 0.101046,0.06211 0.101046,0.101046 0,0.04171 -0.06318,0.101046 -0.107613,0.101046 -0.0202,0 -0.04973,-0.013 -0.06562,-0.02886 z"
       id="path2610" />
    <path
       style="fill:#aaaaff;stroke:#000007;stroke-width:0.0144584"
       d="m 18.678784,20.226945 c -0.04082,-0.02886 -0.04419,-0.107316 -0.0061,-0.141797 0.03296,-0.02982 0.108779,-0.03101 0.137634,-0.0022 0.08671,0.08671 -0.03073,0.215243 -0.131552,0.143951 z"
       id="path2686" />
    <path
       style="fill:#aaaaff;stroke:#000007;stroke-width:0.0144584"
       d="m 18.243215,20.442516 c -0.05364,-0.04513 -0.05621,-0.08206 -0.009,-0.129291 0.04292,-0.04292 0.09878,-0.04558 0.137795,-0.0066 0.03901,0.03901 0.03635,0.09487 -0.0066,0.137794 -0.0449,0.04489 -0.06701,0.04454 -0.122252,-0.002 z"
       id="path2725" />
    <path
       style="fill:#aaaaff;stroke:#000007;stroke-width:0.0144584"
       d="m 18.234234,19.996954 c -0.04611,-0.0461 -0.04476,-0.08016 0.0051,-0.127876 0.0502,-0.04808 0.08064,-0.0489 0.126177,-0.0033 0.04292,0.04291 0.04557,0.09878 0.0066,0.137794 -0.03901,0.03902 -0.09487,0.03636 -0.137794,-0.0066 z"
       id="path2764" />
    <path
       style="fill:#aaaaff;stroke:#000007;stroke-width:0.0144584"
       d="m 17.789624,20.222521 c -0.03003,-0.03318 -0.03062,-0.08749 -0.0015,-0.129181 0.03082,-0.04401 0.106282,-0.04334 0.14824,0.0013 0.03919,0.04173 0.03953,0.06784 0.0015,0.116218 -0.03626,0.04611 -0.111734,0.05203 -0.148289,0.01164 z"
       id="path2803" />
    <path
       style="fill:#aaaaff;stroke:#000007;stroke-width:0.0144584"
       d="m 16.258032,20.216836 c -0.04891,-0.06983 -0.0097,-0.155578 0.07115,-0.155578 0.02676,0 0.05888,0.01023 0.07135,0.02269 0.02924,0.02924 0.02924,0.113057 0,0.142295 -0.03451,0.0345 -0.115499,0.02916 -0.142507,-0.0093 z"
       id="path2842" />
    <path
       style="fill:#aaaaff;stroke:#000007;stroke-width:0.0144584"
       d="m 15.817976,19.99435 c -0.03655,-0.04646 -0.03784,-0.07932 -0.0046,-0.11854 0.04202,-0.04965 0.09731,-0.05419 0.140021,-0.01147 0.04517,0.04517 0.04721,0.0995 0.0051,0.138615 -0.04458,0.04154 -0.104016,0.03789 -0.140587,-0.0086 z"
       id="path2881" />
    <path
       style="fill:#aaaaff;stroke:#000007;stroke-width:0.0144584"
       d="m 15.606956,19.563886 c -0.04496,-0.04496 -0.04496,-0.08627 0,-0.131233 0.04653,-0.04653 0.09889,-0.04553 0.136747,0.0026 0.03774,0.04798 0.03774,0.07804 0,0.126027 -0.03786,0.04814 -0.09022,0.04913 -0.136747,0.0026 z"
       id="path2920" />
    <path
       style="fill:#aaaaff;stroke:#000007;stroke-width:0.0144584"
       d="m 15.167889,19.78426 c -0.03901,-0.04187 -0.03733,-0.100298 0.004,-0.139118 0.04039,-0.03795 0.08305,-0.04006 0.123167,-0.0062 0.04965,0.04202 0.05419,0.09731 0.01147,0.14002 -0.04517,0.04517 -0.0995,0.04721 -0.138614,0.0051 z"
       id="path2959" />
    <path
       style="fill:#aaaaff;stroke:#000007;stroke-width:0.0144584"
       d="m 15.387073,20.226448 c -0.04044,-0.02834 -0.0436,-0.106975 -0.0057,-0.1413 0.03632,-0.03287 0.111528,-0.03032 0.146828,0.0049 0.03689,0.03689 0.03658,0.07293 -0.0011,0.120756 -0.03443,0.04377 -0.09087,0.05004 -0.140096,0.01557 z"
       id="path2998" />
    <path
       style="fill:#aaaaff;stroke:#000007;stroke-width:0.0144584"
       d="m 15.849198,20.464791 c -0.03747,-0.01489 -0.0659,-0.07707 -0.05335,-0.116644 0.03411,-0.107459 0.194302,-0.084 0.194302,0.02845 0,0.06701 -0.07547,0.114227 -0.140957,0.08819 z"
       id="path3037" />
    <path
       style="fill:#aaaaff;stroke:#000007;stroke-width:0.0144584"
       d="m 16.99692,16.275895 c -0.06838,-0.03963 -0.118682,-0.13593 -0.106018,-0.202944 0.02927,-0.154894 0.193316,-0.231207 0.319407,-0.148589 0.128655,0.08429 0.120451,0.289304 -0.01419,0.354481 -0.07694,0.03725 -0.131239,0.03644 -0.199207,-0.003 z"
       id="path3076" />
    <path
       style="fill:#aaaaff;stroke:#000007;stroke-width:0.0144584"
       d="m 16.986211,15.414791 c -0.190002,-0.06252 -0.317583,-0.228966 -0.317583,-0.414324 0,-0.146845 0.108141,-0.31847 0.241266,-0.382917 0.09034,-0.04374 0.290387,-0.04396 0.375726,-4.04e-4 0.09316,0.04753 0.143593,0.09846 0.190564,0.192454 0.06284,0.125773 0.06284,0.25822 0,0.383992 -0.07355,0.147171 -0.187672,0.221095 -0.352834,0.228535 -0.05558,0.0026 -0.117289,-8.06e-4 -0.137139,-0.0074 z"
       id="path3115" />
    <path
       style="fill:#aaaaff;stroke:#000007;stroke-width:0.0144584"
       d="m 15.409094,14.526265 c -0.117478,-0.04192 -0.227812,-0.164828 -0.255405,-0.284506 -0.04852,-0.210441 0.02909,-0.393509 0.208518,-0.491825 0.07651,-0.04192 0.09925,-0.04741 0.194881,-0.04706 0.265318,0.001 0.450445,0.200367 0.429405,0.462471 -0.01192,0.148605 -0.134026,0.311781 -0.26882,0.359265 -0.07691,0.02709 -0.234922,0.02794 -0.308579,0.0017 z"
       id="path3154" />
    <path
       style="fill:#aaaaff;stroke:#000007;stroke-width:0.0144584"
       d="m 16.929979,14.090949 c -0.334768,-0.09002 -0.545654,-0.445883 -0.461735,-0.779155 l 0.01615,-0.06413 h 0.610679 0.61068 l 0.01502,0.04692 c 0.04776,0.149259 0.02903,0.322143 -0.05155,0.475779 -0.137043,0.261304 -0.451919,0.397861 -0.739239,0.320596 z"
       id="path3193" />
    <path
       style="fill:#aaaaff;stroke:#000007;stroke-width:0.0144584"
       d="m 18.463882,14.519978 c -0.0849,-0.03979 -0.174944,-0.125915 -0.215678,-0.206299 -0.02752,-0.05431 -0.03495,-0.0914 -0.03489,-0.174143 1.19e-4,-0.160973 0.01847,-0.207914 0.12033,-0.307841 0.06961,-0.0683 0.107261,-0.09297 0.173527,-0.113729 0.198271,-0.06211 0.416057,0.02921 0.510563,0.214084 0.0506,0.09899 0.05305,0.255525 0.0056,0.362189 -0.03819,0.08598 -0.117069,0.171456 -0.196651,0.213125 -0.08433,0.04415 -0.280983,0.05098 -0.362868,0.01261 z"
       id="path3232" />
    <path
       style="fill:#aaaaff;stroke:#000007;stroke-width:0.0144584"
       d="m 19.728827,14.173754 c -0.05152,-0.0511 -0.137699,-0.130969 -0.191496,-0.177484 l -0.09781,-0.08458 h 0.06727 c 0.06537,0 0.07097,-0.0037 0.198859,-0.130226 0.164296,-0.162585 0.325279,-0.283908 0.489898,-0.369202 0.210857,-0.109252 0.310319,-0.138153 0.503999,-0.146455 0.153697,-0.0066 0.180451,-0.0037 0.288712,0.03015 0.162761,0.05103 0.28528,0.126359 0.414567,0.254888 0.139872,0.139055 0.234138,0.313803 0.268722,0.498153 l 0.01067,0.05705 -0.07802,-0.0702 c -0.225512,-0.202871 -0.501946,-0.329263 -0.766364,-0.350401 -0.282414,-0.02257 -0.540921,0.104665 -0.85641,0.421557 l -0.158939,0.159643 z"
       id="path3271" />
    <path
       style="fill:#aaaaff;stroke:#000007;stroke-width:0.0144584"
       d="m 14.264601,14.167296 c -0.152791,-0.180152 -0.390047,-0.354976 -0.590649,-0.43523 -0.30162,-0.120666 -0.730125,-0.0084 -1.068806,0.280035 -0.04756,0.0405 -0.08875,0.06682 -0.09153,0.05848 -0.0096,-0.02864 0.0577,-0.223902 0.109384,-0.317677 0.0623,-0.113018 0.2374,-0.290829 0.353307,-0.35879 0.163096,-0.09563 0.249383,-0.121904 0.423555,-0.128968 0.130306,-0.0053 0.182104,-8.8e-4 0.281494,0.02419 0.25366,0.06387 0.526287,0.229665 0.78007,0.474393 0.15163,0.14622 0.15427,0.147969 0.223961,0.148317 l 0.07052,3.5e-4 -0.0794,0.06778 c -0.04367,0.03728 -0.131808,0.118325 -0.195866,0.180094 -0.06406,0.06177 -0.119275,0.111724 -0.122703,0.111016 -0.0034,-6.97e-4 -0.04543,-0.0475 -0.09335,-0.104005 z"
       id="path3310" />
    <path
       style="fill:#333333;stroke:#333333;stroke-width:0.115264px;stroke-linecap:butt;stroke-linejoin:miter;stroke-opacity:1"
       d="m 21.808478,16.077076 c 0.332157,-0.101706 0.673817,-0.149784 1.152639,0.57632 v 1.15264 c -0.249626,0.331364 -0.564649,0.595063 -1.152639,0.57632"
       id="path7737"
       sodipodi:nodetypes="cccc" />
    <path
       style="fill:#333333;stroke:#333333;stroke-width:0.115264px;stroke-linecap:butt;stroke-linejoin:miter;stroke-opacity:1"
       d="m 12.587355,18.353996 c -0.332158,0.101706 -0.673817,0.149784 -1.152641,-0.57632 v -1.152641 c 0.249628,-0.331364 0.56465,-0.595063 1.152641,-0.57632"
       id="path4193"
       sodipodi:nodetypes="cccc" />
  </g>
</svg>
