<?xml version="1.0" encoding="UTF-8" standalone="no"?>
<!-- Created with Inkscape (http://www.inkscape.org/) -->

<svg
   width="64"
   height="64.098083"
   viewBox="0 0 16.933333 16.959283"
   version="1.1"
   id="svg5"
   inkscape:version="1.1 (c68e22c387, 2021-05-23)"
   sodipodi:docname="64.svg"
   xmlns:inkscape="http://www.inkscape.org/namespaces/inkscape"
   xmlns:sodipodi="http://sodipodi.sourceforge.net/DTD/sodipodi-0.dtd"
   xmlns="http://www.w3.org/2000/svg"
   xmlns:svg="http://www.w3.org/2000/svg">
  <sodipodi:namedview
     id="namedview7"
     pagecolor="#505050"
     bordercolor="#eeeeee"
     borderopacity="1"
     inkscape:pageshadow="0"
     inkscape:pageopacity="0"
     inkscape:pagecheckerboard="false"
     inkscape:document-units="mm"
     showgrid="true"
     units="px"
     inkscape:snap-center="true"
     inkscape:zoom="6.3359375"
     inkscape:cx="30.776819"
     inkscape:cy="33.065351"
     inkscape:window-width="1920"
     inkscape:window-height="1019"
     inkscape:window-x="0"
     inkscape:window-y="30"
     inkscape:window-maximized="1"
     inkscape:current-layer="layer2"
     fit-margin-top="6.9"
     fit-margin-left="2"
     fit-margin-right="2"
     fit-margin-bottom="6.7"
     lock-margins="false">
    <inkscape:grid
       type="xygrid"
       id="grid1111"
       originx="-8.731248"
       originy="-8.1752414" />
  </sodipodi:namedview>
  <defs
     id="defs2" />
  <g
     inkscape:groupmode="layer"
     id="layer2"
     inkscape:label="Layer 2"
     transform="translate(-8.7312491,-8.1752478)">
    <path
       style="fill:#000000;stroke:#000000;stroke-width:0.157178px;stroke-linecap:butt;stroke-linejoin:miter;stroke-opacity:1"
       d="m 11.701416,19.707907 c 0.334523,0.05801 0.654389,-0.150015 0.785892,-0.785892 V 15.77845 c -0.183058,-0.635676 -0.551269,-0.649179 -0.785892,-0.785891 -0.314166,0.186486 -0.779292,0.154707 -0.78589,0.785891 v 3.143565 c -0.134085,0.768362 1.205943,1.010931 0.78589,0.785892"
       id="path3462"
       sodipodi:nodetypes="ccccccc" />
    <path
       style="fill:#000000;stroke:#000000;stroke-width:0.157178px;stroke-linecap:butt;stroke-linejoin:miter;stroke-opacity:1"
       d="m 22.703893,19.707907 c 0.334522,0.05801 0.654388,-0.150015 0.78589,-0.785892 V 15.77845 c -0.183057,-0.635676 -0.551268,-0.649179 -0.78589,-0.785891 -0.314166,0.186486 -0.779294,0.154707 -0.785891,0.785891 v 3.143565 c -0.134085,0.768362 1.205943,1.010931 0.785891,0.785892"
       id="path4158"
       sodipodi:nodetypes="ccccccc" />
    <path
       style="fill:none;stroke:#000000;stroke-width:0.59406;stroke-linecap:butt;stroke-linejoin:miter;stroke-miterlimit:4;stroke-dasharray:none;stroke-opacity:1"
       d="m 10.124895,16.604558 0.785892,-4.715347 c 0.634577,-0.553262 2.15958,-1.747851 3.143565,-1.571781 h 6.287129 c 0.969393,0.279336 1.524198,0.03851 2.676447,1.498369 0.07675,0.185852 1.253009,4.788759 1.253009,4.788759"
       id="path7864"
       sodipodi:nodetypes="cccccc" />
  </g>
  <g
     inkscape:label="Layer 1"
     inkscape:groupmode="layer"
     id="layer1"
     transform="translate(-8.7312491,-8.1752478)">
    <g
       style="overflow:hidden;fill:currentColor"
       id="g1302"
       transform="matrix(0.01401666,0,0,0.01401666,9.8855628,10.204852)"
       inkscape:transform-center-x="-11.242437"
       inkscape:transform-center-y="6.9022612">
      <path
         d="m 688.768,192.04267 h 64 c 0,0 89.216,-108.45867 170.66667,-42.66667 96.44803,77.888 -21.33334,256 -85.33334,255.95733 C 790.4,405.33333 688.768,192.04267 688.768,192.04267 Z m -354.66667,0 h -64 c 0,0 -89.216,-108.45867 -170.666663,-42.66667 -96.448,77.888 21.333333,256 85.333333,255.95733 47.70133,0 149.33333,-213.29066 149.33333,-213.29066 z"
         fill="#996704"
         id="path1209" />
      <path
         d="m 384,853.33333 a 128,85.333333 0 1 0 256,0 128,85.333333 0 1 0 -256,0 z"
         fill="#ffc107"
         id="path1211" />
      <path
         d="m 874.66667,581.33333 c 0,106.048 -170.66667,272 -277.33334,272 -64,0 -85.33333,-42.66666 -85.33333,-42.66666 0,0 -21.33333,42.66666 -85.33333,42.66666 -106.66667,0 -277.33334,-165.952 -277.33334,-272 L 170.66667,384 c 0,-106.048 106.66666,-192 192,-234.66667 0,0 42.66666,-21.33333 85.33333,-21.33333 h 128 c 42.66667,0 85.33333,21.33333 85.33333,21.33333 64,21.33334 192,128.61867 192,234.66667 z"
         fill="#ffc107"
         id="path1213" />
      <path
         d="M 640,597.33333 C 597.33333,554.66667 597.33333,512 597.33333,512 c 0,0 0,-149.33333 106.66667,-149.33333 H 853.33333 C 853.33333,298.66667 725.33333,128 576,128 H 512 448 C 298.66667,128 170.66667,298.66667 170.66667,362.66667 H 320 C 426.66667,362.66667 426.66667,512 426.66667,512 c 0,0 0,42.66667 -42.66667,85.33333 -42.66667,42.66667 -106.66667,85.33334 -106.66667,128 0,42.66667 21.33334,128 149.33334,128 64,0 85.33333,-42.66666 85.33333,-42.66666 0,0 21.33333,42.66666 85.33333,42.66666 128,0 149.33334,-85.33333 149.33334,-128 0,-42.66666 -64,-85.33333 -106.66667,-128 z"
         fill="#d69107"
         id="path1215" />
      <path
         d="m 256,405.33333 c 0,0 0,106.66667 87.104,106.66667 h 62.22933 c 0,0 0,-106.66667 -74.66666,-106.66667 z m 512,0 c 0,0 0,106.66667 -87.104,106.66667 h -62.22933 c 0,0 0,-106.66667 74.66666,-106.66667 z"
         fill="#5d4037"
         id="path1217" />
      <path
         d="m 341.33333,426.66667 m -42.66666,0 a 42.666667,42.666667 0 1 0 85.33333,0 42.666667,42.666667 0 1 0 -85.33333,0 z"
         fill="#eeff41"
         id="path1219" />
      <path
         d="m 682.66667,426.66667 m -42.66667,0 a 42.666667,42.666667 0 1 0 85.33333,0 42.666667,42.666667 0 1 0 -85.33333,0 z"
         fill="#eeff41"
         id="path1221" />
      <path
         d="m 341.33333,426.66667 m -21.33333,0 a 21.333335,21.333335 0 1 0 42.66667,0 21.333335,21.333335 0 1 0 -42.66667,0 z"
         fill="#212121"
         id="path1223" />
      <path
         d="m 682.66667,426.66667 m -21.33334,0 a 21.333335,21.333335 0 1 0 42.66667,0 21.333335,21.333335 0 1 0 -42.66667,0 z"
         fill="#212121"
         id="path1225" />
      <path
         d="m 237.14133,219.11467 8.53334,10.368 A 400.64,400.64 0 0 1 286.4,192.02133 h -16.29867 c 0,0 -52.52266,-63.872 -113.74933,-63.872 -18.58133,0 -37.952,5.86667 -56.917333,21.20534 -21.525333,17.36533 -32.341333,39.744 -35.498667,64 0.02133,0 0.04267,0 0.064,-0.0427 42.66667,-42.66667 81.70667,-42.496 92.33067,-42.496 33.04533,0.0213 70.42133,35.86133 80.81066,48.29867 z M 923.43467,149.376 c -18.96534,-15.33867 -38.336,-21.20533 -56.91734,-21.20533 -61.22666,0 -113.74933,63.872 -113.74933,63.872 H 737.57867 A 395.41333,395.41333 0 0 1 777.728,228.864 l 8,-9.74933 c 10.38933,-12.43734 47.76533,-48.29867 80.81067,-48.29867 10.624,0 49.664,-0.17067 92.33066,42.496 0.0213,0.0427 0.0427,0.0427 0.064,0.0427 C 955.776,189.12 944.96,166.74133 923.43467,149.376 Z M 597.33333,725.33333 C 597.33333,772.45867 512,768 512,810.66667 512,768 426.66667,772.45867 426.66667,725.33333 c 0,-47.12533 38.208,0 85.33333,0 47.12533,0 85.33333,-47.12533 85.33333,0 z"
         fill="#3e2723"
         id="path1227" />
      <path
         d="m 394.66667,778.66667 m -10.66667,0 a 10.666667,10.666667 0 1 0 21.33333,0 10.666667,10.666667 0 1 0 -21.33333,0 z"
         fill="#3e2723"
         id="path1229" />
      <path
         d="m 373.33333,736 m -10.66666,0 A 10.666667,10.666667 0 1 0 384,736 a 10.666667,10.666667 0 1 0 -21.33333,0 z"
         fill="#3e2723"
         id="path1231" />
      <path
         d="m 394.66667,821.33333 m -10.66667,0 a 10.666667,10.666667 0 1 0 21.33333,0 10.666667,10.666667 0 1 0 -21.33333,0 z"
         fill="#3e2723"
         id="path1233" />
      <path
         d="m 352,800 m -10.66667,0 a 10.66667,10.66667 0 1 0 21.33334,0 10.66667,10.66667 0 1 0 -21.33334,0 z"
         fill="#3e2723"
         id="path1235" />
      <path
         d="m 330.66667,757.33333 m -10.66667,0 a 10.666667,10.666667 0 1 0 21.33333,0 10.666667,10.666667 0 1 0 -21.33333,0 z"
         fill="#3e2723"
         id="path1237" />
      <path
         d="m 437.33333,800 m -10.66666,0 A 10.666667,10.666667 0 1 0 448,800 a 10.666667,10.666667 0 1 0 -21.33333,0 z"
         fill="#3e2723"
         id="path1239" />
      <path
         d="m 629.33333,778.66667 m -10.66666,0 a 10.666667,10.666667 0 1 0 21.33333,0 10.666667,10.666667 0 1 0 -21.33333,0 z"
         fill="#3e2723"
         id="path1241" />
      <path
         d="M 650.66667,736 M 640,736 a 10.666667,10.666667 0 1 0 21.33333,0 A 10.666667,10.666667 0 1 0 640,736 Z"
         fill="#3e2723"
         id="path1243" />
      <path
         d="m 629.33333,821.33333 m -10.66666,0 a 10.666667,10.666667 0 1 0 21.33333,0 10.666667,10.666667 0 1 0 -21.33333,0 z"
         fill="#3e2723"
         id="path1245" />
      <path
         d="m 672,800 m -10.66667,0 a 10.66667,10.66667 0 1 0 21.33334,0 10.66667,10.66667 0 1 0 -21.33334,0 z"
         fill="#3e2723"
         id="path1247" />
      <path
         d="m 693.33333,757.33333 m -10.66666,0 a 10.666667,10.666667 0 1 0 21.33333,0 10.666667,10.666667 0 1 0 -21.33333,0 z"
         fill="#3e2723"
         id="path1249" />
      <path
         d="M 586.66667,800 M 576,800 a 10.666667,10.666667 0 1 0 21.33333,0 A 10.666667,10.666667 0 1 0 576,800 Z"
         fill="#3e2723"
         id="path1251" />
      <path
         d="m 512,298.66667 m -42.66667,0 a 42.66667,42.66667 0 1 0 85.33334,0 42.66667,42.66667 0 1 0 -85.33334,0 z"
         fill="#3e2723"
         id="path1253" />
      <path
         d="m 512,405.33333 m -21.33333,0 a 21.333333,21.333333 0 1 0 42.66666,0 21.333333,21.333333 0 1 0 -42.66666,0 z"
         fill="#3e2723"
         id="path1255" />
      <path
         d="M 451.92533,128 A 63.189333,63.189333 0 0 0 448,149.33333 a 64,64 0 0 0 128,0 C 576,141.80267 574.464,134.69867 572.07467,128 Z"
         fill="#3e2723"
         id="path1257" />
      <path
         d="m 661.33333,213.33333 m -42.66666,0 a 42.666667,42.666667 0 1 0 85.33333,0 42.666667,42.666667 0 1 0 -85.33333,0 z"
         fill="#3e2723"
         id="path1259" />
      <path
         d="m 362.66667,213.33333 m -42.66667,0 a 42.666667,42.666667 0 1 0 85.33333,0 42.666667,42.666667 0 1 0 -85.33333,0 z"
         fill="#3e2723"
         id="path1261" />
      <path
         d="m 832,522.66667 a 32,32 0 0 0 32,32 c 2.66667,0 5.20533,-0.42667 7.65867,-1.04534 l -6.784,-62.86933 c -0.29867,0 -0.576,-0.0853 -0.87467,-0.0853 a 32,32 0 0 0 -32,32 z M 832,576 c -35.328,0 -64,28.672 -64,64 a 63.872,63.872 0 0 0 55.12533,63.12533 c 28.11734,-37.76 47.21067,-76.992 50.53867,-111.33866 A 63.402667,63.402667 0 0 0 832,576 Z M 160,554.66667 a 32,32 0 0 0 0,-64 c -0.29867,0 -0.576,0.0853 -0.87467,0.0853 l -6.784,62.86933 c 2.45334,0.61867 4.992,1.04534 7.65867,1.04534 z M 192,576 c -16,0 -30.464,6.08 -41.664,15.78667 3.328,34.32533 22.42133,73.57866 50.53867,111.33866 A 63.872,63.872 0 0 0 256,640 c 0,-35.328 -28.672,-64 -64,-64 z"
         fill="#a36b07"
         id="path1263" />
      <path
         d="m 597.33333,853.33333 c -64,0 -85.33333,-42.66666 -85.33333,-42.66666 0,0 -21.33333,42.66666 -85.33333,42.66666 -43.008,0 -73.77067,-9.74933 -95.936,-24.17066 25.856,29.97333 59.264,65.6 67.968,63.808 9.51466,1.81333 18.88,3.02933 27.968,3.02933 C 463.18933,896 491.456,885.07733 512,871.12533 532.544,885.07733 560.81067,896 597.33333,896 c 9.088,0 18.45334,-1.216 27.968,-3.02933 8.68267,1.792 42.112,-33.83467 67.968,-63.808 -22.16533,14.42133 -52.928,24.17066 -95.936,24.17066 z"
         fill="#996704"
         id="path1265" />
    </g>
    <path
       style="fill:#afdde9;stroke:#000007;stroke-width:0.019716"
       d="m 19.352749,16.760956 c -0.133335,-0.02573 -0.250718,-0.09156 -0.335952,-0.188387 -0.31827,-0.361572 -0.08724,-0.932301 0.391255,-0.966537 0.195333,-0.01395 0.316184,0.03142 0.454497,0.170744 0.121995,0.12288 0.176577,0.251685 0.176577,0.416673 0,0.347472 -0.345649,0.633259 -0.686377,0.567507 z m 0.253617,-0.310254 c 0.261814,-0.13932 0.168504,-0.541596 -0.131715,-0.567851 -0.315662,-0.0276 -0.450744,0.399287 -0.178811,0.565086 0.08163,0.04977 0.219869,0.051 0.310524,0.0028 z"
       id="path1417" />
    <path
       style="fill:#afdde9;stroke:#000007;stroke-width:0.019716"
       d="m 14.569319,16.760956 c -0.284934,-0.05499 -0.48194,-0.2873 -0.482541,-0.56903 -6.5e-4,-0.315624 0.227643,-0.5637 0.539329,-0.586 0.194252,-0.01395 0.314736,0.03177 0.455732,0.172774 0.132255,0.132255 0.183418,0.267732 0.170188,0.45063 -0.02437,0.337059 -0.355363,0.594795 -0.682708,0.531626 z m 0.253617,-0.30966 c 0.09523,-0.04986 0.162627,-0.182195 0.150765,-0.296066 -0.02952,-0.283381 -0.398718,-0.376074 -0.559533,-0.140475 -0.05802,0.085 -0.06038,0.239141 -0.0051,0.32991 0.0825,0.135315 0.267796,0.183057 0.413796,0.106635 z"
       id="path1456" />
    <path
       style="fill:#93a7ac;stroke:#000007;stroke-width:0.019716"
       d="m 14.428931,17.342182 c -0.321269,-0.06957 -0.577058,-0.278372 -0.736191,-0.60095 -0.09861,-0.199891 -0.176249,-0.474216 -0.198642,-0.701863 l -0.0141,-0.14271 h 0.325794 0.325794 l -0.03137,0.07381 c -0.05016,0.118065 -0.04228,0.329394 0.0171,0.45858 0.0703,0.152971 0.13902,0.225439 0.27916,0.29443 0.145215,0.07149 0.324903,0.08268 0.483189,0.03011 0.166359,-0.05526 0.325218,-0.22588 0.376316,-0.404187 0.01275,-0.04443 0.02109,-0.03486 0.08607,0.09843 0.11421,0.234269 0.208845,0.614562 0.208845,0.839186 v 0.08601 l -0.497045,-0.0015 c -0.348277,-0.0011 -0.535339,-0.0099 -0.624994,-0.02928 z"
       id="path1532" />
    <path
       style="fill:#93a7ac;stroke:#000007;stroke-width:0.019716"
       d="m 18.572882,17.240147 c 0.01823,-0.182658 0.06256,-0.403432 0.11169,-0.556098 0.03957,-0.122985 0.14565,-0.354328 0.162459,-0.354328 0.0045,0 0.02976,0.04726 0.0562,0.105045 0.167372,0.36559 0.64842,0.470274 0.948248,0.206355 0.1774,-0.156155 0.253132,-0.42404 0.180304,-0.637782 -0.01762,-0.05171 -0.03204,-0.09687 -0.03204,-0.10035 0,-0.0034 0.14439,-0.0063 0.320865,-0.0063 h 0.320867 l -0.01516,0.156804 c -0.05445,0.563244 -0.316536,1.017444 -0.693338,1.201564 -0.211138,0.10317 -0.321202,0.117675 -0.894441,0.117855 l -0.478926,1.5e-4 z"
       id="path1571" />
    <path
       style="fill:#93a7ac;stroke:#000007;stroke-width:0.019716"
       d="m 17.027648,21.389491 c -0.04706,-0.113595 -0.196461,-0.223593 -0.544365,-0.400789 -0.491783,-0.250476 -0.60216,-0.36636 -0.600137,-0.630062 0.0016,-0.209412 0.0492,-0.281313 0.174899,-0.264229 0.0405,0.0055 0.197644,0.05922 0.349218,0.11937 0.337246,0.13383 0.552163,0.180862 0.741369,0.162219 0.172487,-0.017 0.276938,-0.04781 0.609921,-0.179904 0.271442,-0.107685 0.343317,-0.122835 0.41094,-0.08666 0.07299,0.03906 0.10167,0.274024 0.05082,0.416374 -0.05906,0.165359 -0.206631,0.282165 -0.598249,0.473538 -0.317726,0.155264 -0.457823,0.25568 -0.516107,0.369927 -0.02202,0.04317 -0.04323,0.07851 -0.0471,0.07851 -0.0039,0 -0.01792,-0.02623 -0.0312,-0.05831 z"
       id="path1610" />
    <path
       style="fill:#aaaaff;stroke:#000007;stroke-width:0.019716"
       d="m 18.915988,20.624097 c -0.06095,-0.04935 -0.06095,-0.153629 0,-0.202985 0.09386,-0.07599 0.224194,-0.017 0.224194,0.10149 0,0.118485 -0.13035,0.177489 -0.224194,0.10149 z"
       id="path1649" />
    <path
       style="fill:#aaaaff;stroke:#000007;stroke-width:0.019716"
       d="m 13.796471,21.188718 c -0.399384,-0.324999 -1.10001,-1.071069 -1.048775,-1.116803 0.0098,-0.0087 0.06066,-0.02745 0.112965,-0.04153 0.272841,-0.07343 0.51344,-0.334042 0.594033,-0.643461 0.11736,-0.450585 -0.152931,-0.931224 -0.602344,-1.071096 -0.244638,-0.07614 -0.579807,-0.03206 -0.762504,0.10029 -0.045,0.0326 -0.08763,0.05926 -0.09474,0.05926 -0.0132,0 0.0039,-0.283585 0.02502,-0.415412 l 0.01155,-0.0724 0.12369,-0.008 c 0.333471,-0.02124 0.523797,-0.357567 0.373272,-0.659628 -0.06713,-0.134715 -0.225518,-0.24231 -0.356688,-0.24231 -0.04625,0 -0.0489,-0.0051 -0.03855,-0.07381 0.012,-0.07967 0.142515,-1.346335 0.161254,-1.564948 l 0.0114,-0.13287 h 1.136021 c 1.257801,0 1.246519,-9.5e-4 1.512493,0.12888 0.42675,0.208333 0.729396,0.72315 0.851145,1.447854 0.07782,0.46321 0.05404,0.72057 -0.09746,1.054695 -0.151054,0.333146 -0.33687,0.546971 -0.974934,1.121904 -0.586081,0.528093 -0.802837,0.776219 -0.917413,1.050177 -0.09817,0.23475 -0.035,0.732402 0.138375,1.089783 0.04263,0.0879 0.07493,0.162432 0.07174,0.165636 -0.0031,0.0032 -0.1065,-0.07614 -0.229604,-0.17632 z m 1.774122,-3.899357 c -1.65e-4,-0.246372 -0.117615,-0.701328 -0.234944,-0.910017 -0.03975,-0.0707 -0.05832,-0.1356 -0.06519,-0.227993 -0.0123,-0.16467 -0.06752,-0.288801 -0.177415,-0.398709 -0.239634,-0.239634 -0.648435,-0.223381 -0.875708,0.03482 l -0.07879,0.08951 H 13.801463 13.46438 l 3.9e-4,0.05413 c 2.15e-4,0.02978 0.0093,0.116145 0.02016,0.191928 0.07996,0.557558 0.310227,0.952208 0.663924,1.137947 0.209853,0.110205 0.337074,0.128295 0.91493,0.130125 l 0.506886,0.0017 -5.9e-5,-0.10335 z"
       id="path1764" />
    <path
       style="fill:#aaaaff;stroke:#000007;stroke-width:0.019716"
       d="m 20.168593,21.197676 c 0.11163,-0.226193 0.166195,-0.438587 0.179977,-0.700617 0.01425,-0.27159 -0.01945,-0.392447 -0.174418,-0.624639 -0.13914,-0.208488 -0.368808,-0.444824 -0.86382,-0.888875 -0.21137,-0.189609 -0.440834,-0.405874 -0.509918,-0.480591 -0.247579,-0.267751 -0.428062,-0.598977 -0.505887,-0.928413 -0.0516,-0.218418 -0.0088,-0.66117 0.101385,-1.0506 0.186078,-0.657222 0.53348,-1.058874 1.026317,-1.18658 0.10338,-0.02679 0.282346,-0.03126 1.25247,-0.03126 1.263912,0 1.155733,-0.0135 1.155772,0.14433 9e-6,0.04512 0.03544,0.407762 0.07874,0.805854 0.04331,0.398091 0.07872,0.74477 0.07872,0.770397 0,0.04014 -0.0123,0.04843 -0.08865,0.05988 -0.11253,0.01687 -0.239976,0.112305 -0.304899,0.228315 -0.06548,0.117 -0.0678,0.30576 -0.0053,0.424752 0.08182,0.155582 0.228225,0.243617 0.405119,0.243617 h 0.10605 l 0.0126,0.13287 c 0.0069,0.07308 0.0126,0.183162 0.01275,0.244626 l 1.26e-4,0.11175 -0.11319,-0.06827 c -0.169736,-0.10236 -0.291984,-0.13143 -0.514505,-0.122355 -0.162117,0.0066 -0.208371,0.01669 -0.322842,0.0704 -0.18684,0.08763 -0.35037,0.248549 -0.442938,0.435846 -0.07206,0.1458 -0.07305,0.151023 -0.07305,0.385049 0,0.226296 0.003,0.243402 0.06329,0.370852 0.08591,0.181373 0.249398,0.349719 0.424883,0.437511 0.07547,0.03774 0.157624,0.06864 0.182598,0.06864 0.02497,0 0.04999,0.0075 0.0556,0.01652 0.03394,0.05493 -0.774945,0.906378 -1.106672,1.164909 -0.09006,0.0702 -0.170956,0.13023 -0.179754,0.13341 -0.0088,0.0031 0.02246,-0.07212 0.06944,-0.167322 z m -0.364266,-3.860242 c 0.492004,-0.161902 0.773742,-0.617011 0.852318,-1.376805 l 0.0087,-0.08366 h -0.335312 -0.33531 l -0.10095,-0.10506 c -0.377329,-0.392709 -1.03542,-0.13524 -1.041429,0.407445 -7.99e-4,0.07011 -0.0151,0.1236 -0.04669,0.174269 -0.05331,0.08548 -0.12978,0.275257 -0.172825,0.428857 -0.03313,0.118245 -0.0894,0.468596 -0.08958,0.557891 l -1.17e-4,0.05594 0.565941,-0.0081 c 0.514101,-0.0073 0.577791,-0.012 0.695313,-0.05071 z"
       id="path1803" />
    <path
       style="fill:#5555ff;stroke:#000007;stroke-width:0.019716"
       d="m 15.445355,22.135252 c -0.839232,-0.114825 -1.375287,-0.5331 -1.577496,-1.230877 -0.10485,-0.361833 -0.09729,-0.674741 0.02156,-0.891089 0.13692,-0.249279 0.30622,-0.429028 1.086937,-1.154055 0.407312,-0.378258 0.596576,-0.604779 0.723681,-0.866135 0.13575,-0.27915 0.172826,-0.458437 0.158733,-0.767712 -0.03035,-0.665887 -0.275946,-1.294623 -0.633291,-1.621218 -0.13131,-0.120015 -0.241941,-0.187716 -0.420172,-0.257143 l -0.130305,-0.05076 -1.195857,-0.0057 c -1.111994,-0.0054 -1.19585,-0.0081 -1.195721,-0.03936 3.53e-4,-0.08634 0.08547,-0.37386 0.162431,-0.548696 0.158113,-0.359188 0.392251,-0.718393 0.680206,-1.043553 0.181712,-0.205188 0.525527,-0.540888 0.732017,-0.714738 0.496155,-0.417729 1.174192,-0.761476 1.727296,-0.875694 0.15701,-0.03243 0.594051,-0.07743 0.60879,-0.06269 0.0051,0.0051 -1.75e-4,0.04334 -0.0117,0.08495 -0.03308,0.1191 -0.0255,0.343844 0.01606,0.477414 0.180132,0.578765 0.865286,0.814827 1.375705,0.473984 0.291669,-0.194769 0.444871,-0.560181 0.376207,-0.897306 l -0.0301,-0.147825 0.158832,0.01185 c 0.486506,0.0365 0.872333,0.145545 1.339925,0.378721 0.580302,0.289377 1.234168,0.834899 1.694779,1.41396 0.390717,0.491192 0.676695,1.044648 0.710868,1.375752 l 0.01125,0.10911 h -1.138297 c -1.280826,0 -1.271726,-8.5e-4 -1.553685,0.144555 -0.36435,0.187896 -0.629532,0.577866 -0.777164,1.142874 -0.08203,0.313971 -0.105855,0.482315 -0.106065,0.749952 -1.77e-4,0.215382 0.0054,0.252567 0.06358,0.421559 0.06436,0.187003 0.11709,0.303358 0.178896,0.394761 0.01853,0.02739 0.05943,0.08918 0.0909,0.13728 0.09178,0.14031 0.242259,0.293105 0.774198,0.786134 0.542838,0.50313 0.761268,0.746491 0.879879,0.980304 l 0.07635,0.15051 -0.002,0.237943 c -0.0021,0.274404 -0.03472,0.433113 -0.139785,0.680589 -0.09066,0.213563 -0.166087,0.327161 -0.322311,0.485438 -0.344767,0.349303 -0.811845,0.526348 -1.455378,0.551664 -0.246403,0.0098 -0.337369,0.0054 -0.472437,-0.02184 -0.330012,-0.06677 -0.62395,-0.235274 -0.786935,-0.451143 -0.07193,-0.09527 -0.07997,-0.11628 -0.0683,-0.178536 0.01698,-0.09046 0.105,-0.21171 0.207743,-0.286139 0.04437,-0.03214 0.220614,-0.12993 0.391656,-0.217311 0.482462,-0.246475 0.57972,-0.354271 0.580331,-0.643219 2.77e-4,-0.133065 -0.0068,-0.170588 -0.041,-0.216534 -0.06607,-0.08888 -0.13854,-0.08261 -0.462366,0.03997 -0.40974,0.155109 -0.495858,0.177309 -0.687245,0.177148 -0.195371,-1.63e-4 -0.358569,-0.04122 -0.683525,-0.171985 -0.121515,-0.0489 -0.252111,-0.09475 -0.290221,-0.101895 -0.16601,-0.03114 -0.227033,0.04194 -0.227033,0.271923 0,0.293601 0.09991,0.400653 0.629568,0.674596 0.413664,0.213951 0.551525,0.344666 0.551525,0.522936 0,0.05122 -0.02667,0.08865 -0.152558,0.214103 -0.165558,0.164983 -0.374154,0.28464 -0.60531,0.347218 -0.141135,0.03821 -0.641721,0.05361 -0.843798,0.02595 z m 0.09086,-0.315685 c 0.08605,-0.103635 0.01365,-0.253664 -0.12237,-0.253664 -0.123165,0 -0.188894,0.10782 -0.136215,0.223445 0.04397,0.0965 0.189435,0.113505 0.258577,0.03022 z m 3.287379,0 c 0.0468,-0.05637 0.04431,-0.165065 -0.0049,-0.214293 -0.04923,-0.04923 -0.157921,-0.05172 -0.214294,-0.005 -0.02281,0.01894 -0.04698,0.06288 -0.0537,0.09764 -0.01035,0.05322 -0.0024,0.07297 0.04995,0.12534 0.05235,0.05235 0.07211,0.06023 0.12534,0.04995 0.03476,-0.0068 0.07869,-0.03087 0.09764,-0.0537 z m -3.887772,-0.305564 c 0.108315,-0.119145 -0.01704,-0.294526 -0.171923,-0.240535 -0.06717,0.02341 -0.09875,0.06879 -0.09875,0.1419 0,0.07852 0.02153,0.11379 0.08661,0.14196 0.07493,0.03242 0.12618,0.02036 0.184061,-0.04332 z m 1.198617,0.0095 c 0.04884,-0.05397 0.04466,-0.164979 -0.0083,-0.217836 -0.05793,-0.05793 -0.176453,-0.05547 -0.225174,0.0046 -0.04291,0.05299 -0.04549,0.153242 -0.0054,0.210456 0.04887,0.06977 0.176785,0.0712 0.238803,0.0027 z m 2.088761,-0.0095 c 0.05215,-0.05736 0.05649,-0.118785 0.01275,-0.18118 -0.08975,-0.128145 -0.282192,-0.06987 -0.282192,0.08544 0,0.0701 0.03383,0.119895 0.09896,0.14568 0.06305,0.02496 0.11664,0.0093 0.170457,-0.04995 z m 1.206142,-0.0024 c 0.09831,-0.12498 -0.02538,-0.291147 -0.177285,-0.238189 -0.06717,0.02341 -0.09874,0.06879 -0.09874,0.1419 0,0.07785 0.02143,0.113805 0.08335,0.139845 0.07685,0.03231 0.14517,0.01686 0.192684,-0.04354 z M 15.5251,21.227776 c 0.124575,-0.117045 -0.01215,-0.318253 -0.171447,-0.252276 -0.097,0.04019 -0.124575,0.157496 -0.05715,0.24321 0.05283,0.06715 0.162151,0.07149 0.2286,0.009 z m 3.293568,0.0035 c 0.04923,-0.04923 0.05172,-0.15792 0.005,-0.214293 -0.01895,-0.02282 -0.06288,-0.04698 -0.09764,-0.0537 -0.05322,-0.01035 -0.07299,-0.0024 -0.12534,0.04995 -0.05235,0.05235 -0.06022,0.0721 -0.04995,0.12534 0.0068,0.03476 0.03087,0.07869 0.0537,0.09764 0.05637,0.0468 0.165065,0.0443 0.214293,-0.005 z M 14.61915,20.946255 c 0.08777,-0.06147 0.07272,-0.219054 -0.02515,-0.263652 -0.07066,-0.03221 -0.11361,-0.02757 -0.172254,0.01855 -0.10731,0.08441 -0.04167,0.274159 0.09483,0.274159 0.0336,0 0.07975,-0.01305 0.102585,-0.02907 z m 5.096071,-0.01925 c 0.03045,-0.03045 0.04831,-0.07081 0.04831,-0.10917 0,-0.03835 -0.01785,-0.0787 -0.04831,-0.109155 -0.14364,-0.14364 -0.362963,0.07299 -0.223839,0.22108 0.05863,0.06243 0.159906,0.06117 0.223839,-0.0027 z m -4.488158,-0.295274 c 0.09764,-0.09764 0.02846,-0.266641 -0.109155,-0.266641 -0.08093,0 -0.157479,0.07656 -0.157479,0.157479 0,0.08093 0.07656,0.157479 0.157479,0.157479 0.03835,0 0.0787,-0.01787 0.109155,-0.04832 z m 3.864051,0.0168 c 0.128145,-0.08975 0.06987,-0.282192 -0.08544,-0.282192 -0.155316,0 -0.213583,0.19244 -0.08544,0.282192 0.02475,0.01734 0.0632,0.03151 0.08544,0.03151 0.02225,0 0.06069,-0.01425 0.08544,-0.03151 z M 17.20411,16.157464 c 0.101865,-0.05118 0.15787,-0.14718 0.15787,-0.270638 0,-0.324021 -0.432233,-0.424162 -0.57327,-0.13281 -0.127335,0.263025 0.152997,0.53529 0.4154,0.403455 z m 0.08429,-1.205606 c 0.06054,-0.02265 0.14127,-0.07477 0.190537,-0.12303 0.30374,-0.297501 0.225407,-0.796858 -0.154357,-0.983982 -0.07379,-0.03636 -0.12336,-0.04461 -0.267712,-0.04461 -0.15961,0 -0.187617,0.0059 -0.282651,0.05842 -0.33931,0.187938 -0.421116,0.637073 -0.169563,0.930956 0.03839,0.04485 0.122865,0.10761 0.189995,0.14115 0.150172,0.07505 0.329125,0.08268 0.493751,0.02111 z M 15.221642,13.74632 c 0.1248,-0.05301 0.276232,-0.219432 0.320251,-0.351964 0.04969,-0.14961 0.03253,-0.352799 -0.04125,-0.488352 -0.237702,-0.436737 -0.877459,-0.41336 -1.080685,0.0395 -0.04899,0.109185 -0.05382,0.138735 -0.04596,0.281655 0.0099,0.181323 0.05247,0.28384 0.163858,0.395241 0.178284,0.178282 0.442901,0.226242 0.68379,0.12393 z m 4.151553,0.0129 c 0.12546,-0.04098 0.258566,-0.163462 0.32526,-0.299277 0.07372,-0.150147 0.07707,-0.377062 0.0077,-0.520671 -0.178834,-0.369969 -0.654942,-0.464241 -0.955819,-0.189255 -0.139635,0.12762 -0.194799,0.254402 -0.195699,0.449801 -8.51e-4,0.176106 0.04963,0.298467 0.174465,0.423121 0.172843,0.172607 0.391402,0.218847 0.644148,0.136275 z"
       id="path1879" />
    <path
       style="fill:#5f5fd3;stroke:#000007;stroke-width:0.019716"
       d="m 21.28886,20.014723 c -0.154096,-0.05322 -0.270117,-0.130005 -0.385563,-0.255135 -0.13638,-0.147825 -0.196192,-0.270354 -0.21483,-0.440134 -0.03732,-0.339987 0.03734,-0.564855 0.257156,-0.774525 0.292773,-0.279257 0.71562,-0.327236 1.061994,-0.120495 0.10461,0.06244 0.10806,0.06721 0.10218,0.14145 -0.01789,0.22605 -0.166733,0.634446 -0.346388,0.950433 -0.124245,0.218542 -0.327372,0.519103 -0.356188,0.527065 -0.0108,0.003 -0.06409,-0.0099 -0.118365,-0.02865 z"
       id="path2033" />
    <path
       style="fill:#5f5fd3;stroke:#000007;stroke-width:0.019716"
       d="m 21.840295,17.934236 c -0.187863,-0.06585 -0.308537,-0.294067 -0.264377,-0.499975 0.03524,-0.164322 0.227664,-0.33683 0.375719,-0.33683 h 0.04969 l 0.04288,0.408464 c 0.0236,0.224652 0.04272,0.419533 0.04251,0.433066 -5e-4,0.03339 -0.14565,0.03062 -0.246443,-0.0048 z"
       id="path2072" />
    <path
       style="fill:#5f5fd3;stroke:#000007;stroke-width:0.019716"
       d="m 12.55497,19.829718 c -0.267019,-0.404736 -0.413512,-0.713948 -0.500268,-1.055948 -0.06429,-0.25345 -0.06291,-0.265995 0.03665,-0.33376 0.339144,-0.230831 0.84162,-0.171 1.123824,0.133815 0.192636,0.208069 0.279953,0.481503 0.233672,0.731748 -0.06762,0.365644 -0.342221,0.659344 -0.68567,0.733366 -0.06036,0.01305 -0.06402,0.0093 -0.208203,-0.209221 z"
       id="path2111" />
    <path
       style="fill:#5f5fd3;stroke:#000007;stroke-width:0.019716"
       d="m 12.036557,17.892544 c 0.0059,-0.04214 0.024,-0.205058 0.04044,-0.362043 0.04668,-0.445695 0.0436,-0.43307 0.105525,-0.43307 0.02929,0 0.10122,0.02878 0.159814,0.06397 0.08219,0.04935 0.119115,0.08813 0.161531,0.169569 0.150441,0.28889 -0.02601,0.59721 -0.359067,0.62741 l -0.1188,0.0108 z"
       id="path2150" />
    <path
       style="fill:#5f5fd3;stroke:#000007;stroke-width:0.019716"
       d="m 12.108179,15.75866 c -0.210171,-0.115845 -0.442533,-0.326055 -0.642545,-0.581275 -0.430701,-0.549588 -0.679116,-1.184274 -0.683587,-1.746527 -0.0016,-0.20826 -7.05e-4,-0.21291 0.05588,-0.272502 0.183204,-0.192946 0.589701,-0.433669 0.844962,-0.500374 0.192267,-0.05025 0.432538,-0.05891 0.580383,-0.02091 0.145155,0.0373 0.372448,0.153861 0.531813,0.272724 0.127275,0.09492 0.372855,0.327748 0.456163,0.432457 l 0.0585,0.07355 -0.199255,0.231579 c -0.308363,0.358392 -0.551721,0.734291 -0.678804,1.048502 -0.02846,0.07038 -0.06011,0.145665 -0.07031,0.167322 -0.04683,0.09938 -0.08299,0.291568 -0.08706,0.462595 -0.0054,0.230378 -0.03075,0.492246 -0.04751,0.491766 -0.0069,-2.01e-4 -0.06024,-0.0267 -0.11865,-0.05889 z"
       id="path2189" />
    <path
       style="fill:#5f5fd3;stroke:#000007;stroke-width:0.019716"
       d="m 21.882703,15.784424 c -0.0111,-0.03925 -0.03138,-0.304284 -0.04179,-0.548104 -0.008,-0.187397 -0.06819,-0.381456 -0.199053,-0.642036 -0.179634,-0.357674 -0.428148,-0.720612 -0.702203,-1.02552 l -0.13725,-0.152709 0.05144,-0.06744 c 0.217446,-0.285087 0.626972,-0.59031 0.927408,-0.691208 0.14172,-0.04759 0.176199,-0.05175 0.344486,-0.04149 0.388821,0.02372 0.726346,0.174062 1.077748,0.480083 l 0.12303,0.107145 v 0.202447 c 0,0.111345 -0.01365,0.281118 -0.03042,0.37727 -0.131625,0.75625 -0.718888,1.65393 -1.291752,1.974529 -0.101205,0.05664 -0.112485,0.05914 -0.12162,0.02703 z"
       id="path2228" />
    <path
       style="fill:#5f5fd3;stroke:#000007;stroke-width:0.019716"
       d="m 18.592483,17.242262 c 0.03384,-0.291171 0.120615,-0.613398 0.212481,-0.788989 l 0.0435,-0.08314 0.05701,0.1089 c 0.104715,0.200007 0.314148,0.323125 0.549651,0.323125 0.167053,0 0.288561,-0.04505 0.405729,-0.150381 0.180274,-0.162082 0.258804,-0.425332 0.191494,-0.641937 l -0.02905,-0.09351 h 0.296235 0.296235 l -0.01215,0.14271 c -0.03214,0.377186 -0.189567,0.745739 -0.414982,0.971625 -0.14409,0.14439 -0.257565,0.214325 -0.444762,0.274095 -0.08841,0.02823 -0.205157,0.03624 -0.636519,0.04368 l -0.528251,0.0092 z"
       id="path2267" />
    <path
       style="fill:#5f5fd3;stroke:#000007;stroke-width:0.019716"
       d="m 14.537198,17.334295 c -0.25259,-0.02921 -0.478584,-0.146985 -0.646497,-0.336951 -0.176774,-0.199986 -0.337002,-0.607299 -0.376847,-0.957975 l -0.01395,-0.12303 h 0.298533 0.298533 l -0.01609,0.04429 c -0.0089,0.02436 -0.01586,0.128445 -0.01556,0.231298 4.65e-4,0.163611 0.007,0.199541 0.05288,0.287202 0.13398,0.256487 0.451925,0.382073 0.748793,0.29577 0.132585,-0.03855 0.303937,-0.184794 0.358638,-0.306096 0.01985,-0.04401 0.04239,-0.08002 0.0501,-0.08002 0.01779,0 0.10998,0.204551 0.148095,0.328625 0.05322,0.173284 0.08882,0.346417 0.101115,0.491923 l 0.01215,0.144015 -0.440877,-0.0027 c -0.242483,-0.0015 -0.494027,-0.0089 -0.558987,-0.01635 z"
       id="path2306" />
    <path
       style="fill:#afafe9;stroke:#000007;stroke-width:0.019716"
       d="m 17.01878,21.339358 c -0.04905,-0.09109 -0.190044,-0.18943 -0.54878,-0.382755 -0.483594,-0.260611 -0.578467,-0.368578 -0.561267,-0.638721 0.0087,-0.13575 0.04959,-0.20866 0.117165,-0.20866 0.01966,0 0.167469,0.04812 0.328454,0.10692 0.64377,0.23515 0.778084,0.237664 1.343967,0.02514 0.339138,-0.127365 0.396168,-0.14175 0.449238,-0.113355 0.05251,0.02811 0.08768,0.163659 0.07353,0.283501 -0.02534,0.214646 -0.157137,0.337526 -0.613044,0.571568 -0.297426,0.152685 -0.421257,0.238396 -0.498516,0.345048 l -0.05554,0.07668 z"
       id="path2345" />
    <path
       style="fill:#afafe9;stroke:#000007;stroke-width:0.019716"
       d="m 16.765965,23.335809 c -0.439186,-0.04643 -0.881916,-0.233022 -1.16038,-0.489071 l -0.09777,-0.08989 0.370983,-0.0013 c 0.337462,-0.0012 0.388768,-0.006 0.567831,-0.05388 0.114225,-0.03051 0.286828,-0.09787 0.411196,-0.160457 l 0.214347,-0.107865 0.111435,0.06531 c 0.138391,0.08111 0.331297,0.159014 0.529022,0.213645 0.128415,0.03549 0.207519,0.04202 0.52265,0.04317 l 0.371337,0.0014 -0.131445,0.122115 c -0.09495,0.0882 -0.192593,0.152457 -0.351651,0.231401 -0.406505,0.201753 -0.863609,0.277666 -1.35755,0.225456 z"
       id="path2421" />
    <path
       style="fill:#5f5fd3;stroke:#000007;stroke-width:0.019716"
       d="m 15.51197,22.716186 c -0.08493,-0.01544 -0.140475,-0.04096 -0.21044,-0.09673 -0.161178,-0.128475 -0.72531,-0.718907 -0.686886,-0.718907 0.0069,0 0.05612,0.02212 0.10947,0.04917 0.249725,0.12654 0.569366,0.197724 0.974486,0.217002 0.427489,0.02034 0.701878,-0.03807 0.986404,-0.209979 0.11442,-0.06913 0.337518,-0.2778 0.3596,-0.336343 0.0105,-0.02772 0.02568,-0.01683 0.08145,0.05833 0.07918,0.106695 0.258125,0.256248 0.378918,0.316696 0.377699,0.189012 0.706491,0.22107 1.333367,0.130005 0.13437,-0.01952 0.399477,-0.10008 0.542005,-0.164706 0.07,-0.03174 0.127275,-0.04998 0.127275,-0.04053 0,0.03139 -0.697723,0.724541 -0.760629,0.755643 -0.100665,0.04977 -0.252003,0.06195 -0.627156,0.05047 -0.405918,-0.01245 -0.503946,-0.03711 -0.871243,-0.219459 -0.181057,-0.08988 -0.205505,-0.09729 -0.236221,-0.07149 -0.06224,0.05226 -0.390208,0.191697 -0.568045,0.241512 -0.147435,0.0413 -0.225242,0.04988 -0.495924,0.05463 -0.17658,0.003 -0.372981,-0.0038 -0.436446,-0.01531 z"
       id="path2460" />
    <path
       style="fill:#aaaaff;stroke:#000007;stroke-width:0.019716"
       d="m 19.507634,20.916303 c -0.02166,-0.02166 -0.03936,-0.06192 -0.03936,-0.08948 0,-0.06057 0.08091,-0.146745 0.13779,-0.146745 0.05312,0 0.13779,0.08469 0.13779,0.13779 0,0.05688 -0.08616,0.13779 -0.146745,0.13779 -0.02755,0 -0.06781,-0.01772 -0.08948,-0.03936 z"
       id="path2610" />
    <path
       style="fill:#aaaaff;stroke:#000007;stroke-width:0.019716"
       d="m 19.217282,21.516253 c -0.05567,-0.03936 -0.06026,-0.14634 -0.0083,-0.193359 0.04494,-0.04067 0.148335,-0.04229 0.187683,-0.003 0.118245,0.118245 -0.04191,0.293513 -0.179389,0.196296 z"
       id="path2686" />
    <path
       style="fill:#aaaaff;stroke:#000007;stroke-width:0.019716"
       d="m 18.623324,21.810214 c -0.07315,-0.06154 -0.07665,-0.1119 -0.0123,-0.176307 0.05853,-0.05853 0.1347,-0.06215 0.187902,-0.009 0.0532,0.0532 0.04957,0.129375 -0.009,0.187902 -0.06122,0.06121 -0.09138,0.06073 -0.166707,-0.0027 z"
       id="path2725" />
    <path
       style="fill:#aaaaff;stroke:#000007;stroke-width:0.019716"
       d="m 18.611077,21.202629 c -0.06287,-0.06287 -0.06104,-0.109305 0.0069,-0.174377 0.06845,-0.06556 0.109965,-0.06668 0.17206,-0.0045 0.05853,0.05851 0.06214,0.1347 0.009,0.187901 -0.0532,0.05321 -0.129375,0.04958 -0.187902,-0.009 z"
       id="path2764" />
    <path
       style="fill:#aaaaff;stroke:#000007;stroke-width:0.019716"
       d="m 18.00479,21.51022 c -0.04095,-0.04524 -0.04176,-0.11931 -0.002,-0.176155 0.04203,-0.06001 0.14493,-0.0591 0.202145,0.0018 0.05344,0.0569 0.0539,0.09251 0.0021,0.158478 -0.04945,0.06288 -0.152364,0.07095 -0.202212,0.01587 z"
       id="path2803" />
    <path
       style="fill:#aaaaff;stroke:#000007;stroke-width:0.019716"
       d="m 15.916256,21.502468 c -0.06669,-0.09522 -0.0132,-0.212152 0.09702,-0.212152 0.03649,0 0.08029,0.01395 0.0973,0.03094 0.03987,0.03987 0.03987,0.154168 0,0.194038 -0.04706,0.04704 -0.157499,0.03977 -0.194328,-0.01275 z"
       id="path2842" />
    <path
       style="fill:#aaaaff;stroke:#000007;stroke-width:0.019716"
       d="m 15.316179,21.199078 c -0.04984,-0.06336 -0.0516,-0.108165 -0.0063,-0.161646 0.0573,-0.06771 0.13269,-0.07389 0.190938,-0.01564 0.06159,0.06159 0.06438,0.135675 0.007,0.18902 -0.06079,0.05664 -0.14184,0.05167 -0.191709,-0.0117 z"
       id="path2881" />
    <path
       style="fill:#aaaaff;stroke:#000007;stroke-width:0.019716"
       d="m 15.028425,20.612082 c -0.06131,-0.06131 -0.06131,-0.117645 0,-0.178955 0.06345,-0.06345 0.13485,-0.06208 0.186473,0.0036 0.05147,0.06543 0.05147,0.106425 0,0.171855 -0.05163,0.06564 -0.12303,0.06699 -0.186473,0.0036 z"
       id="path2920" />
    <path
       style="fill:#aaaaff;stroke:#000007;stroke-width:0.019716"
       d="m 14.429697,20.912592 c -0.05319,-0.0571 -0.05091,-0.13677 0.0054,-0.189707 0.05508,-0.05175 0.11325,-0.05463 0.167955,-0.0084 0.06771,0.0573 0.07389,0.13269 0.01564,0.190937 -0.06159,0.06159 -0.135675,0.06438 -0.189019,0.007 z"
       id="path2959" />
    <path
       style="fill:#aaaaff;stroke:#000007;stroke-width:0.019716"
       d="m 14.728584,21.515575 c -0.05515,-0.03864 -0.05946,-0.145875 -0.0078,-0.192681 0.04953,-0.04482 0.152084,-0.04134 0.20022,0.0067 0.0503,0.0503 0.04988,0.09945 -0.0015,0.164667 -0.04695,0.05969 -0.123915,0.06824 -0.19104,0.02123 z"
       id="path2998" />
    <path
       style="fill:#aaaaff;stroke:#000007;stroke-width:0.019716"
       d="m 15.358755,21.840589 c -0.0511,-0.02031 -0.08986,-0.10509 -0.07275,-0.15906 0.04652,-0.146535 0.264957,-0.11454 0.264957,0.0388 0,0.09138 -0.102915,0.155765 -0.192214,0.120255 z"
       id="path3037" />
    <path
       style="fill:#aaaaff;stroke:#000007;stroke-width:0.019716"
       d="m 16.92383,16.128458 c -0.09324,-0.05404 -0.161838,-0.185359 -0.14457,-0.276742 0.03992,-0.21122 0.263613,-0.315282 0.435555,-0.202622 0.175439,0.114945 0.164252,0.394506 -0.01935,0.483383 -0.104925,0.05079 -0.178962,0.04969 -0.271646,-0.0041 z"
       id="path3076" />
    <path
       style="fill:#aaaaff;stroke:#000007;stroke-width:0.019716"
       d="m 16.909227,14.954225 c -0.259093,-0.08526 -0.433068,-0.312226 -0.433068,-0.564988 0,-0.200243 0.147465,-0.434277 0.329,-0.522159 0.123195,-0.05964 0.395982,-0.05994 0.512354,-5.51e-4 0.127035,0.06482 0.195808,0.134265 0.25986,0.262437 0.08569,0.171509 0.08569,0.352118 0,0.523626 -0.10029,0.200687 -0.255917,0.301493 -0.481138,0.311639 -0.07579,0.0035 -0.15994,-0.0011 -0.187008,-0.01005 z"
       id="path3115" />
    <path
       style="fill:#aaaaff;stroke:#000007;stroke-width:0.019716"
       d="m 14.758613,13.742599 c -0.160197,-0.05716 -0.310652,-0.224766 -0.348279,-0.387963 -0.06616,-0.286965 0.03967,-0.536603 0.284343,-0.670671 0.104325,-0.05717 0.135345,-0.06465 0.265746,-0.06417 0.361797,0.0014 0.614244,0.273228 0.585553,0.630643 -0.01626,0.202643 -0.182763,0.425156 -0.366573,0.489906 -0.10488,0.03694 -0.320349,0.0381 -0.42079,0.0023 z"
       id="path3154" />
    <path
       style="fill:#aaaaff;stroke:#000007;stroke-width:0.019716"
       d="m 16.832547,13.148986 c -0.456502,-0.12276 -0.744073,-0.608022 -0.629638,-1.062485 l 0.02202,-0.08745 h 0.832744 0.832745 l 0.02048,0.06398 c 0.06513,0.203535 0.03958,0.439286 -0.07029,0.648789 -0.186877,0.356324 -0.616254,0.542538 -1.008054,0.437177 z"
       id="path3193" />
    <path
       style="fill:#aaaaff;stroke:#000007;stroke-width:0.019716"
       d="m 18.924233,13.734025 c -0.11577,-0.05426 -0.23856,-0.171702 -0.294106,-0.281316 -0.03753,-0.07406 -0.04766,-0.124635 -0.04758,-0.237468 1.62e-4,-0.219509 0.02518,-0.28352 0.164086,-0.419784 0.09493,-0.09314 0.146265,-0.12678 0.236628,-0.155084 0.270369,-0.0847 0.56735,0.03983 0.696222,0.291932 0.069,0.134985 0.07234,0.348444 0.0076,0.493894 -0.05208,0.11724 -0.15964,0.233804 -0.268161,0.290625 -0.11499,0.06021 -0.383158,0.06952 -0.49482,0.0172 z"
       id="path3232" />
    <path
       style="fill:#aaaaff;stroke:#000007;stroke-width:0.019716"
       d="m 20.649158,13.261901 c -0.07026,-0.06968 -0.187771,-0.178593 -0.26113,-0.242023 l -0.13338,-0.115335 h 0.09173 c 0.08914,0 0.09678,-0.005 0.271171,-0.177581 0.22404,-0.221707 0.443562,-0.387147 0.668043,-0.503457 0.287532,-0.14898 0.423162,-0.188391 0.687272,-0.199711 0.209586,-0.009 0.246069,-0.0051 0.393697,0.04111 0.221948,0.06959 0.389019,0.172308 0.565319,0.347575 0.190735,0.18962 0.319279,0.427913 0.366439,0.679299 l 0.01455,0.07779 -0.106395,-0.09572 c -0.307516,-0.276642 -0.684472,-0.448995 -1.045042,-0.47782 -0.38511,-0.03078 -0.737619,0.142725 -1.167831,0.574851 l -0.216735,0.217695 z"
       id="path3271" />
    <path
       style="fill:#aaaaff;stroke:#000007;stroke-width:0.019716"
       d="M 13.197941,13.253095 C 12.989589,13.007434 12.666059,12.769037 12.39251,12.6596 c -0.411299,-0.164545 -0.995624,-0.0114 -1.457462,0.381866 -0.06486,0.05523 -0.12102,0.09112 -0.124815,0.07974 -0.01305,-0.03905 0.07868,-0.305321 0.14916,-0.433196 0.08496,-0.154116 0.323727,-0.396585 0.481782,-0.489259 0.222404,-0.13041 0.340068,-0.166233 0.577575,-0.175866 0.17769,-0.0072 0.248324,-0.0012 0.383856,0.03299 0.345899,0.08709 0.717663,0.31318 1.063731,0.6469 0.206768,0.199391 0.210369,0.201776 0.305402,0.20225 l 0.09616,4.78e-4 -0.10827,0.09243 c -0.05955,0.05083 -0.179738,0.161352 -0.26709,0.245582 -0.08735,0.08423 -0.162647,0.152352 -0.167321,0.151386 -0.0046,-9.5e-4 -0.06195,-0.06478 -0.12729,-0.141825 z"
       id="path3310" />
    <path
       style="fill:#333333;stroke:#333333;stroke-width:0.157178px;stroke-linecap:butt;stroke-linejoin:miter;stroke-opacity:1"
       d="m 23.485046,15.857341 c 0.452942,-0.13869 0.918842,-0.204251 1.571781,0.78589 v 1.571783 c -0.340399,0.45186 -0.769977,0.811449 -1.571781,0.785891"
       id="path7737"
       sodipodi:nodetypes="cccc" />
    <path
       style="fill:#333333;stroke:#333333;stroke-width:0.157178px;stroke-linecap:butt;stroke-linejoin:miter;stroke-opacity:1"
       d="m 10.910787,18.962232 c -0.452943,0.13869 -0.9188412,0.20425 -1.5717822,-0.785891 v -1.571783 c 0.340401,-0.45186 0.7699772,-0.81145 1.5717822,-0.785892"
       id="path4193"
       sodipodi:nodetypes="cccc" />
  </g>
</svg>
