<?xml version="1.0" encoding="UTF-8" standalone="no"?>
<svg
   id="svg4379"
   height="16"
   width="16"
   version="1.1"
   sodipodi:docname="symbolic.svg"
   inkscape:version="1.3 (0e150ed6c4, 2023-07-21)"
   viewBox="0 0 128 128"
   xmlns:inkscape="http://www.inkscape.org/namespaces/inkscape"
   xmlns:sodipodi="http://sodipodi.sourceforge.net/DTD/sodipodi-0.dtd"
   xmlns:xlink="http://www.w3.org/1999/xlink"
   xmlns="http://www.w3.org/2000/svg"
   xmlns:svg="http://www.w3.org/2000/svg"
   xmlns:rdf="http://www.w3.org/1999/02/22-rdf-syntax-ns#"
   xmlns:cc="http://creativecommons.org/ns#"
   xmlns:dc="http://purl.org/dc/elements/1.1/">
  <sodipodi:namedview
     pagecolor="#ffffff"
     bordercolor="#666666"
     borderopacity="1"
     objecttolerance="10"
     gridtolerance="10"
     guidetolerance="10"
     inkscape:pageopacity="0"
     inkscape:pageshadow="2"
     inkscape:window-width="1920"
     inkscape:window-height="1019"
     id="namedview46"
     showgrid="true"
     inkscape:zoom="50.289394"
     inkscape:cx="8.9680937"
     inkscape:cy="8.9283239"
     inkscape:window-x="0"
     inkscape:window-y="30"
     inkscape:window-maximized="1"
     inkscape:current-layer="svg4379"
     inkscape:document-rotation="0"
     inkscape:showpageshadow="2"
     inkscape:pagecheckerboard="0"
     inkscape:deskcolor="#d1d1d1">
    <inkscape:grid
       type="xygrid"
       id="grid865"
       empspacing="4"
       originx="0"
       originy="0"
       spacingy="1"
       spacingx="1"
       units="px"
       visible="true" />
    <inkscape:grid
       type="xygrid"
       id="grid867"
       empspacing="2"
       spacingy="0.5"
       spacingx="0.5"
       dotted="true"
       originx="0"
       originy="0"
       units="px"
       visible="true" />
  </sodipodi:namedview>
  <defs
     id="defs4381">
    <linearGradient
       id="linearGradient880">
      <stop
         style="stop-color:#7239b3;stop-opacity:1;"
         offset="0"
         id="stop876" />
      <stop
         style="stop-color:#a56de2;stop-opacity:1;"
         offset="1"
         id="stop878" />
    </linearGradient>
    <linearGradient
       gradientTransform="matrix(2.7297298,0,0,2.7297298,-1.5135124,1.486514)"
       gradientUnits="userSpaceOnUse"
       xlink:href="#linearGradient3924-776"
       id="linearGradient3159"
       y2="43"
       x2="23.99999"
       y1="4.999989"
       x1="23.99999" />
    <linearGradient
       id="linearGradient3924-776">
      <stop
         offset="0"
         style="stop-color:#ffffff;stop-opacity:1"
         id="stop3124" />
      <stop
         offset="0.06316455"
         style="stop-color:#ffffff;stop-opacity:0.23529412"
         id="stop3126" />
      <stop
         offset="0.95056331"
         style="stop-color:#ffffff;stop-opacity:0.15686275"
         id="stop3128" />
      <stop
         offset="1"
         style="stop-color:#ffffff;stop-opacity:0.39215687"
         id="stop3130" />
    </linearGradient>
    <radialGradient
       gradientTransform="matrix(2.003784,0,0,1.4,27.98813,-17.4)"
       gradientUnits="userSpaceOnUse"
       xlink:href="#linearGradient3688-166-749-5"
       id="radialGradient2455-1"
       fy="43.5"
       fx="4.9929786"
       r="2.5"
       cy="43.5"
       cx="4.9929786" />
    <linearGradient
       id="linearGradient3688-166-749-5">
      <stop
         offset="0"
         style="stop-color:#181818;stop-opacity:1"
         id="stop2883-0" />
      <stop
         offset="1"
         style="stop-color:#181818;stop-opacity:0"
         id="stop2885-5" />
    </linearGradient>
    <radialGradient
       gradientTransform="matrix(2.003784,0,0,1.4,-20.01187,-104.4)"
       gradientUnits="userSpaceOnUse"
       xlink:href="#linearGradient3688-464-309-8"
       id="radialGradient2457-5"
       fy="43.5"
       fx="4.9929786"
       r="2.5"
       cy="43.5"
       cx="4.9929786" />
    <linearGradient
       id="linearGradient3688-464-309-8">
      <stop
         offset="0"
         style="stop-color:#181818;stop-opacity:1"
         id="stop2889-9" />
      <stop
         offset="1"
         style="stop-color:#181818;stop-opacity:0"
         id="stop2891-4" />
    </linearGradient>
    <linearGradient
       gradientUnits="userSpaceOnUse"
       xlink:href="#linearGradient3702-501-757-0"
       id="linearGradient2459-7"
       y2="39.999443"
       x2="25.058096"
       y1="47.027729"
       x1="25.058096" />
    <linearGradient
       id="linearGradient3702-501-757-0">
      <stop
         offset="0"
         style="stop-color:#181818;stop-opacity:0"
         id="stop2895-0" />
      <stop
         offset="0.5"
         style="stop-color:#181818;stop-opacity:1"
         id="stop2897-2" />
      <stop
         offset="1"
         style="stop-color:#181818;stop-opacity:0"
         id="stop2899-6" />
    </linearGradient>
    <linearGradient
       id="linearGradient3811">
      <stop
         offset="0"
         style="stop-color:#000000;stop-opacity:1"
         id="stop3813" />
      <stop
         offset="1"
         style="stop-color:#000000;stop-opacity:0"
         id="stop3815" />
    </linearGradient>
    <radialGradient
       gradientTransform="matrix(1.5563924,0,0,0.16978827,70.270358,102.13029)"
       gradientUnits="userSpaceOnUse"
       xlink:href="#linearGradient3811"
       id="radialGradient4377"
       fy="93.467628"
       fx="-4.0287771"
       r="35.338131"
       cy="93.467628"
       cx="-4.0287771" />
    <linearGradient
       xlink:href="#linearGradient880"
       id="linearGradient882"
       x1="62.871635"
       y1="15.90732"
       x2="62.871635"
       y2="118.42699"
       gradientUnits="userSpaceOnUse" />
  </defs>
  <metadata
     id="metadata4384">
    <rdf:RDF>
      <cc:Work
         rdf:about="">
        <dc:format>image/svg+xml</dc:format>
        <dc:type
           rdf:resource="http://purl.org/dc/dcmitype/StillImage" />
      </cc:Work>
    </rdf:RDF>
  </metadata>
  <path
     id="rect2"
     style="fill:#fafafa;fill-opacity:1;stroke:#fafafa;stroke-width:1.42762;stroke-opacity:1"
     d="m 63.710658,28.974882 c -9.800606,0 -17.689453,9.307872 -17.689453,20.869141 v 27.714843 c 0,11.561269 7.888847,20.869136 17.689453,20.869136 9.800607,0 17.691406,-9.307867 17.691406,-20.869136 V 49.844023 c 0,-11.561269 -7.890799,-20.869141 -17.691406,-20.869141 z M 50.792689,44.463163 h 26.00586 v 7.121094 h -26.00586 z m 0.09375,10.462891 h 26.00586 v 7.121093 h -26.00586 z m -0.171875,10.769531 h 26.007813 v 7.121094 H 50.714564 Z m -0.18164,10.912109 h 26.005859 v 7.121094 H 50.532924 Z" />
  <path
     d="m 92.345477,74.1643 h -6.550536 v 3.88161 c 0,0.858502 -0.03626,1.705251 -0.111262,2.540781 -0.07502,0.835546 -0.187643,1.659559 -0.333973,2.468037 -0.146376,0.808493 -0.32914,1.604372 -0.543299,2.381682 -0.214091,0.777347 -0.460948,1.535097 -0.739196,2.277165 -0.278253,0.742068 -0.587556,1.46531 -0.92625,2.168058 -0.338716,0.702765 -0.708849,1.386029 -1.104382,2.04536 -0.395535,0.659292 -0.815965,1.297154 -1.264691,1.908974 -0.4487,0.611784 -0.922279,1.198812 -1.420528,1.759008 -0.498247,0.560171 -1.02335,1.090861 -1.567494,1.595361 -0.544143,0.504473 -1.110244,0.982504 -1.696633,1.427198 -0.586417,0.444678 -1.191869,0.860008 -1.816882,1.240831 -0.625015,0.380805 -1.268201,0.728025 -1.928192,1.040875 -0.659989,0.31278 -1.334845,0.59099 -2.026163,0.83176 -0.691339,0.24078 -1.400666,0.44447 -2.119686,0.60907 -0.719019,0.16455 -1.447865,0.28834 -2.190938,0.37271 -0.743072,0.0842 -1.498708,0.12722 -2.262186,0.12722 h -0.169175 c -0.76348,0 -1.519138,-0.0427 -2.262165,-0.12722 -0.74305,-0.0842 -1.471986,-0.20806 -2.190937,-0.37271 -0.71895,-0.16456 -1.428439,-0.36829 -2.119687,-0.60907 -0.691227,-0.24077 -1.366265,-0.51898 -2.026162,-0.83176 -0.659877,-0.31285 -1.303292,-0.66007 -1.928192,-1.040875 -0.624902,-0.380823 -1.230603,-0.796153 -1.816881,-1.240831 -0.586256,-0.444694 -1.152629,-0.922725 -1.696634,-1.427198 -0.544008,-0.5045 -1.064941,-1.03519 -1.563051,-1.595361 -0.498087,-0.560196 -0.971961,-1.147224 -1.420526,-1.759008 -0.448591,-0.61182 -0.873741,-1.249682 -1.269138,-1.908974 -0.395394,-0.659331 -0.761334,-1.342595 -1.099912,-2.04536 -0.338603,-0.702748 -0.648111,-1.42599 -0.92625,-2.168058 -0.278159,-0.742068 -0.52515,-1.499818 -0.739218,-2.277165 -0.214091,-0.77731 -0.396947,-1.573189 -0.543276,-2.381682 -0.146379,-0.808478 -0.259009,-1.632491 -0.333998,-2.468037 -0.07501,-0.83553 -0.111261,-1.682279 -0.111261,-2.540781 V 74.1643 h -6.657398 v 6.845086 c 0,0.990696 0.04947,1.967508 0.146831,2.931668 0.09736,0.964195 0.241884,1.916876 0.431967,2.849831 0.190153,0.932975 0.425584,1.8483 0.703583,2.745316 0.278023,0.897014 0.600642,1.775334 0.961883,2.631671 0.361219,0.856332 0.762614,1.688922 1.202333,2.499859 0.439719,0.810956 0.915964,1.598104 1.429441,2.35895 0.513501,0.760876 1.065122,1.49844 1.647661,2.204446 0.58254,0.706008 1.196746,1.380723 1.84358,2.027173 0.646858,0.64642 1.324198,1.26318 2.030632,1.84536 0.706432,0.58216 1.442984,1.13218 2.204275,1.64538 0.761311,0.51315 1.548731,0.98772 2.360157,1.42716 0.811449,0.43944 1.645791,0.84348 2.50266,1.20447 0.856844,0.36103 1.734252,0.6812 2.631775,0.95906 0.897542,0.27782 1.814073,0.51456 2.747573,0.70451 0.933498,0.1899 1.885259,0.33444 2.849992,0.43179 0.964735,0.0973 1.943375,0.14548 2.934603,0.14548 h 0.218195 c 0.99125,0 1.969892,-0.0483 2.934602,-0.14548 0.964734,-0.0973 1.916496,-0.24186 2.849993,-0.43179 0.933498,-0.18991 1.850033,-0.42669 2.747576,-0.70451 0.897541,-0.27786 1.774952,-0.59803 2.631796,-0.95906 0.856844,-0.36099 1.69121,-0.76503 2.502659,-1.20447 0.811427,-0.43944 1.598844,-0.91401 2.360136,-1.42716 0.761311,-0.5132 1.497864,-1.06322 2.204296,-1.64538 0.706434,-0.58218 1.383774,-1.19894 2.030609,-1.84536 0.646856,-0.64645 1.261064,-1.321165 1.843603,-2.027173 0.582515,-0.706006 1.13416,-1.44357 1.647638,-2.204446 0.513498,-0.760846 0.989745,-1.547994 1.429464,-2.35895 0.439719,-0.810937 0.841114,-1.643527 1.202333,-2.499859 0.361241,-0.856337 0.68386,-1.734657 0.961883,-2.631671 0.277999,-0.897016 0.513522,-1.812341 0.703583,-2.745316 0.190152,-0.932955 0.334544,-1.885636 0.431946,-2.849831 0.09735,-0.96416 0.147059,-1.940972 0.147059,-2.931668 z"
     style="fill:#fafafa;fill-opacity:1;stroke:#fafafa;stroke-width:2.30344;stroke-opacity:1"
     id="path39" />
  <rect
     style="fill:#fafafa;fill-opacity:1;stroke:#fafafa;stroke-width:0.738818;stroke-opacity:1"
     id="rect42"
     width="7.1082339"
     height="10.117485"
     x="59.983887"
     y="107.32535" />
  <path
     id="path43"
     style="fill:#fafafa;fill-opacity:1;stroke:#fafafa;stroke-opacity:1"
     inkscape:transform-center-x="-2.4245744"
     inkscape:transform-center-y="2.234408"
     d="m 42.866312,23.242962 1.318359,13.474609 2.039063,11.814454 11.009765,-7.88086 9.212891,-7.673828 -12.328125,-5.59375 z m 1.582031,3.019531 9.601562,3 10.519532,4.052735 -7.861328,5.560547 -9.392579,5.707031 -1.740234,-8.558594 z" />
  <path
     id="path45"
     style="fill:#fafafa;fill-opacity:1;stroke:#fafafa;stroke-opacity:1"
     inkscape:transform-center-x="2.4245751"
     inkscape:transform-center-y="2.234408"
     d="m 85.056662,23.00036 -1.31836,13.474609 -2.03906,11.814454 -11.009766,-7.88086 -9.212887,-7.673828 12.328121,-5.59375 z m -1.58203,3.019531 -9.601562,3 -10.519531,4.052735 7.861327,5.560547 9.392579,5.707031 1.740237,-8.558594 z" />
</svg>
